<svg width="954" height="834" viewBox="0 0 954 834" fill="none" xmlns="http://www.w3.org/2000/svg">
<g id="apartment">
<path id="Rectangle 74" d="M65 3H3V831H951V3H162" stroke="#2E0B49" stroke-width="6"/>
<g id="bedroom-socket1">
<rect id="Rectangle 134" x="952" y="514" width="14" height="7" transform="rotate(90 952 514)" fill="white" stroke="#2E0B49"/>
<line id="Line 34" x1="950" y1="518.5" x2="947" y2="518.5" stroke="black"/>
<line id="Line 35" x1="950" y1="523.5" x2="947" y2="523.5" stroke="black"/>
</g>
<line id="Line 15" x1="439" y1="427" x2="951" y2="427" stroke="#2E0B49" stroke-width="2"/>
<line id="Line 26" x1="439" y1="435" x2="951" y2="435" stroke="#2E0B49" stroke-width="2"/>
<line id="Line 21" x1="3" y1="427" x2="169" y2="427" stroke="#2E0B49" stroke-width="2"/>
<line id="Line 22" x1="274" y1="427" x2="338" y2="427" stroke="#2E0B49" stroke-width="2"/>
<line id="Line 24" x1="3" y1="435" x2="169" y2="435" stroke="#2E0B49" stroke-width="2"/>
<line id="Line 25" x1="274" y1="435" x2="327" y2="435" stroke="#2E0B49" stroke-width="2"/>
<line id="Line 16" x1="630" y1="3" x2="630" y2="275" stroke="#2E0B49" stroke-width="2"/>
<line id="Line 19" x1="638" y1="3" x2="638" y2="275" stroke="#2E0B49" stroke-width="2"/>
<line id="Line 18" x1="630" y1="351" x2="630" y2="428" stroke="#2E0B49" stroke-width="2"/>
<line id="Line 20" x1="638" y1="351" x2="638" y2="428" stroke="#2E0B49" stroke-width="2"/>
<line id="Line 17" x1="327" y1="428" x2="327" y2="831" stroke="#2E0B49" stroke-width="2"/>
<g id="bathroom-socket1">
<rect id="Rectangle 134_2" x="331" y="451" width="14" height="7" transform="rotate(90 331 451)" fill="white" stroke="#2E0B49"/>
<line id="Line 34_2" x1="329" y1="455.5" x2="326" y2="455.5" stroke="black"/>
<line id="Line 35_2" x1="329" y1="460.5" x2="326" y2="460.5" stroke="black"/>
</g>
<line id="Line 23" x1="337" y1="428" x2="337" y2="831" stroke="#2E0B49" stroke-width="2"/>
<rect id="Rectangle 91" x="104.5" y="132.5" width="64" height="172" rx="32" fill="#F2F2F2" stroke="#2E0B49"/>
<path id="Rectangle 96" d="M337.5 548.5H392C397.247 548.5 401.5 552.753 401.5 558V713C401.5 718.247 397.247 722.5 392 722.5H337.5V548.5Z" fill="#F2F2F2" stroke="#2E0B49"/>
<path id="Rectangle 110" d="M5.5 435.5H98.5V607.5H5.5V435.5Z" fill="#F2F2F2" stroke="#2E0B49"/>
<path id="Rectangle 118" d="M5.5 704.5H326.5V828.5H5.5V704.5Z" fill="#F2F2F2" stroke="#2E0B49"/>
<path id="Rectangle 127" d="M855.5 5.5H948.5V322.5H855.5V5.5Z" fill="#F2F2F2" stroke="#2E0B49"/>
<rect id="Rectangle 89" x="483.5" y="372.5" width="146" height="54" fill="#EEE4D5" stroke="#2E0B49"/>
<rect id="Rectangle 115" x="5.5" y="435.5" width="24" height="39" fill="#EEE4D5" stroke="#2E0B49"/>
<rect id="Rectangle 117" x="5.5" y="474.5" width="3" height="94" fill="#CFF1F9" stroke="#2E0B49"/>
<rect id="Rectangle 116" x="5.5" y="568.5" width="24" height="39" fill="#EEE4D5" stroke="#2E0B49"/>
<path id="Rectangle 121" d="M6.5 616.5H12C17.2467 616.5 21.5 620.753 21.5 626V686C21.5 691.247 17.2467 695.5 12 695.5H6.5V616.5Z" fill="white" stroke="#2E0B49"/>
<path id="Rectangle 122" d="M21.5 630.5H72C86.0833 630.5 97.5 641.917 97.5 656C97.5 670.083 86.0833 681.5 72 681.5H21.5V630.5Z" fill="white" stroke="#2E0B49"/>
<rect id="Rectangle 95" x="492.5" y="435.5" width="456" height="68" fill="#EEE4D5" stroke="#2E0B49"/>
<rect id="Rectangle 126" x="638.5" y="5.5" width="216" height="56" fill="#EEE4D5" stroke="#2E0B49"/>
<rect id="Rectangle 90" x="5.5" y="144.5" width="27" height="130" fill="#EEE4D5" stroke="#2E0B49"/>
<path id="Rectangle 97" d="M470.5 612C470.5 614.485 468.485 616.5 466 616.5L450.5 616.5C436.141 616.5 424.5 604.859 424.5 590.5C424.5 576.141 436.141 564.5 450.5 564.5L466 564.5C468.485 564.5 470.5 566.515 470.5 569L470.5 612Z" fill="#C2C5FF" stroke="#2E0B49"/>
<path id="Rectangle 113" d="M470.5 698C470.5 700.485 468.485 702.5 466 702.5L450.5 702.5C436.141 702.5 424.5 690.859 424.5 676.5C424.5 662.141 436.141 650.5 450.5 650.5L466 650.5C468.485 650.5 470.5 652.515 470.5 655L470.5 698Z" fill="#C2C5FF" stroke="#2E0B49"/>
<g id="small-sofa">
<path id="Rectangle 76" d="M194.929 60.567C198.882 62.8494 200.236 67.9043 197.954 71.8576L190.411 84.9228C182.612 98.4298 165.341 103.058 151.834 95.2594C138.327 87.4611 133.699 70.1898 141.498 56.6828L149.041 43.6176C151.323 39.6643 156.378 38.3099 160.331 40.5923L194.929 60.567Z" fill="#C2C5FF" stroke="black"/>
<path id="Rectangle 94" d="M183.619 66.267C189.12 69.4426 191.004 76.4759 187.829 81.9763L180.33 94.9637C175.222 103.812 163.907 106.844 155.059 101.735L143.877 95.2796C135.507 90.4471 132.64 79.7443 137.472 71.3741L145.47 57.5207C148.646 52.0203 155.679 50.1358 161.18 53.3114L183.619 66.267Z" fill="#A1A6F5" stroke="black"/>
<rect id="Rectangle 77" x="209.737" y="71.8524" width="36.8879" height="11.0341" rx="5.51703" transform="rotate(120 209.737 71.8524)" fill="#C2C5FF" stroke="black"/>
<rect id="Rectangle 78" x="153.415" y="38.7221" width="36.3514" height="11.0341" rx="5.51703" transform="rotate(120 153.415 38.7221)" fill="#C2C5FF" stroke="black"/>
<path id="Rectangle 79" d="M201.234 51.7015C204.832 53.7788 206.065 58.3796 203.987 61.9776C202.353 64.8083 198.734 65.7781 195.903 64.1438L158.037 42.282C155.206 40.6477 154.237 37.0282 155.871 34.1976C157.948 30.5996 162.549 29.3668 166.147 31.4441L201.234 51.7015Z" fill="#C2C5FF" stroke="black"/>
</g>
<g id="table">
<rect id="Rectangle 75" x="462.5" y="45.5" width="105" height="173" rx="4.5" fill="#FEF4EA" stroke="#2E0B49"/>
<rect id="Rectangle 88" x="466.25" y="49.25" width="97.5" height="165.5" rx="4.75" fill="#FFF8F1" stroke="#DAD1E0" stroke-width="0.5"/>
<path id="Rectangle 80" d="M412.5 75C412.5 72.5147 414.515 70.5 417 70.5H430C442.426 70.5 452.5 80.5736 452.5 93C452.5 105.426 442.426 115.5 430 115.5H417C414.515 115.5 412.5 113.485 412.5 111V75Z" fill="#C2C5FF" stroke="#2E0B49"/>
<path id="Rectangle 84" d="M616.5 192C616.5 194.485 614.485 196.5 612 196.5L599 196.5C586.574 196.5 576.5 186.426 576.5 174C576.5 161.574 586.574 151.5 599 151.5L612 151.5C614.485 151.5 616.5 153.515 616.5 156L616.5 192Z" fill="#C2C5FF" stroke="#2E0B49"/>
<path id="Rectangle 82" d="M412.5 156C412.5 153.515 414.515 151.5 417 151.5H430C442.426 151.5 452.5 161.574 452.5 174C452.5 186.426 442.426 196.5 430 196.5H417C414.515 196.5 412.5 194.485 412.5 192V156Z" fill="#C2C5FF" stroke="#2E0B49"/>
<path id="Rectangle 85" d="M616.5 111C616.5 113.485 614.485 115.5 612 115.5L599 115.5C586.574 115.5 576.5 105.426 576.5 93C576.5 80.5736 586.574 70.5 599 70.5L612 70.5C614.485 70.5 616.5 72.5147 616.5 75L616.5 111Z" fill="#C2C5FF" stroke="#2E0B49"/>
<rect id="Rectangle 81" x="411" y="69" width="8" height="48" rx="4" fill="#C2C5FF" stroke="#2E0B49"/>
<rect id="Rectangle 86" x="618" y="198" width="8" height="48" rx="4" transform="rotate(-180 618 198)" fill="#C2C5FF" stroke="#2E0B49"/>
<rect id="Rectangle 83" x="411" y="150" width="8" height="48" rx="4" fill="#C2C5FF" stroke="#2E0B49"/>
<rect id="Rectangle 87" x="618" y="117" width="8" height="48" rx="4" transform="rotate(-180 618 117)" fill="#C2C5FF" stroke="#2E0B49"/>
</g>
<rect id="Rectangle 98" x="472" y="618" width="9" height="55" rx="4.5" transform="rotate(-180 472 618)" fill="#C2C5FF" stroke="#2E0B49"/>
<rect id="Rectangle 114" x="472" y="704" width="9" height="55" rx="4.5" transform="rotate(-180 472 704)" fill="#C2C5FF" stroke="#2E0B49"/>
<line id="Line 27" x1="483.913" y1="372.508" x2="551.913" y2="360.508" stroke="black"/>
<path id="Line 28" d="M629 372L561 360" stroke="black"/>
<line id="Line 29" x1="557.5" y1="372" x2="557.5" y2="426" stroke="black"/>
<line id="Line 30" x1="644.5" y1="435" x2="644.5" y2="504" stroke="black"/>
<line id="Line 32" x1="745.5" y1="5" x2="745.5" y2="62" stroke="black"/>
<line id="Line 31" x1="797.5" y1="435" x2="797.5" y2="504" stroke="black"/>
<g id="sofa">
<path id="Rectangle 92" d="M227.5 124C227.5 114.335 235.335 106.5 245 106.5H258C279.815 106.5 297.5 124.185 297.5 146V291C297.5 312.815 279.815 330.5 258 330.5H245C235.335 330.5 227.5 322.665 227.5 313V124Z" fill="#C2C5FF" stroke="#2E0B49"/>
<rect id="Rectangle 93" x="212.5" y="121.5" width="68" height="194" rx="29.5" fill="#A2A6F5" stroke="#2E0B49"/>
</g>
<rect id="Rectangle 101" x="577.5" y="544.5" width="371" height="232" fill="#FEF4EA" stroke="#2E0B49"/>
<rect id="Rectangle 102" x="937" y="538" width="11" height="245" fill="#EEE4D5" stroke="#2E0B49" stroke-width="2"/>
<rect id="Rectangle 103" x="577.5" y="544.5" width="4" height="232" fill="#EEE4D5" stroke="#2E0B49"/>
<rect id="Rectangle 104" x="876.5" y="563.5" width="55" height="79" rx="3.5" fill="#EEE4D5" stroke="#2E0B49"/>
<path id="Rectangle 106" d="M873.5 577.922C873.5 576.567 874.58 575.459 875.934 575.423L907.934 574.581C909.34 574.544 910.5 575.674 910.5 577.08V628.879C910.5 630.299 909.32 631.433 907.901 631.377L875.901 630.114C874.56 630.061 873.5 628.958 873.5 627.616V577.922Z" fill="white" stroke="#2E0B49"/>
<rect id="Rectangle 105" x="876.5" y="674.5" width="55" height="79" rx="3.5" fill="#EEE4D5" stroke="#2E0B49"/>
<path id="Rectangle 107" d="M873.5 687.922C873.5 686.567 874.58 685.459 875.934 685.423L907.934 684.581C909.34 684.544 910.5 685.674 910.5 687.08V738.879C910.5 740.299 909.32 741.433 907.901 741.377L875.901 740.114C874.56 740.061 873.5 738.958 873.5 737.616V687.922Z" fill="white" stroke="#2E0B49"/>
<rect id="Rectangle 108" x="587.5" y="541.5" width="276" height="239" rx="9.5" fill="#FFF8F1" stroke="#2E0B49"/>
<rect id="Rectangle 109" x="801.5" y="538.5" width="36" height="245" rx="1.5" fill="#E4DFD9" stroke="#2E0B49"/>
<rect id="Rectangle 111" x="32.5" y="481.5" width="50" height="78" rx="25" fill="#CFF1F9" stroke="#2E0B49"/>
<rect id="Rectangle 130" x="875.5" y="25.5" width="57" height="56" rx="4.5" fill="#CFF1F9" stroke="#2E0B49"/>
<rect id="Rectangle 119" x="314.5" y="720.5" width="96" height="275" rx="48" transform="rotate(90 314.5 720.5)" fill="#CFF1F9" stroke="#2E0B49"/>
<rect id="Rectangle 112" x="23" y="517" width="24" height="6" fill="white" stroke="#2E0B49"/>
<rect id="Rectangle 131" x="916.648" y="36.3232" width="28.7409" height="6" transform="rotate(-45 916.648 36.3232)" fill="white" stroke="#2E0B49"/>
<rect id="Rectangle 120" x="18" y="763" width="36" height="11" fill="white" stroke="#2E0B49"/>
<circle id="Ellipse 182" cx="27" cy="510" r="2" fill="white" stroke="#2E0B49"/>
<ellipse id="Ellipse 184" cx="23.5" cy="750" rx="3.5" ry="4" fill="white" stroke="#2E0B49"/>
<circle id="Ellipse 183" cx="27" cy="530" r="2" fill="white" stroke="#2E0B49"/>
<circle id="Ellipse 186" cx="14" cy="630" r="2" fill="white" stroke="#2E0B49"/>
<circle id="Ellipse 185" cx="23.5" cy="787.5" r="3.5" fill="white" stroke="#2E0B49"/>
<g id="living-room-socket1">
<rect id="Rectangle 134_3" x="231" y="3" width="14" height="7" fill="white" stroke="#2E0B49"/>
<line id="Line 34_3" x1="235.5" y1="5" x2="235.5" y2="8" stroke="black"/>
<line id="Line 35_3" x1="240.5" y1="5" x2="240.5" y2="8" stroke="black"/>
</g>
<g id="kitchen-socket1">
<rect id="Rectangle 134_4" x="649" y="3" width="14" height="7" fill="white" stroke="#2E0B49"/>
<line id="Line 34_4" x1="653.5" y1="5" x2="653.5" y2="8" stroke="black"/>
<line id="Line 35_4" x1="658.5" y1="5" x2="658.5" y2="8" stroke="black"/>
</g>
<g id="living-room-socket2">
<rect id="Rectangle 134_5" x="9" y="338" width="14" height="7" transform="rotate(90 9 338)" fill="white" stroke="#2E0B49"/>
<line id="Line 34_5" x1="7" y1="342.5" x2="4" y2="342.5" stroke="black"/>
<line id="Line 35_5" x1="7" y1="347.5" x2="4" y2="347.5" stroke="black"/>
</g>
<g id="bathroom-socket2">
<rect id="Rectangle 134_6" x="56" y="432" width="14" height="7" fill="white" stroke="#2E0B49"/>
<line id="Line 34_6" x1="60.5" y1="434" x2="60.5" y2="437" stroke="black"/>
<line id="Line 35_6" x1="65.5" y1="434" x2="65.5" y2="437" stroke="black"/>
</g>
<g id="kitchen-socket2">
<rect id="Rectangle 134_7" x="747" y="424" width="14" height="7" fill="white" stroke="#2E0B49"/>
<line id="Line 34_7" x1="751.5" y1="426" x2="751.5" y2="429" stroke="black"/>
<line id="Line 35_7" x1="756.5" y1="426" x2="756.5" y2="429" stroke="black"/>
</g>
<g id="bedroom-socket2">
<rect id="Rectangle 134_8" x="340.5" y="670.5" width="14" height="7" transform="rotate(90 340.5 670.5)" fill="white" stroke="#2E0B49"/>
<line id="Line 34_8" x1="338.5" y1="675" x2="335.5" y2="675" stroke="black"/>
<line id="Line 35_8" x1="338.5" y1="680" x2="335.5" y2="680" stroke="black"/>
</g>
<g id="living-room-socket3">
<rect id="Rectangle 134_9" x="633" y="231" width="14" height="7" transform="rotate(90 633 231)" fill="white" stroke="#2E0B49"/>
<line id="Line 34_9" x1="631" y1="235.5" x2="628" y2="235.5" stroke="black"/>
<line id="Line 35_9" x1="631" y1="240.5" x2="628" y2="240.5" stroke="black"/>
</g>
<g id="living-room-radiator2">
<g id="Group 110">
<rect id="Rectangle 138" x="120.5" y="427.5" width="4" height="9" transform="rotate(-180 120.5 427.5)" fill="#CDCDCD" stroke="#2E0B49"/>
<rect id="Rectangle 139" x="50.5" y="427.5" width="4" height="9" transform="rotate(-180 50.5 427.5)" fill="#CDCDCD" stroke="#2E0B49"/>
<rect id="Rectangle 137" x="139.5" y="422.5" width="116" height="8" rx="4" transform="rotate(-180 139.5 422.5)" fill="#F8F8F8" stroke="#2E0B49"/>
<g id="Group 108">
<path id="Vector 75" d="M86.5 421C86.6667 421 87 420.8 87 420C87 419 86 419 86 418C86 417.2 86.3333 417 86.5 417" stroke="#2E0B49" stroke-linecap="round"/>
<path id="Vector 76" d="M82.5 421C82.6667 421 83 420.8 83 420C83 419 82 419 82 418C82 417.2 82.3333 417 82.5 417" stroke="#2E0B49" stroke-linecap="round"/>
<path id="Vector 77" d="M78.5 421C78.6667 421 79 420.8 79 420C79 419 78 419 78 418C78 417.2 78.3333 417 78.5 417" stroke="#2E0B49" stroke-linecap="round"/>
</g>
</g>
</g>
<g id="bedroom-radiator">
<g id="Group 112">
<rect id="Rectangle 138_2" x="490.5" y="830.5" width="4" height="9" transform="rotate(-180 490.5 830.5)" fill="#CDCDCD" stroke="#2E0B49"/>
<rect id="Rectangle 139_2" x="420.5" y="830.5" width="4" height="9" transform="rotate(-180 420.5 830.5)" fill="#CDCDCD" stroke="#2E0B49"/>
<rect id="Rectangle 137_2" x="509.5" y="825.5" width="116" height="8" rx="4" transform="rotate(-180 509.5 825.5)" fill="#F8F8F8" stroke="#2E0B49"/>
<g id="Group 108_2">
<path id="Vector 75_2" d="M456.5 824C456.667 824 457 823.8 457 823C457 822 456 822 456 821C456 820.2 456.333 820 456.5 820" stroke="#2E0B49" stroke-linecap="round"/>
<path id="Vector 76_2" d="M452.5 824C452.667 824 453 823.8 453 823C453 822 452 822 452 821C452 820.2 452.333 820 452.5 820" stroke="#2E0B49" stroke-linecap="round"/>
<path id="Vector 77_2" d="M448.5 824C448.667 824 449 823.8 449 823C449 822 448 822 448 821C448 820.2 448.333 820 448.5 820" stroke="#2E0B49" stroke-linecap="round"/>
</g>
</g>
</g>
<g id="kitchen-radiator">
<g id="Group 111">
<rect id="Rectangle 138_3" x="636.5" y="239.5" width="4" height="9" transform="rotate(-90 636.5 239.5)" fill="#CDCDCD" stroke="#2E0B49"/>
<rect id="Rectangle 139_3" x="636.5" y="169.5" width="4" height="9" transform="rotate(-90 636.5 169.5)" fill="#CDCDCD" stroke="#2E0B49"/>
<rect id="Rectangle 137_3" x="641.5" y="258.5" width="116" height="8" rx="4" transform="rotate(-90 641.5 258.5)" fill="#F8F8F8" stroke="#2E0B49"/>
<g id="Group 108_3">
<path id="Vector 75_3" d="M643 205.5C643 205.667 643.2 206 644 206C645 206 645 205 646 205C646.8 205 647 205.333 647 205.5" stroke="#2E0B49" stroke-linecap="round"/>
<path id="Vector 76_3" d="M643 201.5C643 201.667 643.2 202 644 202C645 202 645 201 646 201C646.8 201 647 201.333 647 201.5" stroke="#2E0B49" stroke-linecap="round"/>
<path id="Vector 77_3" d="M643 197.5C643 197.667 643.2 198 644 198C645 198 645 197 646 197C646.8 197 647 197.333 647 197.5" stroke="#2E0B49" stroke-linecap="round"/>
</g>
</g>
</g>
<g id="living-room-radiator1">
<g id="Group 109">
<rect id="Rectangle 138_4" x="324.5" y="4.5" width="4" height="9" fill="#CDCDCD" stroke="#2E0B49"/>
<rect id="Rectangle 139_4" x="394.5" y="4.5" width="4" height="9" fill="#CDCDCD" stroke="#2E0B49"/>
<rect id="Rectangle 137_4" x="305.5" y="9.5" width="116" height="8" rx="4" fill="#F8F8F8" stroke="#2E0B49"/>
<g id="Group 108_4">
<path id="Vector 75_4" d="M358.5 11C358.333 11 358 11.2 358 12C358 13 359 13 359 14C359 14.8 358.667 15 358.5 15" stroke="#2E0B49" stroke-linecap="round"/>
<path id="Vector 76_4" d="M362.5 11C362.333 11 362 11.2 362 12C362 13 363 13 363 14C363 14.8 362.667 15 362.5 15" stroke="#2E0B49" stroke-linecap="round"/>
<path id="Vector 77_4" d="M366.5 11C366.333 11 366 11.2 366 12C366 13 367 13 367 14C367 14.8 366.667 15 366.5 15" stroke="#2E0B49" stroke-linecap="round"/>
</g>
</g>
</g>
<g id="living-room-tv">
<rect id="Rectangle 136" x="11.5" y="194.5" width="12" height="24" fill="#D9D9D9" stroke="black"/>
<rect id="Rectangle 135" x="15.5" y="166.5" width="8" height="80" fill="#D9D9D9" stroke="black"/>
</g>
<g id="kitchen-cooker">
<rect id="Rectangle 128" x="863.5" y="99.5" width="77" height="117" fill="white" stroke="#2E0B49"/>
<circle id="Ellipse 187" cx="887" cy="123" r="15" stroke="black" stroke-width="0.5" stroke-dasharray="2 2"/>
<circle id="Ellipse 189" cx="887" cy="172" r="15" stroke="black" stroke-width="0.5" stroke-dasharray="2 2"/>
<circle id="Ellipse 188" cx="919" cy="145" r="15" stroke="black" stroke-width="0.5" stroke-dasharray="2 2"/>
<circle id="Ellipse 190" cx="919" cy="193" r="15" stroke="black" stroke-width="0.5" stroke-dasharray="2 2"/>
<circle id="Ellipse 191" cx="887" cy="123" r="11" fill="#FFEDED"/>
<circle id="Ellipse 192" cx="919" cy="145" r="11" fill="#FFEDED"/>
<circle id="Ellipse 193" cx="887" cy="172" r="11" fill="#FFEDED"/>
<circle id="Ellipse 194" cx="919" cy="193" r="11" fill="#FFEDED"/>
</g>
<g id="bathroom-washing-machine">
<path id="Rectangle 123" d="M237.5 472.5H326.5V561.5H237.5V472.5Z" fill="#F4FDFF" stroke="#2E0B49"/>
<path id="Vector 76_5" d="M244.222 475H241.333L240 479H242.222L241.333 482L246 477.2H243.556L244.222 475Z" fill="#F7B634" stroke="#7CD7D9" stroke-width="0.5" stroke-linecap="round" stroke-linejoin="round"/>
<path id="washing machine" d="M253.641 476.672C253.424 476.643 253.279 476.763 253.203 477.031L252.281 479.984L251.375 477.125C251.289 476.896 251.201 476.758 251.109 476.711C251.021 476.664 250.974 476.646 250.969 476.656C250.815 476.664 250.708 476.74 250.648 476.883C250.589 477.023 250.56 477.104 250.562 477.125L249.656 479.984L248.734 477.031C248.667 476.852 248.591 476.742 248.508 476.703C248.424 476.664 248.365 476.648 248.328 476.656C248.19 476.685 248.102 476.742 248.062 476.828C248.026 476.911 248.01 476.958 248.016 476.969C248.018 477.146 248.029 477.245 248.047 477.266L249.234 480.719C249.299 480.87 249.383 480.961 249.484 480.992C249.586 481.023 249.643 481.036 249.656 481.031C249.901 480.99 250.036 480.885 250.062 480.719L250.969 477.797L251.875 480.719C251.943 480.87 252.018 480.961 252.102 480.992C252.185 481.023 252.245 481.036 252.281 481.031C252.427 481.018 252.534 480.966 252.602 480.875C252.669 480.784 252.703 480.732 252.703 480.719L253.891 477.266C254.01 476.927 253.927 476.729 253.641 476.672ZM255.291 478.891C255.356 478.154 255.542 477.695 255.849 477.516C256.159 477.336 256.379 477.263 256.509 477.297C257.035 477.375 257.369 477.609 257.509 478C257.653 478.391 257.715 478.656 257.697 478.797C257.663 479.539 257.496 480.013 257.197 480.219C256.897 480.422 256.668 480.51 256.509 480.484C255.952 480.414 255.603 480.161 255.463 479.727C255.324 479.289 255.267 479.01 255.291 478.891ZM257.697 480.797C257.723 481.016 257.831 481.125 258.021 481.125C258.214 481.125 258.324 481.016 258.353 480.797V476.984C258.324 476.734 258.214 476.609 258.021 476.609C257.831 476.609 257.723 476.734 257.697 476.984V477.234C257.413 476.964 257.168 476.794 256.963 476.727C256.757 476.659 256.606 476.63 256.509 476.641C256.098 476.651 255.765 476.753 255.509 476.945C255.254 477.138 255.06 477.367 254.927 477.633C254.795 477.896 254.705 478.142 254.658 478.371C254.614 478.598 254.595 478.75 254.603 478.828C254.64 479.385 254.74 479.82 254.904 480.133C255.068 480.443 255.257 480.665 255.47 480.801C255.686 480.934 255.89 481.014 256.08 481.043C256.272 481.072 256.416 481.083 256.509 481.078C256.845 481.052 257.124 480.948 257.345 480.766C257.569 480.583 257.686 480.479 257.697 480.453V480.797ZM259.542 477.812C259.581 478.195 259.766 478.495 260.097 478.711C260.428 478.924 260.665 479.057 260.808 479.109C261.282 479.294 261.576 479.464 261.691 479.617C261.805 479.771 261.849 479.888 261.823 479.969C261.784 480.182 261.675 480.322 261.495 480.387C261.316 480.449 261.149 480.477 260.995 480.469C260.748 480.456 260.524 480.4 260.323 480.301C260.126 480.199 260.021 480.141 260.011 480.125C259.87 480.016 259.745 479.953 259.636 479.938C259.498 479.951 259.412 480.013 259.378 480.125C259.347 480.234 259.349 480.318 259.386 480.375C259.529 480.622 259.783 480.797 260.148 480.898C260.515 481 260.787 481.049 260.964 481.047C261.691 481.013 262.142 480.845 262.32 480.543C262.497 480.238 262.571 480.005 262.542 479.844C262.498 479.464 262.293 479.167 261.929 478.953C261.567 478.737 261.303 478.602 261.136 478.547C260.701 478.346 260.438 478.181 260.347 478.051C260.258 477.921 260.224 477.81 260.245 477.719C260.264 477.539 260.364 477.426 260.546 477.379C260.731 477.329 260.881 477.307 260.995 477.312C261.323 477.346 261.589 477.451 261.792 477.625C261.982 477.729 262.086 477.771 262.105 477.75C262.24 477.742 262.323 477.685 262.355 477.578C262.389 477.469 262.389 477.37 262.355 477.281C262.261 477.096 262.064 476.945 261.765 476.828C261.465 476.708 261.188 476.656 260.933 476.672C260.292 476.76 259.894 476.936 259.738 477.199C259.581 477.46 259.516 477.664 259.542 477.812ZM266.262 480.719C266.27 480.87 266.32 480.961 266.411 480.992C266.505 481.023 266.58 481.036 266.637 481.031C266.789 481.021 266.885 480.977 266.927 480.898C266.968 480.82 266.986 480.76 266.981 480.719V478.328C266.908 477.596 266.687 477.133 266.317 476.938C265.947 476.74 265.679 476.656 265.512 476.688C265.119 476.727 264.822 476.828 264.622 476.992C264.424 477.154 264.325 477.245 264.325 477.266H264.294V475.188C264.268 475.023 264.213 474.919 264.13 474.875C264.049 474.828 263.989 474.807 263.95 474.812C263.783 474.839 263.682 474.898 263.645 474.992C263.611 475.083 263.598 475.148 263.606 475.188V480.719C263.617 480.87 263.666 480.961 263.755 480.992C263.843 481.023 263.908 481.036 263.95 481.031C264.101 481.021 264.197 480.977 264.239 480.898C264.281 480.82 264.299 480.76 264.294 480.719V478.359C264.343 477.893 264.502 477.602 264.77 477.484C265.039 477.365 265.213 477.312 265.294 477.328C265.744 477.393 266.023 477.562 266.13 477.836C266.236 478.107 266.281 478.281 266.262 478.359V480.719ZM269.014 477.062C268.985 476.898 268.924 476.794 268.83 476.75C268.739 476.703 268.681 476.682 268.655 476.688C268.48 476.716 268.375 476.78 268.338 476.879C268.302 476.975 268.288 477.036 268.295 477.062V480.734C268.308 480.885 268.364 480.977 268.463 481.008C268.562 481.039 268.626 481.052 268.655 481.047C268.811 481.034 268.911 480.986 268.955 480.902C269 480.819 269.019 480.763 269.014 480.734V477.062ZM268.202 475.672C268.209 475.956 268.366 476.107 268.67 476.125C268.941 476.107 269.087 475.956 269.108 475.672C269.1 475.401 268.944 475.255 268.639 475.234C268.36 475.255 268.215 475.401 268.202 475.672ZM270.312 480.719C270.323 480.87 270.372 480.961 270.461 480.992C270.549 481.023 270.615 481.036 270.656 481.031C270.812 481.018 270.913 480.97 270.957 480.887C271.001 480.803 271.021 480.747 271.016 480.719V478.359C271.062 477.885 271.219 477.587 271.484 477.465C271.753 477.34 271.935 477.289 272.031 477.312C272.487 477.37 272.77 477.525 272.879 477.777C272.988 478.03 273.034 478.224 273.016 478.359V480.719C273.026 480.87 273.082 480.961 273.184 480.992C273.288 481.023 273.362 481.036 273.406 481.031C273.557 481.021 273.654 480.977 273.695 480.898C273.737 480.82 273.755 480.76 273.75 480.719V478.328C273.674 477.596 273.445 477.133 273.062 476.938C272.68 476.74 272.409 476.656 272.25 476.688C271.849 476.727 271.548 476.826 271.348 476.984C271.147 477.141 271.047 477.229 271.047 477.25H271.016V477.062C270.99 476.898 270.932 476.794 270.844 476.75C270.758 476.703 270.695 476.682 270.656 476.688C270.49 476.714 270.388 476.773 270.352 476.867C270.318 476.958 270.305 477.023 270.312 477.062V480.719ZM275.533 478.828C275.572 478.146 275.752 477.721 276.072 477.555C276.395 477.388 276.616 477.318 276.736 477.344C277.267 477.391 277.598 477.608 277.728 477.996C277.858 478.382 277.913 478.659 277.892 478.828C277.858 479.526 277.696 479.956 277.404 480.117C277.115 480.279 276.892 480.344 276.736 480.312C276.186 480.273 275.843 480.068 275.705 479.695C275.567 479.323 275.509 479.034 275.533 478.828ZM278.533 477.062C278.507 476.927 278.453 476.836 278.373 476.789C278.295 476.74 278.244 476.716 278.22 476.719C278.041 476.745 277.931 476.799 277.892 476.883C277.853 476.964 277.837 477.023 277.845 477.062V477.25H277.814C277.587 477.023 277.375 476.878 277.177 476.812C276.979 476.745 276.874 476.714 276.861 476.719C276.098 476.766 275.568 477.025 275.271 477.496C274.974 477.967 274.832 478.385 274.845 478.75C274.861 479.414 275.042 479.936 275.388 480.316C275.737 480.694 276.155 480.885 276.642 480.891C277.046 480.867 277.341 480.772 277.529 480.605C277.719 480.436 277.814 480.339 277.814 480.312H277.845V481.078C277.765 481.565 277.576 481.871 277.279 481.996C276.985 482.121 276.783 482.174 276.673 482.156C276.41 482.141 276.177 482.082 275.974 481.98C275.774 481.882 275.668 481.826 275.658 481.812C275.382 481.682 275.246 481.63 275.252 481.656C275.114 481.661 275.025 481.708 274.986 481.797C274.947 481.885 274.942 481.969 274.97 482.047C275.114 482.299 275.365 482.475 275.724 482.574C276.086 482.673 276.34 482.721 276.486 482.719C277.33 482.674 277.887 482.44 278.158 482.016C278.429 481.591 278.554 481.237 278.533 480.953V477.062ZM284.778 480.703C284.789 480.854 284.842 480.945 284.938 480.977C285.037 481.008 285.109 481.021 285.153 481.016C285.304 481.005 285.401 480.958 285.442 480.875C285.484 480.789 285.502 480.732 285.497 480.703V478.281C285.539 477.836 285.675 477.555 285.907 477.438C286.141 477.32 286.312 477.273 286.419 477.297C286.825 477.359 287.083 477.517 287.192 477.77C287.304 478.02 287.354 478.19 287.341 478.281V480.703C287.351 480.854 287.401 480.945 287.489 480.977C287.578 481.008 287.643 481.021 287.684 481.016C287.864 481.005 287.977 480.961 288.024 480.883C288.074 480.805 288.096 480.745 288.091 480.703V478.312C288.013 477.583 287.774 477.121 287.376 476.926C286.977 476.73 286.7 476.646 286.544 476.672C286.14 476.703 285.824 476.824 285.595 477.035C285.365 477.243 285.249 477.362 285.247 477.391C284.999 477.047 284.756 476.839 284.516 476.766C284.277 476.69 284.119 476.659 284.044 476.672C283.684 476.695 283.416 476.785 283.239 476.941C283.065 477.095 282.979 477.182 282.981 477.203L282.934 477.172V477.047C282.908 476.883 282.854 476.779 282.77 476.734C282.69 476.688 282.63 476.667 282.591 476.672C282.411 476.698 282.302 476.758 282.263 476.852C282.223 476.943 282.208 477.008 282.216 477.047V480.703C282.226 480.854 282.279 480.945 282.376 480.977C282.475 481.008 282.546 481.021 282.591 481.016C282.742 481.005 282.838 480.961 282.88 480.883C282.921 480.805 282.94 480.745 282.934 480.703V478.281C282.984 477.839 283.127 477.56 283.364 477.445C283.601 477.331 283.765 477.281 283.856 477.297C284.283 477.344 284.548 477.496 284.649 477.754C284.751 478.012 284.794 478.188 284.778 478.281V480.703ZM289.85 478.891C289.915 478.154 290.101 477.695 290.409 477.516C290.718 477.336 290.939 477.263 291.069 477.297C291.595 477.375 291.928 477.609 292.069 478C292.212 478.391 292.274 478.656 292.256 478.797C292.222 479.539 292.056 480.013 291.756 480.219C291.457 480.422 291.228 480.51 291.069 480.484C290.511 480.414 290.162 480.161 290.022 479.727C289.884 479.289 289.827 479.01 289.85 478.891ZM292.256 480.797C292.282 481.016 292.39 481.125 292.58 481.125C292.773 481.125 292.884 481.016 292.912 480.797V476.984C292.884 476.734 292.773 476.609 292.58 476.609C292.39 476.609 292.282 476.734 292.256 476.984V477.234C291.972 476.964 291.728 476.794 291.522 476.727C291.316 476.659 291.165 476.63 291.069 476.641C290.657 476.651 290.324 476.753 290.069 476.945C289.814 477.138 289.62 477.367 289.487 477.633C289.354 477.896 289.264 478.142 289.217 478.371C289.173 478.598 289.155 478.75 289.162 478.828C289.199 479.385 289.299 479.82 289.463 480.133C289.627 480.443 289.816 480.665 290.03 480.801C290.246 480.934 290.449 481.014 290.639 481.043C290.832 481.072 290.975 481.083 291.069 481.078C291.405 481.052 291.683 480.948 291.905 480.766C292.129 480.583 292.246 480.479 292.256 480.453V480.797ZM294.008 478.891C294.036 479.417 294.134 479.828 294.301 480.125C294.467 480.422 294.661 480.637 294.883 480.77C295.107 480.9 295.315 480.979 295.508 481.008C295.703 481.039 295.844 481.052 295.93 481.047C296.422 481.029 296.741 480.956 296.887 480.828C297.033 480.701 297.099 480.612 297.086 480.562C297.042 480.297 296.927 480.188 296.742 480.234C296.633 480.276 296.539 480.318 296.461 480.359C296.198 480.451 296.021 480.487 295.93 480.469C295.365 480.414 295.01 480.193 294.867 479.805C294.724 479.417 294.667 479.112 294.695 478.891C294.76 478.164 294.947 477.712 295.254 477.535C295.561 477.358 295.786 477.284 295.93 477.312C296.224 477.344 296.417 477.391 296.508 477.453C296.674 477.518 296.779 477.544 296.82 477.531C297.026 477.477 297.115 477.367 297.086 477.203C297.01 476.977 296.822 476.828 296.52 476.758C296.217 476.688 296.01 476.659 295.898 476.672C295.453 476.706 295.1 476.824 294.84 477.027C294.582 477.228 294.392 477.461 294.27 477.727C294.15 477.99 294.073 478.232 294.039 478.453C294.008 478.674 293.997 478.82 294.008 478.891ZM300.822 480.719C300.83 480.87 300.879 480.961 300.97 480.992C301.064 481.023 301.14 481.036 301.197 481.031C301.348 481.021 301.444 480.977 301.486 480.898C301.528 480.82 301.546 480.76 301.541 480.719V478.328C301.468 477.596 301.246 477.133 300.877 476.938C300.507 476.74 300.239 476.656 300.072 476.688C299.679 476.727 299.382 476.828 299.181 476.992C298.983 477.154 298.884 477.245 298.884 477.266H298.853V475.188C298.827 475.023 298.772 474.919 298.689 474.875C298.608 474.828 298.548 474.807 298.509 474.812C298.343 474.839 298.241 474.898 298.205 474.992C298.171 475.083 298.158 475.148 298.166 475.188V480.719C298.176 480.87 298.226 480.961 298.314 480.992C298.403 481.023 298.468 481.036 298.509 481.031C298.66 481.021 298.757 480.977 298.798 480.898C298.84 480.82 298.858 480.76 298.853 480.719V478.359C298.903 477.893 299.061 477.602 299.33 477.484C299.598 477.365 299.772 477.312 299.853 477.328C300.304 477.393 300.582 477.562 300.689 477.836C300.796 478.107 300.84 478.281 300.822 478.359V480.719ZM303.573 477.062C303.545 476.898 303.484 476.794 303.39 476.75C303.299 476.703 303.24 476.682 303.214 476.688C303.04 476.716 302.934 476.78 302.898 476.879C302.861 476.975 302.847 477.036 302.855 477.062V480.734C302.868 480.885 302.924 480.977 303.023 481.008C303.122 481.039 303.185 481.052 303.214 481.047C303.37 481.034 303.471 480.986 303.515 480.902C303.559 480.819 303.579 480.763 303.573 480.734V477.062ZM302.761 475.672C302.769 475.956 302.925 476.107 303.23 476.125C303.501 476.107 303.646 475.956 303.667 475.672C303.659 475.401 303.503 475.255 303.198 475.234C302.92 475.255 302.774 475.401 302.761 475.672ZM304.872 480.719C304.882 480.87 304.932 480.961 305.02 480.992C305.109 481.023 305.174 481.036 305.216 481.031C305.372 481.018 305.472 480.97 305.516 480.887C305.561 480.803 305.58 480.747 305.575 480.719V478.359C305.622 477.885 305.778 477.587 306.044 477.465C306.312 477.34 306.494 477.289 306.591 477.312C307.046 477.37 307.329 477.525 307.438 477.777C307.548 478.03 307.593 478.224 307.575 478.359V480.719C307.585 480.87 307.641 480.961 307.743 480.992C307.847 481.023 307.921 481.036 307.966 481.031C308.117 481.021 308.213 480.977 308.255 480.898C308.296 480.82 308.315 480.76 308.309 480.719V478.328C308.234 477.596 308.005 477.133 307.622 476.938C307.239 476.74 306.968 476.656 306.809 476.688C306.408 476.727 306.108 476.826 305.907 476.984C305.707 477.141 305.606 477.229 305.606 477.25H305.575V477.062C305.549 476.898 305.492 476.794 305.403 476.75C305.317 476.703 305.255 476.682 305.216 476.688C305.049 476.714 304.947 476.773 304.911 476.867C304.877 476.958 304.864 477.023 304.872 477.062V480.719ZM310.077 478.641C310.139 478.005 310.34 477.618 310.678 477.48C311.019 477.342 311.215 477.286 311.264 477.312C311.761 477.396 312.077 477.626 312.209 478.004C312.345 478.379 312.405 478.591 312.389 478.641H310.077ZM312.717 479.172C312.912 479.164 313.032 479.115 313.077 479.023C313.121 478.93 313.136 478.854 313.123 478.797C312.983 477.849 312.685 477.25 312.229 477C311.773 476.747 311.441 476.638 311.233 476.672C310.806 476.69 310.465 476.799 310.209 477C309.954 477.198 309.763 477.432 309.635 477.703C309.508 477.971 309.424 478.219 309.385 478.445C309.349 478.672 309.334 478.82 309.342 478.891C309.371 479.417 309.472 479.829 309.647 480.129C309.824 480.426 310.028 480.641 310.26 480.773C310.495 480.906 310.711 480.987 310.909 481.016C311.109 481.044 311.248 481.055 311.327 481.047C311.905 480.997 312.32 480.883 312.573 480.703C312.828 480.521 312.965 480.396 312.983 480.328C313.048 480.096 312.98 479.966 312.78 479.938C312.662 479.924 312.553 479.966 312.452 480.062C312.189 480.258 311.955 480.378 311.752 480.422C311.549 480.464 311.407 480.479 311.327 480.469C310.754 480.401 310.396 480.181 310.252 479.809C310.112 479.436 310.053 479.224 310.077 479.172H312.717Z" fill="black"/>
<circle id="Ellipse 196" cx="284" cy="521" r="27.5" stroke="black"/>
<path id="Vector 85" d="M261.5 536.5C263.281 537.064 266.85 537.965 270.348 538.213M304 539.228C302.398 539.228 299.575 537.972 296.054 536.895M268 543.5C269.87 543.981 273.9 545 276.891 545C280.63 545 283.902 541.633 289.511 541.633C293.998 541.633 297.301 543.557 298.391 544.519M270.348 538.213C270.828 538.247 271.298 538.266 271.75 538.266C276.424 538.266 279.696 535.38 287.174 535.38C290.379 535.38 293.413 536.087 296.054 536.895M270.348 538.213V520.949H266.609L263.804 510.848L275.489 507C276.58 509.084 279.696 513.253 283.435 513.253C287.174 513.253 290.601 509.084 291.848 507L302.598 510.848L301.196 520.949H296.054V536.895" stroke="#2E0B49" stroke-linecap="round"/>
<path id="Vector 86" d="M280.677 517.204C278.463 520.367 275.457 526.695 281.152 526.695C286.847 526.695 283.209 520.367 280.677 517.204Z" stroke="#2E0B49" stroke-linecap="round"/>
<path id="Vector 87" d="M287.795 525.746C286.372 527.96 284.283 532.39 287.321 532.39C290.358 532.39 288.903 527.96 287.795 525.746Z" stroke="#2E0B49" stroke-linecap="round"/>
<path id="Vector 88" d="M257.5 513.5H250.5V530H258" stroke="#2E0B49" stroke-linecap="round"/>
</g>
<g id="bathroom-dryer">
<path id="Rectangle 124" d="M237.5 561.5H326.5V650.5H237.5V561.5Z" fill="#F4FDFF" stroke="#2E0B49"/>
<path id="Vector 77_5" d="M244.222 564H241.333L240 568H242.222L241.333 571L246 566.2H243.556L244.222 564Z" fill="#F7B634" stroke="#7CD7D9" stroke-width="0.5" stroke-linecap="round" stroke-linejoin="round"/>
<path id="dryer" d="M251.328 567.922C251.258 568.667 251.069 569.124 250.762 569.293C250.457 569.462 250.255 569.531 250.156 569.5C249.604 569.443 249.258 569.22 249.117 568.832C248.979 568.441 248.924 568.138 248.953 567.922C249.013 567.193 249.186 566.74 249.473 566.562C249.759 566.383 249.987 566.31 250.156 566.344C250.69 566.422 251.025 566.66 251.16 567.059C251.298 567.457 251.354 567.745 251.328 567.922ZM251.266 569.75C251.273 569.901 251.318 569.992 251.398 570.023C251.482 570.055 251.552 570.068 251.609 570.062C251.76 570.055 251.857 570.014 251.898 569.941C251.94 569.868 251.958 569.805 251.953 569.75V564.188C251.93 564.023 251.878 563.919 251.797 563.875C251.716 563.828 251.654 563.807 251.609 563.812C251.443 563.839 251.341 563.898 251.305 563.992C251.271 564.083 251.258 564.148 251.266 564.188V566.312H251.234C251.018 566.036 250.786 565.863 250.539 565.793C250.292 565.723 250.143 565.693 250.094 565.703C249.669 565.742 249.332 565.857 249.082 566.047C248.835 566.234 248.651 566.453 248.531 566.703C248.414 566.953 248.339 567.191 248.305 567.418C248.271 567.642 248.258 567.81 248.266 567.922C248.292 568.438 248.387 568.842 248.551 569.137C248.717 569.428 248.909 569.641 249.125 569.773C249.341 569.906 249.54 569.988 249.723 570.02C249.908 570.051 250.031 570.065 250.094 570.062C250.44 570.026 250.715 569.934 250.918 569.785C251.124 569.637 251.229 569.552 251.234 569.531H251.266V569.75ZM253.267 569.734C253.278 569.885 253.327 569.977 253.416 570.008C253.504 570.039 253.569 570.052 253.611 570.047C253.767 570.036 253.867 569.992 253.912 569.914C253.956 569.836 253.976 569.776 253.97 569.734V567.672C254.009 567.177 254.167 566.845 254.443 566.676C254.722 566.507 254.882 566.427 254.923 566.438C255.132 566.385 255.258 566.31 255.302 566.211C255.349 566.109 255.369 566.023 255.361 565.953C255.314 565.727 255.189 565.633 254.986 565.672C254.676 565.732 254.435 565.868 254.263 566.082C254.091 566.293 254.004 566.411 254.002 566.438H253.97V566.047C253.944 565.883 253.887 565.779 253.798 565.734C253.713 565.688 253.65 565.667 253.611 565.672C253.444 565.698 253.343 565.758 253.306 565.852C253.272 565.943 253.259 566.008 253.267 566.047V569.734ZM257.206 569.906L256.738 571.031C256.688 571.115 256.662 571.167 256.659 571.188C256.633 571.339 256.623 571.411 256.628 571.406C256.641 571.513 256.695 571.586 256.788 571.625C256.885 571.667 256.941 571.688 256.956 571.688C257.092 571.661 257.183 571.615 257.23 571.547C257.279 571.482 257.303 571.445 257.3 571.438L259.097 566.391C259.175 566.156 259.206 566.031 259.191 566.016C259.162 565.88 259.105 565.794 259.019 565.758C258.935 565.719 258.889 565.701 258.878 565.703C258.753 565.716 258.663 565.764 258.609 565.848C258.557 565.928 258.532 565.974 258.534 565.984L257.581 568.922H257.55L256.566 565.984C256.389 565.766 256.274 565.672 256.222 565.703C256.055 565.732 255.954 565.789 255.917 565.875C255.883 565.958 255.87 566.005 255.878 566.016C255.865 566.055 255.87 566.109 255.894 566.18C255.92 566.25 255.935 566.289 255.941 566.297C255.951 566.359 255.961 566.391 255.972 566.391L257.206 569.906ZM260.661 567.641C260.723 567.005 260.924 566.618 261.262 566.48C261.604 566.342 261.799 566.286 261.848 566.312C262.346 566.396 262.661 566.626 262.794 567.004C262.929 567.379 262.989 567.591 262.973 567.641H260.661ZM263.302 568.172C263.497 568.164 263.617 568.115 263.661 568.023C263.705 567.93 263.721 567.854 263.708 567.797C263.567 566.849 263.269 566.25 262.813 566C262.358 565.747 262.026 565.638 261.817 565.672C261.39 565.69 261.049 565.799 260.794 566C260.539 566.198 260.347 566.432 260.22 566.703C260.092 566.971 260.009 567.219 259.97 567.445C259.933 567.672 259.919 567.82 259.927 567.891C259.955 568.417 260.057 568.829 260.231 569.129C260.408 569.426 260.613 569.641 260.845 569.773C261.079 569.906 261.295 569.987 261.493 570.016C261.693 570.044 261.833 570.055 261.911 570.047C262.489 569.997 262.904 569.883 263.157 569.703C263.412 569.521 263.549 569.396 263.567 569.328C263.632 569.096 263.565 568.966 263.364 568.938C263.247 568.924 263.137 568.966 263.036 569.062C262.773 569.258 262.54 569.378 262.337 569.422C262.134 569.464 261.992 569.479 261.911 569.469C261.338 569.401 260.98 569.181 260.837 568.809C260.696 568.436 260.637 568.224 260.661 568.172H263.302ZM264.702 569.734C264.712 569.885 264.761 569.977 264.85 570.008C264.939 570.039 265.004 570.052 265.045 570.047C265.202 570.036 265.302 569.992 265.346 569.914C265.39 569.836 265.41 569.776 265.405 569.734V567.672C265.444 567.177 265.601 566.845 265.877 566.676C266.156 566.507 266.316 566.427 266.358 566.438C266.566 566.385 266.692 566.31 266.737 566.211C266.784 566.109 266.803 566.023 266.795 565.953C266.748 565.727 266.623 565.633 266.42 565.672C266.11 565.732 265.87 565.868 265.698 566.082C265.526 566.293 265.439 566.411 265.436 566.438H265.405V566.047C265.379 565.883 265.321 565.779 265.233 565.734C265.147 565.688 265.084 565.667 265.045 565.672C264.879 565.698 264.777 565.758 264.741 565.852C264.707 565.943 264.694 566.008 264.702 566.047V569.734Z" fill="black"/>
<circle id="Ellipse 197" cx="284" cy="608" r="27.5" stroke="black"/>
<path id="Vector 89" d="M258 598.5H252V617H258" stroke="#2E0B49" stroke-linecap="round"/>
<path id="Vector 90" d="M275.5 594C273.667 595.333 270 599.1 270 603.5C270 609 277 610 277 614C277 617.2 274 621.667 272.5 623.5" stroke="#2E0B49" stroke-linecap="round"/>
<path id="Vector 91" d="M284.5 594C282.667 595.333 279 599.1 279 603.5C279 609 286 610 286 614C286 617.2 283 621.667 281.5 623.5" stroke="#2E0B49" stroke-linecap="round"/>
<path id="Vector 92" d="M294.5 594C292.667 595.333 289 599.1 289 603.5C289 609 296 610 296 614C296 617.2 293 621.667 291.5 623.5" stroke="#2E0B49" stroke-linecap="round"/>
</g>
<g id="kitchen-fridge">
<path id="Rectangle 125" d="M845.5 323.5H948.5V426.5H845.5V323.5Z" fill="#F4FDFF" stroke="#2E0B49"/>
<path id="Vector 79" d="M852.222 326H849.333L848 330H850.222L849.333 333L854 328.2H851.556L852.222 326Z" fill="#F7B634" stroke="#7ED2D9" stroke-width="0.5" stroke-linecap="round" stroke-linejoin="round"/>
<path id="fridge" d="M858.406 328.344H858.859C859.01 328.336 859.107 328.296 859.148 328.223C859.19 328.147 859.208 328.089 859.203 328.047C859.177 327.898 859.122 327.809 859.039 327.777C858.958 327.743 858.898 327.729 858.859 327.734H858.406V326.703C858.417 326.562 858.462 326.477 858.543 326.445C858.626 326.414 858.674 326.401 858.688 326.406H858.859C859.055 326.398 859.174 326.355 859.219 326.277C859.263 326.197 859.279 326.135 859.266 326.094C859.161 325.865 859.026 325.76 858.859 325.781H858.625C858.188 325.799 857.917 325.917 857.812 326.133C857.711 326.349 857.669 326.57 857.688 326.797V327.734H857.391C857.211 327.747 857.105 327.797 857.074 327.883C857.046 327.966 857.036 328.021 857.047 328.047C857.042 328.19 857.086 328.277 857.18 328.309C857.276 328.34 857.346 328.352 857.391 328.344H857.688V331.719C857.698 331.87 857.749 331.961 857.84 331.992C857.931 332.023 857.995 332.036 858.031 332.031C858.195 332.021 858.299 331.977 858.344 331.898C858.391 331.82 858.411 331.76 858.406 331.719V328.344ZM859.892 331.734C859.903 331.885 859.952 331.977 860.041 332.008C860.129 332.039 860.194 332.052 860.236 332.047C860.392 332.036 860.492 331.992 860.537 331.914C860.581 331.836 860.601 331.776 860.595 331.734V329.672C860.634 329.177 860.792 328.845 861.068 328.676C861.347 328.507 861.507 328.427 861.548 328.438C861.757 328.385 861.883 328.31 861.927 328.211C861.974 328.109 861.994 328.023 861.986 327.953C861.939 327.727 861.814 327.633 861.611 327.672C861.301 327.732 861.06 327.868 860.888 328.082C860.716 328.293 860.629 328.411 860.627 328.438H860.595V328.047C860.569 327.883 860.512 327.779 860.423 327.734C860.338 327.688 860.275 327.667 860.236 327.672C860.069 327.698 859.968 327.758 859.931 327.852C859.897 327.943 859.884 328.008 859.892 328.047V331.734ZM863.566 328.062C863.537 327.898 863.476 327.794 863.382 327.75C863.291 327.703 863.232 327.682 863.206 327.688C863.032 327.716 862.926 327.78 862.89 327.879C862.853 327.975 862.839 328.036 862.847 328.062V331.734C862.86 331.885 862.916 331.977 863.015 332.008C863.114 332.039 863.178 332.052 863.206 332.047C863.363 332.034 863.463 331.986 863.507 331.902C863.551 331.819 863.571 331.763 863.566 331.734V328.062ZM862.753 326.672C862.761 326.956 862.917 327.107 863.222 327.125C863.493 327.107 863.639 326.956 863.659 326.672C863.652 326.401 863.495 326.255 863.191 326.234C862.912 326.255 862.766 326.401 862.753 326.672ZM867.755 329.922C867.684 330.667 867.496 331.124 867.188 331.293C866.884 331.462 866.682 331.531 866.583 331.5C866.031 331.443 865.684 331.22 865.544 330.832C865.406 330.441 865.351 330.138 865.38 329.922C865.44 329.193 865.613 328.74 865.899 328.562C866.186 328.383 866.414 328.31 866.583 328.344C867.117 328.422 867.451 328.66 867.587 329.059C867.725 329.457 867.781 329.745 867.755 329.922ZM867.692 331.75C867.7 331.901 867.744 331.992 867.825 332.023C867.908 332.055 867.979 332.068 868.036 332.062C868.187 332.055 868.283 332.014 868.325 331.941C868.367 331.868 868.385 331.805 868.38 331.75V326.188C868.356 326.023 868.304 325.919 868.223 325.875C868.143 325.828 868.08 325.807 868.036 325.812C867.869 325.839 867.768 325.898 867.731 325.992C867.697 326.083 867.684 326.148 867.692 326.188V328.312H867.661C867.445 328.036 867.213 327.863 866.966 327.793C866.718 327.723 866.57 327.693 866.52 327.703C866.096 327.742 865.759 327.857 865.509 328.047C865.261 328.234 865.078 328.453 864.958 328.703C864.841 328.953 864.765 329.191 864.731 329.418C864.697 329.642 864.684 329.81 864.692 329.922C864.718 330.438 864.813 330.842 864.977 331.137C865.144 331.428 865.335 331.641 865.552 331.773C865.768 331.906 865.967 331.988 866.149 332.02C866.334 332.051 866.458 332.065 866.52 332.062C866.867 332.026 867.141 331.934 867.345 331.785C867.55 331.637 867.656 331.552 867.661 331.531H867.692V331.75ZM870.225 329.828C870.264 329.146 870.444 328.721 870.764 328.555C871.087 328.388 871.308 328.318 871.428 328.344C871.959 328.391 872.29 328.608 872.42 328.996C872.551 329.382 872.605 329.659 872.584 329.828C872.551 330.526 872.388 330.956 872.096 331.117C871.807 331.279 871.584 331.344 871.428 331.312C870.879 331.273 870.535 331.068 870.397 330.695C870.259 330.323 870.202 330.034 870.225 329.828ZM873.225 328.062C873.199 327.927 873.146 327.836 873.065 327.789C872.987 327.74 872.936 327.716 872.913 327.719C872.733 327.745 872.623 327.799 872.584 327.883C872.545 327.964 872.53 328.023 872.538 328.062V328.25H872.506C872.28 328.023 872.067 327.878 871.87 327.812C871.672 327.745 871.566 327.714 871.553 327.719C870.79 327.766 870.26 328.025 869.963 328.496C869.666 328.967 869.524 329.385 869.538 329.75C869.553 330.414 869.734 330.936 870.08 331.316C870.429 331.694 870.847 331.885 871.334 331.891C871.738 331.867 872.034 331.772 872.221 331.605C872.411 331.436 872.506 331.339 872.506 331.312H872.538V332.078C872.457 332.565 872.268 332.871 871.971 332.996C871.677 333.121 871.475 333.174 871.366 333.156C871.103 333.141 870.87 333.082 870.666 332.98C870.466 332.882 870.36 332.826 870.35 332.812C870.074 332.682 869.939 332.63 869.944 332.656C869.806 332.661 869.717 332.708 869.678 332.797C869.639 332.885 869.634 332.969 869.663 333.047C869.806 333.299 870.057 333.475 870.416 333.574C870.778 333.673 871.032 333.721 871.178 333.719C872.022 333.674 872.579 333.44 872.85 333.016C873.121 332.591 873.246 332.237 873.225 331.953V328.062ZM875.055 329.641C875.117 329.005 875.318 328.618 875.656 328.48C875.997 328.342 876.193 328.286 876.242 328.312C876.74 328.396 877.055 328.626 877.188 329.004C877.323 329.379 877.383 329.591 877.367 329.641H875.055ZM877.695 330.172C877.891 330.164 878.01 330.115 878.055 330.023C878.099 329.93 878.115 329.854 878.102 329.797C877.961 328.849 877.663 328.25 877.207 328C876.751 327.747 876.419 327.638 876.211 327.672C875.784 327.69 875.443 327.799 875.188 328C874.932 328.198 874.741 328.432 874.613 328.703C874.486 328.971 874.402 329.219 874.363 329.445C874.327 329.672 874.312 329.82 874.32 329.891C874.349 330.417 874.451 330.829 874.625 331.129C874.802 331.426 875.007 331.641 875.238 331.773C875.473 331.906 875.689 331.987 875.887 332.016C876.087 332.044 876.227 332.055 876.305 332.047C876.883 331.997 877.298 331.883 877.551 331.703C877.806 331.521 877.943 331.396 877.961 331.328C878.026 331.096 877.958 330.966 877.758 330.938C877.641 330.924 877.531 330.966 877.43 331.062C877.167 331.258 876.934 331.378 876.73 331.422C876.527 331.464 876.385 331.479 876.305 331.469C875.732 331.401 875.374 331.181 875.23 330.809C875.09 330.436 875.031 330.224 875.055 330.172H877.695Z" fill="black"/>
<g id="Group 127">
<circle id="Ellipse 198" cx="886.247" cy="369.899" r="6.06743" stroke="#2E0B49"/>
<line id="Line 36" x1="886.072" y1="349" x2="886.072" y2="363.831" stroke="#2E0B49"/>
<line id="Line 37" x1="879.186" y1="351.343" x2="885.927" y2="358.085" stroke="#2E0B49"/>
<line id="Line 38" y1="-0.5" x2="9.53404" y2="-0.5" transform="matrix(0.707107 -0.707107 -0.707107 -0.707107 885.572 358.438)" stroke="#2E0B49"/>
<g id="Group 122">
<line id="Line 39" x1="904.375" y1="359.059" x2="891.966" y2="367.183" stroke="#2E0B49"/>
<line id="Line 40" x1="898.642" y1="354.58" x2="896.694" y2="363.913" stroke="#2E0B49"/>
<line id="Line 41" y1="-0.5" x2="9.53404" y2="-0.5" transform="matrix(0.978904 0.20432 0.20432 -0.978904 896.205 363.811)" stroke="#2E0B49"/>
</g>
<g id="Group 123">
<line id="Line 39_2" x1="904.168" y1="380.494" x2="891.559" y2="372.685" stroke="#2E0B49"/>
<line id="Line 40_2" x1="905.8" y1="373.404" x2="896.519" y2="375.586" stroke="#2E0B49"/>
<line id="Line 41_2" y1="-0.5" x2="9.53404" y2="-0.5" transform="matrix(0.228878 0.973455 0.973455 -0.228878 896.406 375.099)" stroke="#2E0B49"/>
</g>
<g id="Group 124">
<line id="Line 39_3" x1="886.422" y1="390.922" x2="886.726" y2="376.094" stroke="#2E0B49"/>
<line id="Line 40_3" x1="893.356" y1="388.72" x2="886.754" y2="381.842" stroke="#2E0B49"/>
<line id="Line 41_3" y1="-0.5" x2="9.53404" y2="-0.5" transform="matrix(-0.721432 0.692485 0.692485 0.721432 887.115 381.496)" stroke="#2E0B49"/>
</g>
<g id="Group 125">
<line id="Line 39_4" x1="868.594" y1="380.915" x2="881.266" y2="373.209" stroke="#2E0B49"/>
<line id="Line 40_4" x1="874.172" y1="385.583" x2="876.43" y2="376.32" stroke="#2E0B49"/>
<line id="Line 41_4" y1="-0.5" x2="9.53404" y2="-0.5" transform="matrix(-0.971561 -0.236788 -0.236788 0.971561 876.916 376.438)" stroke="#2E0B49"/>
</g>
<g id="Group 126">
<line id="Line 39_5" x1="868.385" y1="359.361" x2="880.19" y2="368.34" stroke="#2E0B49"/>
<line id="Line 40_5" x1="866.079" y1="366.263" x2="875.526" y2="364.978" stroke="#2E0B49"/>
<line id="Line 41_5" y1="-0.5" x2="9.53404" y2="-0.5" transform="matrix(-0.134767 -0.990877 -0.990877 0.134767 875.592 365.473)" stroke="#2E0B49"/>
</g>
<line id="Line 42" x1="865.35" y1="394.343" x2="874.788" y2="394.343" stroke="#2E0B49"/>
<line id="Line 44" x1="876.135" y1="402.433" x2="880.18" y2="402.433" stroke="#2E0B49"/>
<line id="Line 48" x1="895.01" y1="392.995" x2="899.055" y2="392.995" stroke="#2E0B49"/>
<line id="Line 46" x1="886.922" y1="403.781" x2="893.663" y2="403.781" stroke="#2E0B49"/>
<line id="Line 43" x1="870.242" y1="398.888" x2="870.242" y2="389.449" stroke="#2E0B49"/>
<line id="Line 45" x1="878.332" y1="404.281" x2="878.332" y2="400.236" stroke="#2E0B49"/>
<line id="Line 49" x1="897.209" y1="394.843" x2="897.209" y2="390.798" stroke="#2E0B49"/>
<path id="Vector 93" d="M911.866 353.045V390.798C910.293 392.146 907.146 394.842 907.146 398.213C907.146 400.91 909.169 405.629 915.236 405.629C921.304 405.629 924 402.258 924 398.213C924 394.977 920.405 391.696 918.607 390.798V353.045C918.607 350.348 916.585 349.674 915.236 349.674C913.888 349.674 911.866 350.348 911.866 353.045Z" stroke="#2E0B49" stroke-linecap="round"/>
<line id="Line 47" x1="890.467" y1="406.978" x2="890.467" y2="400.236" stroke="#2E0B49"/>
<line id="Line 50" x1="919.281" y1="356.59" x2="923.326" y2="356.59" stroke="#2E0B49"/>
<line id="Line 51" x1="919.281" y1="363.332" x2="923.326" y2="363.332" stroke="#2E0B49"/>
<line id="Line 52" x1="919.281" y1="370.073" x2="923.326" y2="370.073" stroke="#2E0B49"/>
<line id="Line 53" x1="919.281" y1="378.163" x2="923.326" y2="378.163" stroke="#2E0B49"/>
<line id="Line 54" x1="919.281" y1="384.905" x2="923.326" y2="384.905" stroke="#2E0B49"/>
</g>
</g>
<g id="kitchen-dish-washer">
<rect id="Rectangle 129" x="863.5" y="225.5" width="77" height="88" stroke="#2E0B49" stroke-dasharray="2 2"/>
<path id="Vector 80" d="M870.222 229H867.333L866 233H868.222L867.333 236L872 231.2H869.556L870.222 229Z" fill="#F7B634" stroke="#7ED2D9" stroke-width="0.5" stroke-linecap="round" stroke-linejoin="round"/>
<path id="dish washer" d="M877.328 232.922C877.258 233.667 877.069 234.124 876.762 234.293C876.457 234.462 876.255 234.531 876.156 234.5C875.604 234.443 875.258 234.22 875.117 233.832C874.979 233.441 874.924 233.138 874.953 232.922C875.013 232.193 875.186 231.74 875.473 231.562C875.759 231.383 875.987 231.31 876.156 231.344C876.69 231.422 877.025 231.66 877.16 232.059C877.298 232.457 877.354 232.745 877.328 232.922ZM877.266 234.75C877.273 234.901 877.318 234.992 877.398 235.023C877.482 235.055 877.552 235.068 877.609 235.062C877.76 235.055 877.857 235.014 877.898 234.941C877.94 234.868 877.958 234.805 877.953 234.75V229.188C877.93 229.023 877.878 228.919 877.797 228.875C877.716 228.828 877.654 228.807 877.609 228.812C877.443 228.839 877.341 228.898 877.305 228.992C877.271 229.083 877.258 229.148 877.266 229.188V231.312H877.234C877.018 231.036 876.786 230.863 876.539 230.793C876.292 230.723 876.143 230.693 876.094 230.703C875.669 230.742 875.332 230.857 875.082 231.047C874.835 231.234 874.651 231.453 874.531 231.703C874.414 231.953 874.339 232.191 874.305 232.418C874.271 232.642 874.258 232.81 874.266 232.922C874.292 233.438 874.387 233.842 874.551 234.137C874.717 234.428 874.909 234.641 875.125 234.773C875.341 234.906 875.54 234.988 875.723 235.02C875.908 235.051 876.031 235.065 876.094 235.062C876.44 235.026 876.715 234.934 876.918 234.785C877.124 234.637 877.229 234.552 877.234 234.531H877.266V234.75ZM880.017 231.062C879.989 230.898 879.927 230.794 879.834 230.75C879.742 230.703 879.684 230.682 879.658 230.688C879.483 230.716 879.378 230.78 879.341 230.879C879.305 230.975 879.291 231.036 879.298 231.062V234.734C879.311 234.885 879.367 234.977 879.466 235.008C879.565 235.039 879.629 235.052 879.658 235.047C879.814 235.034 879.914 234.986 879.959 234.902C880.003 234.819 880.022 234.763 880.017 234.734V231.062ZM879.205 229.672C879.213 229.956 879.369 230.107 879.673 230.125C879.944 230.107 880.09 229.956 880.111 229.672C880.103 229.401 879.947 229.255 879.642 229.234C879.364 229.255 879.218 229.401 879.205 229.672ZM881.238 231.812C881.277 232.195 881.461 232.495 881.792 232.711C882.123 232.924 882.36 233.057 882.503 233.109C882.977 233.294 883.271 233.464 883.386 233.617C883.501 233.771 883.545 233.888 883.519 233.969C883.48 234.182 883.37 234.322 883.191 234.387C883.011 234.449 882.844 234.477 882.691 234.469C882.443 234.456 882.219 234.4 882.019 234.301C881.821 234.199 881.717 234.141 881.706 234.125C881.566 234.016 881.441 233.953 881.331 233.938C881.193 233.951 881.107 234.013 881.073 234.125C881.042 234.234 881.045 234.318 881.081 234.375C881.224 234.622 881.478 234.797 881.843 234.898C882.21 235 882.482 235.049 882.659 235.047C883.386 235.013 883.838 234.845 884.015 234.543C884.192 234.238 884.266 234.005 884.238 233.844C884.193 233.464 883.989 233.167 883.624 232.953C883.262 232.737 882.998 232.602 882.831 232.547C882.396 232.346 882.133 232.181 882.042 232.051C881.954 231.921 881.92 231.81 881.941 231.719C881.959 231.539 882.059 231.426 882.241 231.379C882.426 231.329 882.576 231.307 882.691 231.312C883.019 231.346 883.284 231.451 883.488 231.625C883.678 231.729 883.782 231.771 883.8 231.75C883.935 231.742 884.019 231.685 884.05 231.578C884.084 231.469 884.084 231.37 884.05 231.281C883.956 231.096 883.76 230.945 883.46 230.828C883.161 230.708 882.883 230.656 882.628 230.672C881.988 230.76 881.589 230.936 881.433 231.199C881.277 231.46 881.211 231.664 881.238 231.812ZM887.958 234.719C887.966 234.87 888.015 234.961 888.106 234.992C888.2 235.023 888.276 235.036 888.333 235.031C888.484 235.021 888.58 234.977 888.622 234.898C888.664 234.82 888.682 234.76 888.677 234.719V232.328C888.604 231.596 888.382 231.133 888.012 230.938C887.643 230.74 887.374 230.656 887.208 230.688C886.815 230.727 886.518 230.828 886.317 230.992C886.119 231.154 886.02 231.245 886.02 231.266H885.989V229.188C885.963 229.023 885.908 228.919 885.825 228.875C885.744 228.828 885.684 228.807 885.645 228.812C885.479 228.839 885.377 228.898 885.341 228.992C885.307 229.083 885.294 229.148 885.302 229.188V234.719C885.312 234.87 885.361 234.961 885.45 234.992C885.539 235.023 885.604 235.036 885.645 235.031C885.796 235.021 885.893 234.977 885.934 234.898C885.976 234.82 885.994 234.76 885.989 234.719V232.359C886.039 231.893 886.197 231.602 886.466 231.484C886.734 231.365 886.908 231.312 886.989 231.328C887.44 231.393 887.718 231.562 887.825 231.836C887.932 232.107 887.976 232.281 887.958 232.359V234.719ZM897.578 230.672C897.362 230.643 897.216 230.763 897.141 231.031L896.219 233.984L895.312 231.125C895.227 230.896 895.138 230.758 895.047 230.711C894.958 230.664 894.911 230.646 894.906 230.656C894.753 230.664 894.646 230.74 894.586 230.883C894.526 231.023 894.497 231.104 894.5 231.125L893.594 233.984L892.672 231.031C892.604 230.852 892.529 230.742 892.445 230.703C892.362 230.664 892.302 230.648 892.266 230.656C892.128 230.685 892.039 230.742 892 230.828C891.964 230.911 891.948 230.958 891.953 230.969C891.956 231.146 891.966 231.245 891.984 231.266L893.172 234.719C893.237 234.87 893.32 234.961 893.422 234.992C893.523 235.023 893.581 235.036 893.594 235.031C893.839 234.99 893.974 234.885 894 234.719L894.906 231.797L895.812 234.719C895.88 234.87 895.956 234.961 896.039 234.992C896.122 235.023 896.182 235.036 896.219 235.031C896.365 235.018 896.471 234.966 896.539 234.875C896.607 234.784 896.641 234.732 896.641 234.719L897.828 231.266C897.948 230.927 897.865 230.729 897.578 230.672ZM899.228 232.891C899.293 232.154 899.479 231.695 899.787 231.516C900.097 231.336 900.317 231.263 900.447 231.297C900.973 231.375 901.306 231.609 901.447 232C901.59 232.391 901.653 232.656 901.634 232.797C901.601 233.539 901.434 234.013 901.134 234.219C900.835 234.422 900.606 234.51 900.447 234.484C899.89 234.414 899.541 234.161 899.4 233.727C899.262 233.289 899.205 233.01 899.228 232.891ZM901.634 234.797C901.66 235.016 901.768 235.125 901.959 235.125C902.151 235.125 902.262 235.016 902.291 234.797V230.984C902.262 230.734 902.151 230.609 901.959 230.609C901.768 230.609 901.66 230.734 901.634 230.984V231.234C901.351 230.964 901.106 230.794 900.9 230.727C900.694 230.659 900.543 230.63 900.447 230.641C900.035 230.651 899.702 230.753 899.447 230.945C899.192 231.138 898.998 231.367 898.865 231.633C898.732 231.896 898.642 232.142 898.595 232.371C898.551 232.598 898.533 232.75 898.541 232.828C898.577 233.385 898.677 233.82 898.841 234.133C899.005 234.443 899.194 234.665 899.408 234.801C899.624 234.934 899.827 235.014 900.017 235.043C900.21 235.072 900.353 235.083 900.447 235.078C900.783 235.052 901.061 234.948 901.283 234.766C901.507 234.583 901.624 234.479 901.634 234.453V234.797ZM903.48 231.812C903.519 232.195 903.704 232.495 904.034 232.711C904.365 232.924 904.602 233.057 904.745 233.109C905.219 233.294 905.514 233.464 905.628 233.617C905.743 233.771 905.787 233.888 905.761 233.969C905.722 234.182 905.612 234.322 905.433 234.387C905.253 234.449 905.086 234.477 904.933 234.469C904.685 234.456 904.461 234.4 904.261 234.301C904.063 234.199 903.959 234.141 903.948 234.125C903.808 234.016 903.683 233.953 903.573 233.938C903.435 233.951 903.349 234.013 903.316 234.125C903.284 234.234 903.287 234.318 903.323 234.375C903.467 234.622 903.721 234.797 904.085 234.898C904.452 235 904.724 235.049 904.902 235.047C905.628 235.013 906.08 234.845 906.257 234.543C906.434 234.238 906.508 234.005 906.48 233.844C906.435 233.464 906.231 233.167 905.866 232.953C905.504 232.737 905.24 232.602 905.073 232.547C904.639 232.346 904.376 232.181 904.284 232.051C904.196 231.921 904.162 231.81 904.183 231.719C904.201 231.539 904.301 231.426 904.484 231.379C904.668 231.329 904.818 231.307 904.933 231.312C905.261 231.346 905.527 231.451 905.73 231.625C905.92 231.729 906.024 231.771 906.042 231.75C906.178 231.742 906.261 231.685 906.292 231.578C906.326 231.469 906.326 231.37 906.292 231.281C906.198 231.096 906.002 230.945 905.702 230.828C905.403 230.708 905.126 230.656 904.87 230.672C904.23 230.76 903.831 230.936 903.675 231.199C903.519 231.46 903.454 231.664 903.48 231.812ZM910.2 234.719C910.208 234.87 910.257 234.961 910.348 234.992C910.442 235.023 910.518 235.036 910.575 235.031C910.726 235.021 910.822 234.977 910.864 234.898C910.906 234.82 910.924 234.76 910.919 234.719V232.328C910.846 231.596 910.624 231.133 910.255 230.938C909.885 230.74 909.617 230.656 909.45 230.688C909.057 230.727 908.76 230.828 908.559 230.992C908.361 231.154 908.263 231.245 908.263 231.266H908.231V229.188C908.205 229.023 908.151 228.919 908.067 228.875C907.986 228.828 907.927 228.807 907.888 228.812C907.721 228.839 907.619 228.898 907.583 228.992C907.549 229.083 907.536 229.148 907.544 229.188V234.719C907.554 234.87 907.604 234.961 907.692 234.992C907.781 235.023 907.846 235.036 907.888 235.031C908.039 235.021 908.135 234.977 908.177 234.898C908.218 234.82 908.236 234.76 908.231 234.719V232.359C908.281 231.893 908.44 231.602 908.708 231.484C908.976 231.365 909.151 231.312 909.231 231.328C909.682 231.393 909.96 231.562 910.067 231.836C910.174 232.107 910.218 232.281 910.2 232.359V234.719ZM912.717 232.641C912.78 232.005 912.98 231.618 913.319 231.48C913.66 231.342 913.855 231.286 913.905 231.312C914.402 231.396 914.717 231.626 914.85 232.004C914.985 232.379 915.045 232.591 915.03 232.641H912.717ZM915.358 233.172C915.553 233.164 915.673 233.115 915.717 233.023C915.761 232.93 915.777 232.854 915.764 232.797C915.623 231.849 915.325 231.25 914.87 231C914.414 230.747 914.082 230.638 913.873 230.672C913.446 230.69 913.105 230.799 912.85 231C912.595 231.198 912.403 231.432 912.276 231.703C912.148 231.971 912.065 232.219 912.026 232.445C911.989 232.672 911.975 232.82 911.983 232.891C912.011 233.417 912.113 233.829 912.287 234.129C912.465 234.426 912.669 234.641 912.901 234.773C913.135 234.906 913.351 234.987 913.549 235.016C913.75 235.044 913.889 235.055 913.967 235.047C914.545 234.997 914.961 234.883 915.213 234.703C915.468 234.521 915.605 234.396 915.623 234.328C915.689 234.096 915.621 233.966 915.42 233.938C915.303 233.924 915.194 233.966 915.092 234.062C914.829 234.258 914.596 234.378 914.393 234.422C914.19 234.464 914.048 234.479 913.967 234.469C913.394 234.401 913.036 234.181 912.893 233.809C912.752 233.436 912.694 233.224 912.717 233.172H915.358ZM916.758 234.734C916.768 234.885 916.818 234.977 916.906 235.008C916.995 235.039 917.06 235.052 917.102 235.047C917.258 235.036 917.358 234.992 917.402 234.914C917.447 234.836 917.466 234.776 917.461 234.734V232.672C917.5 232.177 917.658 231.845 917.934 231.676C918.212 231.507 918.372 231.427 918.414 231.438C918.622 231.385 918.749 231.31 918.793 231.211C918.84 231.109 918.859 231.023 918.852 230.953C918.805 230.727 918.68 230.633 918.477 230.672C918.167 230.732 917.926 230.868 917.754 231.082C917.582 231.293 917.495 231.411 917.492 231.438H917.461V231.047C917.435 230.883 917.378 230.779 917.289 230.734C917.203 230.688 917.141 230.667 917.102 230.672C916.935 230.698 916.833 230.758 916.797 230.852C916.763 230.943 916.75 231.008 916.758 231.047V234.734Z" fill="black"/>
<g id="Group 128">
<line id="Line 55" x1="919.631" y1="246.15" x2="919.631" y2="256.47" stroke="#2E0B49"/>
<line id="Line 56" x1="919.131" y1="251.81" x2="907.951" y2="251.81" stroke="#2E0B49"/>
<path id="Rectangle 140" d="M900.424 244.5C904.304 244.5 907.449 247.645 907.449 251.525C907.449 255.404 904.304 258.55 900.424 258.55L886.52 258.55L886.52 244.5L900.424 244.5Z" stroke="#2E0B49"/>
<circle id="Ellipse 199" cx="919.13" cy="267.219" r="3.36988" transform="rotate(90 919.13 267.219)" stroke="#2E0B49"/>
<circle id="Ellipse 202" cx="883.224" cy="303.123" r="2.7249" transform="rotate(90 883.224 303.123)" stroke="#2E0B49"/>
<circle id="Ellipse 200" cx="902.791" cy="287.428" r="15.8395" transform="rotate(90 902.791 287.428)" stroke="#2E0B49"/>
<path id="Ellipse 201" d="M902.792 297.749C908.491 297.749 913.111 293.128 913.111 287.429M892.472 287.429C892.472 289.581 893.131 291.58 894.258 293.234M909.456 279.55C907.658 278.027 905.332 277.109 902.792 277.109C899.735 277.109 896.989 278.438 895.1 280.549" stroke="#2E0B49"/>
<line id="Line 57" x1="883.939" y1="265.5" x2="883.939" y2="271.089" stroke="#2E0B49"/>
<line id="Line 59" x1="920.92" y1="300.328" x2="920.92" y2="305.918" stroke="#2E0B49"/>
<line id="Line 58" x1="880.859" y1="268.009" x2="886.019" y2="268.009" stroke="#2E0B49"/>
<line id="Line 60" x1="917.84" y1="302.838" x2="923" y2="302.838" stroke="#2E0B49"/>
</g>
</g>
<g id="kitchen-freezer">
<rect id="Rectangle 141" x="751.5" y="9.5" width="97" height="47" stroke="black" stroke-dasharray="2 2"/>
<g id="Group 132">
<path id="Vector 94" d="M802.824 41.9091H811.006M811.006 41.9091C809.79 46.7655 807.053 50.4816 805.5 52C803.461 49.5084 799.382 43.0303 799.382 37.0505C799.382 29.5758 803.971 26.2121 803.971 22.8485C803.971 20.1576 800.657 16.4949 799 15H812C810.343 16.1212 807.029 19.2606 807.029 22.8485C807.029 27.3333 811.618 28.0808 811.618 37.0505C811.618 38.76 811.386 40.3903 811.006 41.9091Z" stroke="#2E0B49" stroke-linecap="round"/>
<rect id="Rectangle 142" x="803.719" y="44.6826" width="1.60419" height="1.60419" fill="#2E0B49"/>
<circle id="Ellipse 198_2" cx="830.824" cy="21.0205" r="2.40628" stroke="#2E0B49"/>
<line id="Line 36_2" x1="830.521" y1="13" x2="830.521" y2="18.6147" stroke="#2E0B49"/>
<line id="Line 37_2" x1="828.029" y1="13.6782" x2="830.609" y2="16.2578" stroke="#2E0B49"/>
<line id="Line 38_2" y1="-0.5" x2="3.64817" y2="-0.5" transform="matrix(0.707107 -0.707107 -0.707107 -0.707107 830.256 16.6113)" stroke="#2E0B49"/>
<g id="Group 122_2">
<line id="Line 39_6" x1="837.62" y1="17.1078" x2="832.871" y2="20.2162" stroke="#2E0B49"/>
<line id="Line 40_6" x1="835.56" y1="15.1984" x2="834.814" y2="18.7696" stroke="#2E0B49"/>
<line id="Line 41_6" y1="-0.5" x2="3.64817" y2="-0.5" transform="matrix(0.978904 0.20432 0.20432 -0.978904 834.324 18.667)" stroke="#2E0B49"/>
</g>
<g id="Group 123_2">
<line id="Line 39_7" x1="837.206" y1="25.3128" x2="832.381" y2="22.3248" stroke="#2E0B49"/>
<line id="Line 40_7" x1="838.062" y1="22.6376" x2="834.51" y2="23.4726" stroke="#2E0B49"/>
<line id="Line 41_7" y1="-0.5" x2="3.64817" y2="-0.5" transform="matrix(0.228878 0.973455 0.973455 -0.228878 834.396 22.9858)" stroke="#2E0B49"/>
</g>
<g id="Group 124_2">
<line id="Line 39_8" x1="830.272" y1="29.0352" x2="830.388" y2="23.3611" stroke="#2E0B49"/>
<line id="Line 40_8" x1="833.008" y1="28.4126" x2="830.482" y2="25.7807" stroke="#2E0B49"/>
<line id="Line 41_8" y1="-0.5" x2="3.64817" y2="-0.5" transform="matrix(-0.721432 0.692485 0.692485 0.721432 830.844 25.4346)" stroke="#2E0B49"/>
</g>
<g id="Group 125_2">
<line id="Line 39_9" x1="823.6" y1="24.9468" x2="828.449" y2="21.9982" stroke="#2E0B49"/>
<line id="Line 40_9" x1="825.594" y1="26.9236" x2="826.458" y2="23.3792" stroke="#2E0B49"/>
<line id="Line 41_9" y1="-0.5" x2="3.64817" y2="-0.5" transform="matrix(-0.971561 -0.236788 -0.236788 0.971561 826.945 23.4976)" stroke="#2E0B49"/>
</g>
<g id="Group 126_2">
<line id="Line 39_10" x1="823.865" y1="16.7187" x2="828.382" y2="20.1543" stroke="#2E0B49"/>
<line id="Line 40_10" x1="822.755" y1="19.2995" x2="826.37" y2="18.8078" stroke="#2E0B49"/>
<line id="Line 41_10" y1="-0.5" x2="3.64817" y2="-0.5" transform="matrix(-0.134767 -0.990877 -0.990877 0.134767 826.434 19.3032)" stroke="#2E0B49"/>
</g>
<g id="Group 133">
<circle id="Ellipse 199_2" cx="775.68" cy="28.9837" r="4.53005" stroke="#2E0B49"/>
<path id="Line 39_11" d="M774.984 14V24.454" stroke="#2E0B49"/>
<line id="Line 40_11" x1="770.238" y1="15.5708" x2="775.048" y2="20.3809" stroke="#2E0B49"/>
<line id="Line 41_11" y1="-0.5" x2="6.80251" y2="-0.5" transform="matrix(0.707107 -0.707107 -0.707107 -0.707107 774.693 20.7344)" stroke="#2E0B49"/>
<g id="Group 127_2">
<line id="Line 39_12" x1="788.188" y1="21.2968" x2="779.334" y2="27.0928" stroke="#2E0B49"/>
<line id="Line 40_12" x1="784.157" y1="18.0094" x2="782.768" y2="24.6684" stroke="#2E0B49"/>
<line id="Line 41_12" y1="-0.5" x2="6.80251" y2="-0.5" transform="matrix(0.978904 0.20432 0.20432 -0.978904 782.279 24.5659)" stroke="#2E0B49"/>
</g>
<g id="Group 128_2">
<line id="Line 39_13" x1="788.245" y1="36.7229" x2="779.248" y2="31.1514" stroke="#2E0B49"/>
<line id="Line 40_13" x1="789.159" y1="31.5517" x2="782.537" y2="33.1086" stroke="#2E0B49"/>
<line id="Line 41_13" y1="-0.5" x2="6.80251" y2="-0.5" transform="matrix(0.228878 0.973455 0.973455 -0.228878 782.426 32.6216)" stroke="#2E0B49"/>
</g>
<g id="Group 129">
<line id="Line 39_14" x1="775.16" y1="43.9082" x2="775.377" y2="33.3282" stroke="#2E0B49"/>
<line id="Line 40_14" x1="780.145" y1="42.439" x2="775.435" y2="37.5315" stroke="#2E0B49"/>
<line id="Line 41_14" y1="-0.5" x2="6.80251" y2="-0.5" transform="matrix(-0.721432 0.692485 0.692485 0.721432 775.797 37.1855)" stroke="#2E0B49"/>
</g>
<g id="Group 130">
<line id="Line 39_15" x1="762.514" y1="36.6465" x2="771.555" y2="31.1484" stroke="#2E0B49"/>
<line id="Line 40_15" x1="766.426" y1="40.0652" x2="768.037" y2="33.4561" stroke="#2E0B49"/>
<line id="Line 41_15" y1="-0.5" x2="6.80251" y2="-0.5" transform="matrix(-0.971561 -0.236788 -0.236788 0.971561 768.525 33.5752)" stroke="#2E0B49"/>
</g>
<g id="Group 131">
<line id="Line 39_16" x1="763.215" y1="20.914" x2="771.638" y2="27.3201" stroke="#2E0B49"/>
<line id="Line 40_16" x1="761.464" y1="25.8102" x2="768.204" y2="24.8935" stroke="#2E0B49"/>
<line id="Line 41_16" y1="-0.5" x2="6.80251" y2="-0.5" transform="matrix(-0.134767 -0.990877 -0.990877 0.134767 768.27 25.3882)" stroke="#2E0B49"/>
</g>
</g>
<line id="Line 61" x1="835" y1="37.708" x2="840.615" y2="37.708" stroke="#2E0B49"/>
<line id="Line 63" x1="822" y1="45.9062" x2="826.01" y2="45.9062" stroke="#2E0B49"/>
<line id="Line 62" x1="837.906" y1="35" x2="837.906" y2="40.6147" stroke="#2E0B49"/>
<line id="Line 64" x1="824.105" y1="44" x2="824.105" y2="48.0105" stroke="#2E0B49"/>
</g>
<path id="Vector 79_2" d="M759.222 47H756.333L755 51H757.222L756.333 54L761 49.2H758.556L759.222 47Z" fill="#F7B634" stroke="#7ED2D9" stroke-width="0.5" stroke-linecap="round" stroke-linejoin="round"/>
<path id="freezer" d="M764.406 49.3438H764.859C765.01 49.3359 765.107 49.2956 765.148 49.2227C765.19 49.1471 765.208 49.0885 765.203 49.0469C765.177 48.8984 765.122 48.8086 765.039 48.7773C764.958 48.7435 764.898 48.7292 764.859 48.7344H764.406V47.7031C764.417 47.5625 764.462 47.4766 764.543 47.4453C764.626 47.4141 764.674 47.401 764.688 47.4062H764.859C765.055 47.3984 765.174 47.3555 765.219 47.2773C765.263 47.1966 765.279 47.1354 765.266 47.0938C765.161 46.8646 765.026 46.7604 764.859 46.7812H764.625C764.188 46.7995 763.917 46.9167 763.812 47.1328C763.711 47.349 763.669 47.5703 763.688 47.7969V48.7344H763.391C763.211 48.7474 763.105 48.7969 763.074 48.8828C763.046 48.9661 763.036 49.0208 763.047 49.0469C763.042 49.1901 763.086 49.2773 763.18 49.3086C763.276 49.3398 763.346 49.3516 763.391 49.3438H763.688V52.7188C763.698 52.8698 763.749 52.9609 763.84 52.9922C763.931 53.0234 763.995 53.0365 764.031 53.0312C764.195 53.0208 764.299 52.9766 764.344 52.8984C764.391 52.8203 764.411 52.7604 764.406 52.7188V49.3438ZM765.892 52.7344C765.903 52.8854 765.952 52.9766 766.041 53.0078C766.129 53.0391 766.194 53.0521 766.236 53.0469C766.392 53.0365 766.492 52.9922 766.537 52.9141C766.581 52.8359 766.601 52.776 766.595 52.7344V50.6719C766.634 50.1771 766.792 49.8451 767.068 49.6758C767.347 49.5065 767.507 49.4271 767.548 49.4375C767.757 49.3854 767.883 49.3099 767.927 49.2109C767.974 49.1094 767.994 49.0234 767.986 48.9531C767.939 48.7266 767.814 48.6328 767.611 48.6719C767.301 48.7318 767.06 48.8685 766.888 49.082C766.716 49.293 766.629 49.4115 766.627 49.4375H766.595V49.0469C766.569 48.8828 766.512 48.7786 766.423 48.7344C766.338 48.6875 766.275 48.6667 766.236 48.6719C766.069 48.6979 765.968 48.7578 765.931 48.8516C765.897 48.9427 765.884 49.0078 765.892 49.0469V52.7344ZM769.331 50.6406C769.394 50.0052 769.594 49.6185 769.933 49.4805C770.274 49.3424 770.469 49.2865 770.519 49.3125C771.016 49.3958 771.331 49.6263 771.464 50.0039C771.599 50.3789 771.659 50.5911 771.644 50.6406H769.331ZM771.972 51.1719C772.167 51.1641 772.287 51.1146 772.331 51.0234C772.376 50.9297 772.391 50.8542 772.378 50.7969C772.238 49.849 771.939 49.25 771.484 49C771.028 48.7474 770.696 48.638 770.488 48.6719C770.06 48.6901 769.719 48.7995 769.464 49C769.209 49.1979 769.017 49.4323 768.89 49.7031C768.762 49.9714 768.679 50.2188 768.64 50.4453C768.603 50.6719 768.589 50.8203 768.597 50.8906C768.626 51.4167 768.727 51.8294 768.902 52.1289C769.079 52.4258 769.283 52.6406 769.515 52.7734C769.749 52.9062 769.965 52.987 770.163 53.0156C770.364 53.0443 770.503 53.0547 770.581 53.0469C771.159 52.9974 771.575 52.8828 771.827 52.7031C772.083 52.5208 772.219 52.3958 772.238 52.3281C772.303 52.0964 772.235 51.9661 772.034 51.9375C771.917 51.9245 771.808 51.9661 771.706 52.0625C771.443 52.2578 771.21 52.3776 771.007 52.4219C770.804 52.4635 770.662 52.4792 770.581 52.4688C770.008 52.401 769.65 52.181 769.507 51.8086C769.366 51.4362 769.308 51.224 769.331 51.1719H771.972ZM773.887 50.6406C773.95 50.0052 774.151 49.6185 774.489 49.4805C774.83 49.3424 775.026 49.2865 775.075 49.3125C775.572 49.3958 775.887 49.6263 776.02 50.0039C776.156 50.3789 776.216 50.5911 776.2 50.6406H773.887ZM776.528 51.1719C776.723 51.1641 776.843 51.1146 776.887 51.0234C776.932 50.9297 776.947 50.8542 776.934 50.7969C776.794 49.849 776.496 49.25 776.04 49C775.584 48.7474 775.252 48.638 775.044 48.6719C774.617 48.6901 774.276 48.7995 774.02 49C773.765 49.1979 773.574 49.4323 773.446 49.7031C773.318 49.9714 773.235 50.2188 773.196 50.4453C773.16 50.6719 773.145 50.8203 773.153 50.8906C773.182 51.4167 773.283 51.8294 773.458 52.1289C773.635 52.4258 773.839 52.6406 774.071 52.7734C774.305 52.9062 774.522 52.987 774.72 53.0156C774.92 53.0443 775.059 53.0547 775.137 53.0469C775.716 52.9974 776.131 52.8828 776.384 52.7031C776.639 52.5208 776.776 52.3958 776.794 52.3281C776.859 52.0964 776.791 51.9661 776.591 51.9375C776.473 51.9245 776.364 51.9661 776.262 52.0625C775.999 52.2578 775.766 52.3776 775.563 52.4219C775.36 52.4635 775.218 52.4792 775.137 52.4688C774.565 52.401 774.207 52.181 774.063 51.8086C773.923 51.4362 773.864 51.224 773.887 51.1719H776.528ZM780.553 53.0312C780.803 53.0078 780.928 52.9076 780.928 52.7305C780.928 52.5508 780.803 52.4479 780.553 52.4219H778.631L778.6 52.3906L780.678 49.3281C780.959 48.9375 780.897 48.7344 780.491 48.7188H778.084C777.858 48.7448 777.745 48.8477 777.745 49.0273C777.745 49.2044 777.858 49.3047 778.084 49.3281H779.85L777.803 52.4219C777.514 52.8516 777.577 53.0547 777.991 53.0312H780.553ZM782.398 50.6406C782.461 50.0052 782.661 49.6185 783 49.4805C783.341 49.3424 783.536 49.2865 783.586 49.3125C784.083 49.3958 784.398 49.6263 784.531 50.0039C784.667 50.3789 784.727 50.5911 784.711 50.6406H782.398ZM785.039 51.1719C785.234 51.1641 785.354 51.1146 785.398 51.0234C785.443 50.9297 785.458 50.8542 785.445 50.7969C785.305 49.849 785.007 49.25 784.551 49C784.095 48.7474 783.763 48.638 783.555 48.6719C783.128 48.6901 782.786 48.7995 782.531 49C782.276 49.1979 782.085 49.4323 781.957 49.7031C781.829 49.9714 781.746 50.2188 781.707 50.4453C781.671 50.6719 781.656 50.8203 781.664 50.8906C781.693 51.4167 781.794 51.8294 781.969 52.1289C782.146 52.4258 782.35 52.6406 782.582 52.7734C782.816 52.9062 783.033 52.987 783.23 53.0156C783.431 53.0443 783.57 53.0547 783.648 53.0469C784.227 52.9974 784.642 52.8828 784.895 52.7031C785.15 52.5208 785.286 52.3958 785.305 52.3281C785.37 52.0964 785.302 51.9661 785.102 51.9375C784.984 51.9245 784.875 51.9661 784.773 52.0625C784.51 52.2578 784.277 52.3776 784.074 52.4219C783.871 52.4635 783.729 52.4792 783.648 52.4688C783.076 52.401 782.717 52.181 782.574 51.8086C782.434 51.4362 782.375 51.224 782.398 51.1719H785.039ZM786.439 52.7344C786.449 52.8854 786.499 52.9766 786.587 53.0078C786.676 53.0391 786.741 53.0521 786.783 53.0469C786.939 53.0365 787.039 52.9922 787.084 52.9141C787.128 52.8359 787.147 52.776 787.142 52.7344V50.6719C787.181 50.1771 787.339 49.8451 787.615 49.6758C787.893 49.5065 788.054 49.4271 788.095 49.4375C788.304 49.3854 788.43 49.3099 788.474 49.2109C788.521 49.1094 788.541 49.0234 788.533 48.9531C788.486 48.7266 788.361 48.6328 788.158 48.6719C787.848 48.7318 787.607 48.8685 787.435 49.082C787.263 49.293 787.176 49.4115 787.173 49.4375H787.142V49.0469C787.116 48.8828 787.059 48.7786 786.97 48.7344C786.884 48.6875 786.822 48.6667 786.783 48.6719C786.616 48.6979 786.515 48.7578 786.478 48.8516C786.444 48.9427 786.431 49.0078 786.439 49.0469V52.7344Z" fill="black"/>
</g>
</g>
</svg>
