<svg width="954" height="834" viewBox="0 0 954 834" fill="none" xmlns="http://www.w3.org/2000/svg">
<g id="apartment">
<path id="Rectangle 74" d="M65 3H3V831H951V3H162" stroke="#2E0B49" stroke-width="6"/>
<g id="Group 106">
<rect id="Rectangle 134" x="952" y="514" width="14" height="7" transform="rotate(90 952 514)" fill="white" stroke="#2E0B49"/>
<line id="Line 34" x1="950" y1="518.5" x2="947" y2="518.5" stroke="black"/>
<line id="Line 35" x1="950" y1="523.5" x2="947" y2="523.5" stroke="black"/>
</g>
<line id="Line 15" x1="439" y1="427" x2="951" y2="427" stroke="#2E0B49" stroke-width="2"/>
<line id="Line 26" x1="439" y1="435" x2="951" y2="435" stroke="#2E0B49" stroke-width="2"/>
<line id="Line 21" x1="3" y1="427" x2="169" y2="427" stroke="#2E0B49" stroke-width="2"/>
<line id="Line 22" x1="274" y1="427" x2="338" y2="427" stroke="#2E0B49" stroke-width="2"/>
<line id="Line 24" x1="3" y1="435" x2="169" y2="435" stroke="#2E0B49" stroke-width="2"/>
<line id="Line 25" x1="274" y1="435" x2="327" y2="435" stroke="#2E0B49" stroke-width="2"/>
<line id="Line 16" x1="630" y1="3" x2="630" y2="275" stroke="#2E0B49" stroke-width="2"/>
<line id="Line 19" x1="638" y1="3" x2="638" y2="275" stroke="#2E0B49" stroke-width="2"/>
<line id="Line 18" x1="630" y1="351" x2="630" y2="428" stroke="#2E0B49" stroke-width="2"/>
<line id="Line 20" x1="638" y1="351" x2="638" y2="428" stroke="#2E0B49" stroke-width="2"/>
<line id="Line 17" x1="327" y1="428" x2="327" y2="831" stroke="#2E0B49" stroke-width="2"/>
<g id="Group 107">
<rect id="Rectangle 134_2" x="331" y="451" width="14" height="7" transform="rotate(90 331 451)" fill="white" stroke="#2E0B49"/>
<line id="Line 34_2" x1="329" y1="455.5" x2="326" y2="455.5" stroke="black"/>
<line id="Line 35_2" x1="329" y1="460.5" x2="326" y2="460.5" stroke="black"/>
</g>
<line id="Line 23" x1="337" y1="428" x2="337" y2="831" stroke="#2E0B49" stroke-width="2"/>
<rect id="Rectangle 91" x="104.5" y="132.5" width="64" height="172" rx="32" fill="#F2F2F2" stroke="#2E0B49"/>
<path id="Rectangle 96" d="M337.5 548.5H392C397.247 548.5 401.5 552.753 401.5 558V713C401.5 718.247 397.247 722.5 392 722.5H337.5V548.5Z" fill="#F2F2F2" stroke="#2E0B49"/>
<path id="Rectangle 110" d="M5.5 435.5H98.5V607.5H5.5V435.5Z" fill="#F2F2F2" stroke="#2E0B49"/>
<path id="Rectangle 123" d="M237.5 472.5H326.5V561.5H237.5V472.5Z" fill="#F4FDFF" stroke="#2E0B49"/>
<path id="Rectangle 125" d="M845.5 323.5H948.5V426.5H845.5V323.5Z" fill="#F4FDFF" stroke="#2E0B49"/>
<path id="Rectangle 124" d="M237.5 561.5H326.5V650.5H237.5V561.5Z" fill="#F4FDFF" stroke="#2E0B49"/>
<path id="Rectangle 118" d="M5.5 704.5H326.5V828.5H5.5V704.5Z" fill="#F2F2F2" stroke="#2E0B49"/>
<path id="Rectangle 127" d="M855.5 5.5H948.5V322.5H855.5V5.5Z" fill="#F2F2F2" stroke="#2E0B49"/>
<rect id="Rectangle 89" x="483.5" y="372.5" width="146" height="54" fill="#EEE4D5" stroke="#2E0B49"/>
<rect id="Rectangle 115" x="5.5" y="435.5" width="24" height="39" fill="#EEE4D5" stroke="#2E0B49"/>
<rect id="Rectangle 117" x="5.5" y="474.5" width="3" height="94" fill="#CFF1F9" stroke="#2E0B49"/>
<rect id="Rectangle 116" x="5.5" y="568.5" width="24" height="39" fill="#EEE4D5" stroke="#2E0B49"/>
<path id="Rectangle 121" d="M6.5 616.5H12C17.2467 616.5 21.5 620.753 21.5 626V686C21.5 691.247 17.2467 695.5 12 695.5H6.5V616.5Z" fill="white" stroke="#2E0B49"/>
<path id="Rectangle 122" d="M21.5 630.5H72C86.0833 630.5 97.5 641.917 97.5 656C97.5 670.083 86.0833 681.5 72 681.5H21.5V630.5Z" fill="white" stroke="#2E0B49"/>
<rect id="Rectangle 95" x="492.5" y="435.5" width="456" height="68" fill="#EEE4D5" stroke="#2E0B49"/>
<rect id="Rectangle 126" x="638.5" y="5.5" width="216" height="56" fill="#EEE4D5" stroke="#2E0B49"/>
<rect id="Rectangle 90" x="5.5" y="144.5" width="27" height="130" fill="#EEE4D5" stroke="#2E0B49"/>
<path id="Rectangle 76" d="M197.954 71.8576L190.411 84.9228C182.612 98.4298 165.341 103.058 151.834 95.2594C138.327 87.4611 133.699 70.1898 141.498 56.6828L149.041 43.6176C151.323 39.6643 156.378 38.3099 160.331 40.5923L194.929 60.567C198.882 62.8494 200.236 67.9043 197.954 71.8576Z" fill="#C2C5FF" stroke="black"/>
<path id="Rectangle 94" d="M187.829 81.9763L180.33 94.9637C175.222 103.812 163.907 106.844 155.059 101.735L143.877 95.2796C135.507 90.4471 132.64 79.7443 137.472 71.3741L145.47 57.5207C148.646 52.0203 155.679 50.1358 161.18 53.3114L183.619 66.267C189.12 69.4426 191.004 76.4759 187.829 81.9763Z" fill="#A1A6F5" stroke="black"/>
<path id="Rectangle 97" d="M466 616.5L450.5 616.5C436.141 616.5 424.5 604.859 424.5 590.5C424.5 576.141 436.141 564.5 450.5 564.5L466 564.5C468.485 564.5 470.5 566.515 470.5 569L470.5 612C470.5 614.485 468.485 616.5 466 616.5Z" fill="#C2C5FF" stroke="#2E0B49"/>
<path id="Rectangle 113" d="M466 702.5L450.5 702.5C436.141 702.5 424.5 690.859 424.5 676.5C424.5 662.141 436.141 650.5 450.5 650.5L466 650.5C468.485 650.5 470.5 652.515 470.5 655L470.5 698C470.5 700.485 468.485 702.5 466 702.5Z" fill="#C2C5FF" stroke="#2E0B49"/>
<rect id="Rectangle 77" x="209.737" y="71.8524" width="36.8879" height="11.0341" rx="5.51703" transform="rotate(120 209.737 71.8524)" fill="#C2C5FF" stroke="black"/>
<rect id="Rectangle 78" x="153.415" y="38.7221" width="36.3514" height="11.0341" rx="5.51703" transform="rotate(120 153.415 38.7221)" fill="#C2C5FF" stroke="black"/>
<path id="Rectangle 79" d="M195.903 64.1438L158.037 42.282C155.206 40.6477 154.237 37.0282 155.871 34.1976C157.948 30.5996 162.549 29.3668 166.147 31.4441L201.234 51.7015C204.832 53.7788 206.065 58.3796 203.987 61.9776C202.353 64.8083 198.734 65.7781 195.903 64.1438Z" fill="#C2C5FF" stroke="black"/>
<g id="table">
<rect id="Rectangle 75" x="462.5" y="45.5" width="105" height="173" rx="4.5" fill="#FEF4EA" stroke="#2E0B49"/>
<rect id="Rectangle 88" x="466.25" y="49.25" width="97.5" height="165.5" rx="4.75" fill="#FFF8F1" stroke="#DAD1E0" stroke-width="0.5"/>
<path id="Rectangle 80" d="M417 70.5H430C442.426 70.5 452.5 80.5736 452.5 93C452.5 105.426 442.426 115.5 430 115.5H417C414.515 115.5 412.5 113.485 412.5 111V75C412.5 72.5147 414.515 70.5 417 70.5Z" fill="#C2C5FF" stroke="#2E0B49"/>
<path id="Rectangle 84" d="M612 196.5L599 196.5C586.574 196.5 576.5 186.426 576.5 174C576.5 161.574 586.574 151.5 599 151.5L612 151.5C614.485 151.5 616.5 153.515 616.5 156L616.5 192C616.5 194.485 614.485 196.5 612 196.5Z" fill="#C2C5FF" stroke="#2E0B49"/>
<path id="Rectangle 82" d="M417 151.5H430C442.426 151.5 452.5 161.574 452.5 174C452.5 186.426 442.426 196.5 430 196.5H417C414.515 196.5 412.5 194.485 412.5 192V156C412.5 153.515 414.515 151.5 417 151.5Z" fill="#C2C5FF" stroke="#2E0B49"/>
<path id="Rectangle 85" d="M612 115.5L599 115.5C586.574 115.5 576.5 105.426 576.5 93C576.5 80.5736 586.574 70.5 599 70.5L612 70.5C614.485 70.5 616.5 72.5147 616.5 75L616.5 111C616.5 113.485 614.485 115.5 612 115.5Z" fill="#C2C5FF" stroke="#2E0B49"/>
<rect id="Rectangle 81" x="411" y="69" width="8" height="48" rx="4" fill="#C2C5FF" stroke="#2E0B49"/>
<rect id="Rectangle 86" x="618" y="198" width="8" height="48" rx="4" transform="rotate(-180 618 198)" fill="#C2C5FF" stroke="#2E0B49"/>
<rect id="Rectangle 83" x="411" y="150" width="8" height="48" rx="4" fill="#C2C5FF" stroke="#2E0B49"/>
<rect id="Rectangle 87" x="618" y="117" width="8" height="48" rx="4" transform="rotate(-180 618 117)" fill="#C2C5FF" stroke="#2E0B49"/>
</g>
<rect id="Rectangle 98" x="472" y="618" width="9" height="55" rx="4.5" transform="rotate(-180 472 618)" fill="#C2C5FF" stroke="#2E0B49"/>
<rect id="Rectangle 114" x="472" y="704" width="9" height="55" rx="4.5" transform="rotate(-180 472 704)" fill="#C2C5FF" stroke="#2E0B49"/>
<line id="Line 27" x1="483.913" y1="372.508" x2="551.913" y2="360.508" stroke="black"/>
<path id="Line 28" d="M629 372L561 360" stroke="black"/>
<line id="Line 29" x1="557.5" y1="372" x2="557.5" y2="426" stroke="black"/>
<line id="Line 30" x1="644.5" y1="435" x2="644.5" y2="504" stroke="black"/>
<line id="Line 32" x1="745.5" y1="5" x2="745.5" y2="62" stroke="black"/>
<line id="Line 31" x1="797.5" y1="435" x2="797.5" y2="504" stroke="black"/>
<g id="sofa">
<path id="Rectangle 92" d="M245 106.5H258C279.815 106.5 297.5 124.185 297.5 146V291C297.5 312.815 279.815 330.5 258 330.5H245C235.335 330.5 227.5 322.665 227.5 313V124C227.5 114.335 235.335 106.5 245 106.5Z" fill="#C2C5FF" stroke="#2E0B49"/>
<rect id="Rectangle 93" x="212.5" y="121.5" width="68" height="194" rx="29.5" fill="#A2A6F5" stroke="#2E0B49"/>
</g>
<rect id="Rectangle 101" x="577.5" y="544.5" width="371" height="232" fill="#FEF4EA" stroke="#2E0B49"/>
<rect id="Rectangle 102" x="937" y="538" width="11" height="245" fill="#EEE4D5" stroke="#2E0B49" stroke-width="2"/>
<rect id="Rectangle 103" x="577.5" y="544.5" width="4" height="232" fill="#EEE4D5" stroke="#2E0B49"/>
<rect id="Rectangle 104" x="876.5" y="563.5" width="55" height="79" rx="3.5" fill="#EEE4D5" stroke="#2E0B49"/>
<path id="Rectangle 106" d="M875.934 575.423L907.934 574.581C909.34 574.544 910.5 575.674 910.5 577.08V628.879C910.5 630.299 909.32 631.433 907.901 631.377L875.901 630.114C874.56 630.061 873.5 628.958 873.5 627.616V577.922C873.5 576.567 874.58 575.459 875.934 575.423Z" fill="white" stroke="#2E0B49"/>
<rect id="Rectangle 105" x="876.5" y="674.5" width="55" height="79" rx="3.5" fill="#EEE4D5" stroke="#2E0B49"/>
<path id="Rectangle 107" d="M875.934 685.423L907.934 684.581C909.34 684.544 910.5 685.674 910.5 687.08V738.879C910.5 740.299 909.32 741.433 907.901 741.377L875.901 740.114C874.56 740.061 873.5 738.958 873.5 737.616V687.922C873.5 686.567 874.58 685.459 875.934 685.423Z" fill="white" stroke="#2E0B49"/>
<rect id="Rectangle 108" x="587.5" y="541.5" width="276" height="239" rx="9.5" fill="#FFF8F1" stroke="#2E0B49"/>
<rect id="Rectangle 109" x="801.5" y="538.5" width="36" height="245" rx="1.5" fill="#E4DFD9" stroke="#2E0B49"/>
<rect id="Rectangle 111" x="32.5" y="481.5" width="50" height="78" rx="25" fill="#CFF1F9" stroke="#2E0B49"/>
<rect id="Rectangle 130" x="875.5" y="25.5" width="57" height="56" rx="4.5" fill="#CFF1F9" stroke="#2E0B49"/>
<rect id="Rectangle 119" x="314.5" y="720.5" width="96" height="275" rx="48" transform="rotate(90 314.5 720.5)" fill="#CFF1F9" stroke="#2E0B49"/>
<rect id="Rectangle 112" x="23" y="517" width="24" height="6" fill="white" stroke="#2E0B49"/>
<rect id="Rectangle 131" x="916.648" y="36.3232" width="28.7409" height="6" transform="rotate(-45 916.648 36.3232)" fill="white" stroke="#2E0B49"/>
<rect id="Rectangle 120" x="18" y="763" width="36" height="11" fill="white" stroke="#2E0B49"/>
<circle id="Ellipse 182" cx="27" cy="510" r="2" fill="white" stroke="#2E0B49"/>
<ellipse id="Ellipse 184" cx="23.5" cy="750" rx="3.5" ry="4" fill="white" stroke="#2E0B49"/>
<circle id="Ellipse 183" cx="27" cy="530" r="2" fill="white" stroke="#2E0B49"/>
<circle id="Ellipse 186" cx="14" cy="630" r="2" fill="white" stroke="#2E0B49"/>
<circle id="Ellipse 185" cx="23.5" cy="787.5" r="3.5" fill="white" stroke="#2E0B49"/>
<rect id="Rectangle 128" x="863.5" y="99.5" width="77" height="117" fill="white" stroke="#2E0B49"/>
<rect id="Rectangle 132" x="651.5" y="52.5" width="38" height="79" rx="4.5" transform="rotate(-90 651.5 52.5)" fill="white" stroke="#2E0B49"/>
<rect id="Rectangle 133" x="656" y="49" width="31" height="70" rx="5" transform="rotate(-90 656 49)" fill="#EDECEC"/>
<rect id="Rectangle 129" x="863.5" y="225.5" width="77" height="88" stroke="#2E0B49" stroke-dasharray="2 2"/>
<circle id="Ellipse 187" cx="887" cy="123" r="15" stroke="black" stroke-width="0.5" stroke-dasharray="2 2"/>
<circle id="Ellipse 189" cx="887" cy="172" r="15" stroke="black" stroke-width="0.5" stroke-dasharray="2 2"/>
<circle id="Ellipse 188" cx="919" cy="145" r="15" stroke="black" stroke-width="0.5" stroke-dasharray="2 2"/>
<circle id="Ellipse 190" cx="919" cy="193" r="15" stroke="black" stroke-width="0.5" stroke-dasharray="2 2"/>
<circle id="Ellipse 191" cx="887" cy="123" r="11" fill="#FFEDED"/>
<circle id="Ellipse 192" cx="919" cy="145" r="11" fill="#FFEDED"/>
<circle id="Ellipse 193" cx="887" cy="172" r="11" fill="#FFEDED"/>
<circle id="Ellipse 194" cx="919" cy="193" r="11" fill="#FFEDED"/>
<line id="Line 33" x1="660" y1="53" x2="660" y2="55" stroke="#2E0B49" stroke-width="4"/>
<g id="Group 99">
<rect id="Rectangle 134_3" x="231" y="3" width="14" height="7" fill="white" stroke="#2E0B49"/>
<line id="Line 34_3" x1="235.5" y1="5" x2="235.5" y2="8" stroke="black"/>
<line id="Line 35_3" x1="240.5" y1="5" x2="240.5" y2="8" stroke="black"/>
</g>
<g id="Group 102">
<rect id="Rectangle 134_4" x="649" y="3" width="14" height="7" fill="white" stroke="#2E0B49"/>
<line id="Line 34_4" x1="653.5" y1="5" x2="653.5" y2="8" stroke="black"/>
<line id="Line 35_4" x1="658.5" y1="5" x2="658.5" y2="8" stroke="black"/>
</g>
<g id="Group 100">
<rect id="Rectangle 134_5" x="9" y="338" width="14" height="7" transform="rotate(90 9 338)" fill="white" stroke="#2E0B49"/>
<line id="Line 34_5" x1="7" y1="342.5" x2="4" y2="342.5" stroke="black"/>
<line id="Line 35_5" x1="7" y1="347.5" x2="4" y2="347.5" stroke="black"/>
</g>
<g id="Group 101">
<rect id="Rectangle 134_6" x="56" y="432" width="14" height="7" fill="white" stroke="#2E0B49"/>
<line id="Line 34_6" x1="60.5" y1="434" x2="60.5" y2="437" stroke="black"/>
<line id="Line 35_6" x1="65.5" y1="434" x2="65.5" y2="437" stroke="black"/>
</g>
<path id="Vector 74" d="M659 14.5C657.5 14 654.6 12.6 655 11C655.4 9.4 654.5 7 654 6" stroke="#2E0B49" stroke-linecap="round"/>
<g id="Group 103">
<rect id="Rectangle 134_7" x="747" y="424" width="14" height="7" fill="white" stroke="#2E0B49"/>
<line id="Line 34_7" x1="751.5" y1="426" x2="751.5" y2="429" stroke="black"/>
<line id="Line 35_7" x1="756.5" y1="426" x2="756.5" y2="429" stroke="black"/>
</g>
<g id="Group 104">
<rect id="Rectangle 134_8" x="340.5" y="670.5" width="14" height="7" transform="rotate(90 340.5 670.5)" fill="white" stroke="#2E0B49"/>
<line id="Line 34_8" x1="338.5" y1="675" x2="335.5" y2="675" stroke="black"/>
<line id="Line 35_8" x1="338.5" y1="680" x2="335.5" y2="680" stroke="black"/>
</g>
<g id="Group 105">
<rect id="Rectangle 134_9" x="633" y="231" width="14" height="7" transform="rotate(90 633 231)" fill="white" stroke="#2E0B49"/>
<line id="Line 34_9" x1="631" y1="235.5" x2="628" y2="235.5" stroke="black"/>
<line id="Line 35_9" x1="631" y1="240.5" x2="628" y2="240.5" stroke="black"/>
</g>
<rect id="Rectangle 136" x="11.5" y="194.5" width="12" height="24" fill="#D9D9D9" stroke="black"/>
<rect id="Rectangle 135" x="15.5" y="166.5" width="8" height="80" fill="#D9D9D9" stroke="black"/>
<g id="Group 109">
<rect id="Rectangle 138" x="324.5" y="4.5" width="4" height="9" fill="#CDCDCD" stroke="#2E0B49"/>
<rect id="Rectangle 139" x="394.5" y="4.5" width="4" height="9" fill="#CDCDCD" stroke="#2E0B49"/>
<rect id="Rectangle 137" x="305.5" y="9.5" width="116" height="8" rx="4" fill="#F8F8F8" stroke="#2E0B49"/>
<g id="Group 108">
<path id="Vector 75" d="M358.5 11C358.333 11 358 11.2 358 12C358 13 359 13 359 14C359 14.8 358.667 15 358.5 15" stroke="#2E0B49" stroke-linecap="round"/>
<path id="Vector 76" d="M362.5 11C362.333 11 362 11.2 362 12C362 13 363 13 363 14C363 14.8 362.667 15 362.5 15" stroke="#2E0B49" stroke-linecap="round"/>
<path id="Vector 77" d="M366.5 11C366.333 11 366 11.2 366 12C366 13 367 13 367 14C367 14.8 366.667 15 366.5 15" stroke="#2E0B49" stroke-linecap="round"/>
</g>
</g>
<g id="Group 110">
<rect id="Rectangle 138_2" x="120.5" y="427.5" width="4" height="9" transform="rotate(-180 120.5 427.5)" fill="#CDCDCD" stroke="#2E0B49"/>
<rect id="Rectangle 139_2" x="50.5" y="427.5" width="4" height="9" transform="rotate(-180 50.5 427.5)" fill="#CDCDCD" stroke="#2E0B49"/>
<rect id="Rectangle 137_2" x="139.5" y="422.5" width="116" height="8" rx="4" transform="rotate(-180 139.5 422.5)" fill="#F8F8F8" stroke="#2E0B49"/>
<g id="Group 108_2">
<path id="Vector 75_2" d="M86.5 421C86.6667 421 87 420.8 87 420C87 419 86 419 86 418C86 417.2 86.3333 417 86.5 417" stroke="#2E0B49" stroke-linecap="round"/>
<path id="Vector 76_2" d="M82.5 421C82.6667 421 83 420.8 83 420C83 419 82 419 82 418C82 417.2 82.3333 417 82.5 417" stroke="#2E0B49" stroke-linecap="round"/>
<path id="Vector 77_2" d="M78.5 421C78.6667 421 79 420.8 79 420C79 419 78 419 78 418C78 417.2 78.3333 417 78.5 417" stroke="#2E0B49" stroke-linecap="round"/>
</g>
</g>
<g id="Group 112">
<rect id="Rectangle 138_3" x="490.5" y="830.5" width="4" height="9" transform="rotate(-180 490.5 830.5)" fill="#CDCDCD" stroke="#2E0B49"/>
<rect id="Rectangle 139_3" x="420.5" y="830.5" width="4" height="9" transform="rotate(-180 420.5 830.5)" fill="#CDCDCD" stroke="#2E0B49"/>
<rect id="Rectangle 137_3" x="509.5" y="825.5" width="116" height="8" rx="4" transform="rotate(-180 509.5 825.5)" fill="#F8F8F8" stroke="#2E0B49"/>
<g id="Group 108_3">
<path id="Vector 75_3" d="M456.5 824C456.667 824 457 823.8 457 823C457 822 456 822 456 821C456 820.2 456.333 820 456.5 820" stroke="#2E0B49" stroke-linecap="round"/>
<path id="Vector 76_3" d="M452.5 824C452.667 824 453 823.8 453 823C453 822 452 822 452 821C452 820.2 452.333 820 452.5 820" stroke="#2E0B49" stroke-linecap="round"/>
<path id="Vector 77_3" d="M448.5 824C448.667 824 449 823.8 449 823C449 822 448 822 448 821C448 820.2 448.333 820 448.5 820" stroke="#2E0B49" stroke-linecap="round"/>
</g>
</g>
<g id="Group 111">
<rect id="Rectangle 138_4" x="636.5" y="239.5" width="4" height="9" transform="rotate(-90 636.5 239.5)" fill="#CDCDCD" stroke="#2E0B49"/>
<rect id="Rectangle 139_4" x="636.5" y="169.5" width="4" height="9" transform="rotate(-90 636.5 169.5)" fill="#CDCDCD" stroke="#2E0B49"/>
<rect id="Rectangle 137_4" x="641.5" y="258.5" width="116" height="8" rx="4" transform="rotate(-90 641.5 258.5)" fill="#F8F8F8" stroke="#2E0B49"/>
<g id="Group 108_4">
<path id="Vector 75_4" d="M643 205.5C643 205.667 643.2 206 644 206C645 206 645 205 646 205C646.8 205 647 205.333 647 205.5" stroke="#2E0B49" stroke-linecap="round"/>
<path id="Vector 76_4" d="M643 201.5C643 201.667 643.2 202 644 202C645 202 645 201 646 201C646.8 201 647 201.333 647 201.5" stroke="#2E0B49" stroke-linecap="round"/>
<path id="Vector 77_4" d="M643 197.5C643 197.667 643.2 198 644 198C645 198 645 197 646 197C646.8 197 647 197.333 647 197.5" stroke="#2E0B49" stroke-linecap="round"/>
</g>
</g>
<path id="Vector 49" d="M20.8148 168H18.8889L18 170.857H19.4815L18.8889 173L22 169.571H20.3704L20.8148 168Z" fill="#F7B634" stroke="#7ED2D9" stroke-width="0.5" stroke-linecap="round" stroke-linejoin="round"/>
<path id="Vector 75_5" d="M30.8148 416H28.8889L28 418.857H29.4815L28.8889 421L32 417.571H30.3704L30.8148 416Z" fill="#F7B634" stroke="white" stroke-width="0.5" stroke-linecap="round" stroke-linejoin="round"/>
<path id="Vector 76_5" d="M244.222 475H241.333L240 479H242.222L241.333 482L246 477.2H243.556L244.222 475Z" fill="#F7B634" stroke="#7CD7D9" stroke-width="0.5" stroke-linecap="round" stroke-linejoin="round"/>
<path id="Vector 77_5" d="M244.222 564H241.333L240 568H242.222L241.333 571L246 566.2H243.556L244.222 564Z" fill="#F7B634" stroke="#7CD7D9" stroke-width="0.5" stroke-linecap="round" stroke-linejoin="round"/>
<path id="Vector 78" d="M399.815 819H397.889L397 821.857H398.481L397.889 824L401 820.571H399.37L399.815 819Z" fill="#F7B634" stroke="#7CD7D9" stroke-width="0.5" stroke-linecap="round" stroke-linejoin="round"/>
<path id="Vector 79" d="M852.222 326H849.333L848 330H850.222L849.333 333L854 328.2H851.556L852.222 326Z" fill="#F7B634" stroke="#7ED2D9" stroke-width="0.5" stroke-linecap="round" stroke-linejoin="round"/>
<path id="Vector 80" d="M870.222 229H867.333L866 233H868.222L867.333 236L872 231.2H869.556L870.222 229Z" fill="#F7B634" stroke="#7ED2D9" stroke-width="0.5" stroke-linecap="round" stroke-linejoin="round"/>
<path id="Vector 82" d="M663.222 21H660.333L659 25H661.222L660.333 28L665 23.2H662.556L663.222 21Z" fill="#F7B634" stroke="#7ED2D9" stroke-width="0.5" stroke-linecap="round" stroke-linejoin="round"/>
<path id="Vector 83" d="M646.519 145H644.111L643 148.429H644.852L644.111 151L648 146.886H645.963L646.519 145Z" fill="#F7B634" stroke="#7ED2D9" stroke-width="0.5" stroke-linecap="round" stroke-linejoin="round"/>
<path id="Vector 84" d="M311.815 11H309.889L309 13.8571H310.481L309.889 16L313 12.5714H311.37L311.815 11Z" fill="#F7B634" stroke="#7ED2D9" stroke-width="0.5" stroke-linecap="round" stroke-linejoin="round"/>
<path id="Vector 81" d="M869.222 208H866.333L865 212H867.222L866.333 215L871 210.2H868.556L869.222 208Z" fill="#F7B634" stroke="#7ED2D9" stroke-width="0.5" stroke-linecap="round" stroke-linejoin="round"/>
<g id="living-room-lamp3">
<g id="Group 33">
<path id="Vector 33" d="M76.2313 219.44C76.4174 223.532 75.8593 222.974 71.0224 222.974C65.4414 222.974 65.8134 223.532 65.8134 219.44C65.8134 215.905 66.3715 213.673 63.2089 211.812C60.0464 209.952 58 205.301 58 201.208C58 197.116 61.5346 188 71.0224 188C80.5101 188 84.0447 195.627 84.0447 201.208C84.0447 206.789 81.2542 209.952 78.6498 211.812C76.0453 213.673 76.0201 214.794 76.2313 219.44Z" stroke="#2E0B49" stroke-linecap="round" stroke-linejoin="round"/>
<path id="Vector 34" d="M68.79 216.649V209.021L65.9995 201.208H67.6738L69.1621 203.068C69.3481 202.324 69.9434 200.836 70.8364 200.836C71.7294 200.836 72.5727 202.324 72.8828 203.068L74.371 200.836H76.2314L73.4409 208.649V216.649M65.8135 216.649H76.2314" stroke="#2E0B49" stroke-linecap="round" stroke-linejoin="round"/>
</g>
<g id="Ellipse 195" style="mix-blend-mode:hard-light" filter="url(#filter0_f_43_2)">
<circle cx="71.0224" cy="201.022" r="9.3017" fill="#F7B634"/>
</g>
</g>
<g id="living-room-lamp2">
<g id="Group 33_2">
<path id="Vector 33_2" d="M520.231 138.44C520.417 142.532 519.859 141.974 515.022 141.974C509.441 141.974 509.813 142.532 509.813 138.44C509.813 134.905 510.372 132.673 507.209 130.812C504.046 128.952 502 124.301 502 120.208C502 116.116 505.535 107 515.022 107C524.51 107 528.045 114.627 528.045 120.208C528.045 125.789 525.254 128.952 522.65 130.812C520.045 132.673 520.02 133.794 520.231 138.44Z" stroke="#2E0B49" stroke-linecap="round" stroke-linejoin="round"/>
<path id="Vector 34_2" d="M512.79 135.649V128.021L510 120.208H511.674L513.162 122.068C513.348 121.324 513.943 119.836 514.836 119.836C515.729 119.836 516.573 121.324 516.883 122.068L518.371 119.836H520.231L517.441 127.649V135.649M509.813 135.649H520.231" stroke="#2E0B49" stroke-linecap="round" stroke-linejoin="round"/>
</g>
<g id="Ellipse 195_2" style="mix-blend-mode:hard-light" filter="url(#filter1_f_43_2)">
<circle cx="515.022" cy="120.022" r="9.3017" fill="#7ED2D9"/>
</g>
</g>
<g id="living-room-lamp1">
<g id="Group 33_3">
<path id="Vector 33_3" d="M395.231 391.44C395.417 395.532 394.859 394.974 390.022 394.974C384.441 394.974 384.813 395.532 384.813 391.44C384.813 387.905 385.372 385.673 382.209 383.812C379.046 381.952 377 377.301 377 373.208C377 369.116 380.535 360 390.022 360C399.51 360 403.045 367.627 403.045 373.208C403.045 378.789 400.254 381.952 397.65 383.812C395.045 385.673 395.02 386.794 395.231 391.44Z" stroke="#2E0B49" stroke-linecap="round" stroke-linejoin="round"/>
<path id="Vector 34_3" d="M387.79 388.649V381.021L385 373.208H386.674L388.162 375.068C388.348 374.324 388.943 372.836 389.836 372.836C390.729 372.836 391.573 374.324 391.883 375.068L393.371 372.836H395.231L392.441 380.649V388.649M384.813 388.649H395.231" stroke="#2E0B49" stroke-linecap="round" stroke-linejoin="round"/>
</g>
<g id="Ellipse 195_3" style="mix-blend-mode:hard-light" filter="url(#filter2_f_43_2)">
<circle cx="390.022" cy="373.022" r="9.3017" fill="#F7B634"/>
</g>
</g>
<g id="kitchen-lamp2">
<g id="Group 33_4">
<path id="Vector 33_4" d="M742.231 168.44C742.417 172.532 741.859 171.974 737.022 171.974C731.441 171.974 731.813 172.532 731.813 168.44C731.813 164.905 732.372 162.673 729.209 160.812C726.046 158.952 724 154.301 724 150.208C724 146.116 727.535 137 737.022 137C746.51 137 750.045 144.627 750.045 150.208C750.045 155.789 747.254 158.952 744.65 160.812C742.045 162.673 742.02 163.794 742.231 168.44Z" stroke="#2E0B49" stroke-linecap="round" stroke-linejoin="round"/>
<path id="Vector 34_4" d="M734.79 165.649V158.021L732 150.208H733.674L735.162 152.068C735.348 151.324 735.943 149.836 736.836 149.836C737.729 149.836 738.573 151.324 738.883 152.068L740.371 149.836H742.231L739.441 157.649V165.649M731.813 165.649H742.231" stroke="#2E0B49" stroke-linecap="round" stroke-linejoin="round"/>
</g>
<g id="Ellipse 195_4" style="mix-blend-mode:hard-light" filter="url(#filter3_f_43_2)">
<circle cx="737.022" cy="150.022" r="9.3017" fill="#F7B634"/>
</g>
</g>
<g id="kitchen-lamp1">
<g id="Group 33_5">
<path id="Vector 33_5" d="M742.231 306.44C742.417 310.532 741.859 309.974 737.022 309.974C731.441 309.974 731.813 310.532 731.813 306.44C731.813 302.905 732.372 300.673 729.209 298.812C726.046 296.952 724 292.301 724 288.208C724 284.116 727.535 275 737.022 275C746.51 275 750.045 282.627 750.045 288.208C750.045 293.789 747.254 296.952 744.65 298.812C742.045 300.673 742.02 301.794 742.231 306.44Z" stroke="#2E0B49" stroke-linecap="round" stroke-linejoin="round"/>
<path id="Vector 34_5" d="M734.79 303.649V296.021L732 288.208H733.674L735.162 290.068C735.348 289.324 735.943 287.836 736.836 287.836C737.729 287.836 738.573 289.324 738.883 290.068L740.371 287.836H742.231L739.441 295.649V303.649M731.813 303.649H742.231" stroke="#2E0B49" stroke-linecap="round" stroke-linejoin="round"/>
</g>
<g id="Ellipse 195_5" style="mix-blend-mode:hard-light" filter="url(#filter4_f_43_2)">
<circle cx="737.022" cy="288.022" r="9.3017" fill="#7ED2D9"/>
</g>
</g>
<g id="bedroom-lamp2">
<g id="Group 33_6">
<path id="Vector 33_6" d="M369.231 639.44C369.417 643.532 368.859 642.974 364.022 642.974C358.441 642.974 358.813 643.532 358.813 639.44C358.813 635.905 359.372 633.673 356.209 631.812C353.046 629.952 351 625.301 351 621.208C351 617.116 354.535 608 364.022 608C373.51 608 377.045 615.627 377.045 621.208C377.045 626.789 374.254 629.952 371.65 631.812C369.045 633.673 369.02 634.794 369.231 639.44Z" stroke="#2E0B49" stroke-linecap="round" stroke-linejoin="round"/>
<path id="Vector 34_6" d="M361.79 636.649V629.021L359 621.208H360.674L362.162 623.068C362.348 622.324 362.943 620.836 363.836 620.836C364.729 620.836 365.573 622.324 365.883 623.068L367.371 620.836H369.231L366.441 628.649V636.649M358.813 636.649H369.231" stroke="#2E0B49" stroke-linecap="round" stroke-linejoin="round"/>
</g>
<g id="Ellipse 195_6" style="mix-blend-mode:hard-light" filter="url(#filter5_f_43_2)">
<circle cx="364.022" cy="621.022" r="9.3017" fill="#F7B634"/>
</g>
</g>
<g id="bedroom-lamp1">
<g id="Group 33_7">
<path id="Vector 33_7" d="M713.231 661.44C713.417 665.532 712.859 664.974 708.022 664.974C702.441 664.974 702.813 665.532 702.813 661.44C702.813 657.905 703.372 655.673 700.209 653.812C697.046 651.952 695 647.301 695 643.208C695 639.116 698.535 630 708.022 630C717.51 630 721.045 637.627 721.045 643.208C721.045 648.789 718.254 651.952 715.65 653.812C713.045 655.673 713.02 656.794 713.231 661.44Z" stroke="#2E0B49" stroke-linecap="round" stroke-linejoin="round"/>
<path id="Vector 34_7" d="M705.79 658.649V651.021L703 643.208H704.674L706.162 645.068C706.348 644.324 706.943 642.836 707.836 642.836C708.729 642.836 709.573 644.324 709.883 645.068L711.371 642.836H713.231L710.441 650.649V658.649M702.813 658.649H713.231" stroke="#2E0B49" stroke-linecap="round" stroke-linejoin="round"/>
</g>
<g id="Ellipse 195_7" style="mix-blend-mode:hard-light" filter="url(#filter6_f_43_2)">
<circle cx="708.022" cy="643.022" r="9.3017" fill="#7CD7D9"/>
</g>
</g>
<g id="bathroom-lamp1">
<g id="Group 33_8">
<path id="Vector 33_8" d="M182.231 594.44C182.417 598.532 181.859 597.974 177.022 597.974C171.441 597.974 171.813 598.532 171.813 594.44C171.813 590.905 172.372 588.673 169.209 586.812C166.046 584.952 164 580.301 164 576.208C164 572.116 167.535 563 177.022 563C186.51 563 190.045 570.627 190.045 576.208C190.045 581.789 187.254 584.952 184.65 586.812C182.045 588.673 182.02 589.794 182.231 594.44Z" stroke="#2E0B49" stroke-linecap="round" stroke-linejoin="round"/>
<path id="Vector 34_8" d="M174.79 591.649V584.021L172 576.208H173.674L175.162 578.068C175.348 577.324 175.943 575.836 176.836 575.836C177.729 575.836 178.573 577.324 178.883 578.068L180.371 575.836H182.231L179.441 583.649V591.649M171.813 591.649H182.231" stroke="#2E0B49" stroke-linecap="round" stroke-linejoin="round"/>
</g>
<g id="Ellipse 195_8" style="mix-blend-mode:hard-light" filter="url(#filter7_f_43_2)">
<circle cx="177.022" cy="576.022" r="9.3017" fill="#8CDCDE"/>
</g>
</g>
<path id="TV" d="M17.7109 180.73L17.7109 178.598C17.7324 178.428 17.8154 178.343 17.96 178.343C18.1025 178.343 18.1836 178.428 18.2031 178.598L18.2031 179.406L21.7891 179.406C21.9531 179.428 22.0352 179.514 22.0352 179.664C22.0352 179.814 21.9531 179.9 21.7891 179.922L18.2031 179.922L18.2031 180.73C18.1836 180.883 18.1025 180.959 17.96 180.959C17.8154 180.959 17.7324 180.883 17.7109 180.73ZM21.7891 176.675L18.1094 177.975C17.8691 178.018 17.7314 177.973 17.6963 177.841C17.6611 177.708 17.7285 177.604 17.8984 177.53L21.1914 176.37L18.0039 175.257C17.7773 175.155 17.6777 175.032 17.7051 174.887C17.7324 174.741 17.875 174.692 18.1328 174.741L21.7891 176.065C21.9648 176.139 22.0527 176.242 22.0527 176.373C22.0527 176.502 21.9648 176.602 21.7891 176.675Z" fill="black"/>
<path id="fridge" d="M858.406 328.344H858.859C859.01 328.336 859.107 328.296 859.148 328.223C859.19 328.147 859.208 328.089 859.203 328.047C859.177 327.898 859.122 327.809 859.039 327.777C858.958 327.743 858.898 327.729 858.859 327.734H858.406V326.703C858.417 326.562 858.462 326.477 858.543 326.445C858.626 326.414 858.674 326.401 858.688 326.406H858.859C859.055 326.398 859.174 326.355 859.219 326.277C859.263 326.197 859.279 326.135 859.266 326.094C859.161 325.865 859.026 325.76 858.859 325.781H858.625C858.188 325.799 857.917 325.917 857.812 326.133C857.711 326.349 857.669 326.57 857.688 326.797V327.734H857.391C857.211 327.747 857.105 327.797 857.074 327.883C857.046 327.966 857.036 328.021 857.047 328.047C857.042 328.19 857.086 328.277 857.18 328.309C857.276 328.34 857.346 328.352 857.391 328.344H857.688V331.719C857.698 331.87 857.749 331.961 857.84 331.992C857.931 332.023 857.995 332.036 858.031 332.031C858.195 332.021 858.299 331.977 858.344 331.898C858.391 331.82 858.411 331.76 858.406 331.719V328.344ZM859.892 331.734C859.903 331.885 859.952 331.977 860.041 332.008C860.129 332.039 860.194 332.052 860.236 332.047C860.392 332.036 860.492 331.992 860.537 331.914C860.581 331.836 860.601 331.776 860.595 331.734V329.672C860.634 329.177 860.792 328.845 861.068 328.676C861.347 328.507 861.507 328.427 861.548 328.438C861.757 328.385 861.883 328.31 861.927 328.211C861.974 328.109 861.994 328.023 861.986 327.953C861.939 327.727 861.814 327.633 861.611 327.672C861.301 327.732 861.06 327.868 860.888 328.082C860.716 328.293 860.629 328.411 860.627 328.438H860.595V328.047C860.569 327.883 860.512 327.779 860.423 327.734C860.338 327.688 860.275 327.667 860.236 327.672C860.069 327.698 859.968 327.758 859.931 327.852C859.897 327.943 859.884 328.008 859.892 328.047V331.734ZM863.566 328.062C863.537 327.898 863.476 327.794 863.382 327.75C863.291 327.703 863.232 327.682 863.206 327.688C863.032 327.716 862.926 327.78 862.89 327.879C862.853 327.975 862.839 328.036 862.847 328.062V331.734C862.86 331.885 862.916 331.977 863.015 332.008C863.114 332.039 863.178 332.052 863.206 332.047C863.363 332.034 863.463 331.986 863.507 331.902C863.551 331.819 863.571 331.763 863.566 331.734V328.062ZM862.753 326.672C862.761 326.956 862.917 327.107 863.222 327.125C863.493 327.107 863.639 326.956 863.659 326.672C863.652 326.401 863.495 326.255 863.191 326.234C862.912 326.255 862.766 326.401 862.753 326.672ZM867.755 329.922C867.684 330.667 867.496 331.124 867.188 331.293C866.884 331.462 866.682 331.531 866.583 331.5C866.031 331.443 865.684 331.22 865.544 330.832C865.406 330.441 865.351 330.138 865.38 329.922C865.44 329.193 865.613 328.74 865.899 328.562C866.186 328.383 866.414 328.31 866.583 328.344C867.117 328.422 867.451 328.66 867.587 329.059C867.725 329.457 867.781 329.745 867.755 329.922ZM867.692 331.75C867.7 331.901 867.744 331.992 867.825 332.023C867.908 332.055 867.979 332.068 868.036 332.062C868.187 332.055 868.283 332.014 868.325 331.941C868.367 331.868 868.385 331.805 868.38 331.75V326.188C868.356 326.023 868.304 325.919 868.223 325.875C868.143 325.828 868.08 325.807 868.036 325.812C867.869 325.839 867.768 325.898 867.731 325.992C867.697 326.083 867.684 326.148 867.692 326.188V328.312H867.661C867.445 328.036 867.213 327.863 866.966 327.793C866.718 327.723 866.57 327.693 866.52 327.703C866.096 327.742 865.759 327.857 865.509 328.047C865.261 328.234 865.078 328.453 864.958 328.703C864.841 328.953 864.765 329.191 864.731 329.418C864.697 329.642 864.684 329.81 864.692 329.922C864.718 330.438 864.813 330.842 864.977 331.137C865.144 331.428 865.335 331.641 865.552 331.773C865.768 331.906 865.967 331.988 866.149 332.02C866.334 332.051 866.458 332.065 866.52 332.062C866.867 332.026 867.141 331.934 867.345 331.785C867.55 331.637 867.656 331.552 867.661 331.531H867.692V331.75ZM870.225 329.828C870.264 329.146 870.444 328.721 870.764 328.555C871.087 328.388 871.308 328.318 871.428 328.344C871.959 328.391 872.29 328.608 872.42 328.996C872.551 329.382 872.605 329.659 872.584 329.828C872.551 330.526 872.388 330.956 872.096 331.117C871.807 331.279 871.584 331.344 871.428 331.312C870.879 331.273 870.535 331.068 870.397 330.695C870.259 330.323 870.202 330.034 870.225 329.828ZM873.225 328.062C873.199 327.927 873.146 327.836 873.065 327.789C872.987 327.74 872.936 327.716 872.913 327.719C872.733 327.745 872.623 327.799 872.584 327.883C872.545 327.964 872.53 328.023 872.538 328.062V328.25H872.506C872.28 328.023 872.067 327.878 871.87 327.812C871.672 327.745 871.566 327.714 871.553 327.719C870.79 327.766 870.26 328.025 869.963 328.496C869.666 328.967 869.524 329.385 869.538 329.75C869.553 330.414 869.734 330.936 870.08 331.316C870.429 331.694 870.847 331.885 871.334 331.891C871.738 331.867 872.034 331.772 872.221 331.605C872.411 331.436 872.506 331.339 872.506 331.312H872.538V332.078C872.457 332.565 872.268 332.871 871.971 332.996C871.677 333.121 871.475 333.174 871.366 333.156C871.103 333.141 870.87 333.082 870.666 332.98C870.466 332.882 870.36 332.826 870.35 332.812C870.074 332.682 869.939 332.63 869.944 332.656C869.806 332.661 869.717 332.708 869.678 332.797C869.639 332.885 869.634 332.969 869.663 333.047C869.806 333.299 870.057 333.475 870.416 333.574C870.778 333.673 871.032 333.721 871.178 333.719C872.022 333.674 872.579 333.44 872.85 333.016C873.121 332.591 873.246 332.237 873.225 331.953V328.062ZM875.055 329.641C875.117 329.005 875.318 328.618 875.656 328.48C875.997 328.342 876.193 328.286 876.242 328.312C876.74 328.396 877.055 328.626 877.188 329.004C877.323 329.379 877.383 329.591 877.367 329.641H875.055ZM877.695 330.172C877.891 330.164 878.01 330.115 878.055 330.023C878.099 329.93 878.115 329.854 878.102 329.797C877.961 328.849 877.663 328.25 877.207 328C876.751 327.747 876.419 327.638 876.211 327.672C875.784 327.69 875.443 327.799 875.188 328C874.932 328.198 874.741 328.432 874.613 328.703C874.486 328.971 874.402 329.219 874.363 329.445C874.327 329.672 874.312 329.82 874.32 329.891C874.349 330.417 874.451 330.829 874.625 331.129C874.802 331.426 875.007 331.641 875.238 331.773C875.473 331.906 875.689 331.987 875.887 332.016C876.087 332.044 876.227 332.055 876.305 332.047C876.883 331.997 877.298 331.883 877.551 331.703C877.806 331.521 877.943 331.396 877.961 331.328C878.026 331.096 877.958 330.966 877.758 330.938C877.641 330.924 877.531 330.966 877.43 331.062C877.167 331.258 876.934 331.378 876.73 331.422C876.527 331.464 876.385 331.479 876.305 331.469C875.732 331.401 875.374 331.181 875.23 330.809C875.09 330.436 875.031 330.224 875.055 330.172H877.695Z" fill="black"/>
<path id="washing machine" d="M253.641 476.672C253.424 476.643 253.279 476.763 253.203 477.031L252.281 479.984L251.375 477.125C251.289 476.896 251.201 476.758 251.109 476.711C251.021 476.664 250.974 476.646 250.969 476.656C250.815 476.664 250.708 476.74 250.648 476.883C250.589 477.023 250.56 477.104 250.562 477.125L249.656 479.984L248.734 477.031C248.667 476.852 248.591 476.742 248.508 476.703C248.424 476.664 248.365 476.648 248.328 476.656C248.19 476.685 248.102 476.742 248.062 476.828C248.026 476.911 248.01 476.958 248.016 476.969C248.018 477.146 248.029 477.245 248.047 477.266L249.234 480.719C249.299 480.87 249.383 480.961 249.484 480.992C249.586 481.023 249.643 481.036 249.656 481.031C249.901 480.99 250.036 480.885 250.062 480.719L250.969 477.797L251.875 480.719C251.943 480.87 252.018 480.961 252.102 480.992C252.185 481.023 252.245 481.036 252.281 481.031C252.427 481.018 252.534 480.966 252.602 480.875C252.669 480.784 252.703 480.732 252.703 480.719L253.891 477.266C254.01 476.927 253.927 476.729 253.641 476.672ZM255.291 478.891C255.356 478.154 255.542 477.695 255.849 477.516C256.159 477.336 256.379 477.263 256.509 477.297C257.035 477.375 257.369 477.609 257.509 478C257.653 478.391 257.715 478.656 257.697 478.797C257.663 479.539 257.496 480.013 257.197 480.219C256.897 480.422 256.668 480.51 256.509 480.484C255.952 480.414 255.603 480.161 255.463 479.727C255.324 479.289 255.267 479.01 255.291 478.891ZM257.697 480.797C257.723 481.016 257.831 481.125 258.021 481.125C258.214 481.125 258.324 481.016 258.353 480.797V476.984C258.324 476.734 258.214 476.609 258.021 476.609C257.831 476.609 257.723 476.734 257.697 476.984V477.234C257.413 476.964 257.168 476.794 256.963 476.727C256.757 476.659 256.606 476.63 256.509 476.641C256.098 476.651 255.765 476.753 255.509 476.945C255.254 477.138 255.06 477.367 254.927 477.633C254.795 477.896 254.705 478.142 254.658 478.371C254.614 478.598 254.595 478.75 254.603 478.828C254.64 479.385 254.74 479.82 254.904 480.133C255.068 480.443 255.257 480.665 255.47 480.801C255.686 480.934 255.89 481.014 256.08 481.043C256.272 481.072 256.416 481.083 256.509 481.078C256.845 481.052 257.124 480.948 257.345 480.766C257.569 480.583 257.686 480.479 257.697 480.453V480.797ZM259.542 477.812C259.581 478.195 259.766 478.495 260.097 478.711C260.428 478.924 260.665 479.057 260.808 479.109C261.282 479.294 261.576 479.464 261.691 479.617C261.805 479.771 261.849 479.888 261.823 479.969C261.784 480.182 261.675 480.322 261.495 480.387C261.316 480.449 261.149 480.477 260.995 480.469C260.748 480.456 260.524 480.4 260.323 480.301C260.126 480.199 260.021 480.141 260.011 480.125C259.87 480.016 259.745 479.953 259.636 479.938C259.498 479.951 259.412 480.013 259.378 480.125C259.347 480.234 259.349 480.318 259.386 480.375C259.529 480.622 259.783 480.797 260.148 480.898C260.515 481 260.787 481.049 260.964 481.047C261.691 481.013 262.142 480.845 262.32 480.543C262.497 480.238 262.571 480.005 262.542 479.844C262.498 479.464 262.293 479.167 261.929 478.953C261.567 478.737 261.303 478.602 261.136 478.547C260.701 478.346 260.438 478.181 260.347 478.051C260.258 477.921 260.224 477.81 260.245 477.719C260.264 477.539 260.364 477.426 260.546 477.379C260.731 477.329 260.881 477.307 260.995 477.312C261.323 477.346 261.589 477.451 261.792 477.625C261.982 477.729 262.086 477.771 262.105 477.75C262.24 477.742 262.323 477.685 262.355 477.578C262.389 477.469 262.389 477.37 262.355 477.281C262.261 477.096 262.064 476.945 261.765 476.828C261.465 476.708 261.188 476.656 260.933 476.672C260.292 476.76 259.894 476.936 259.738 477.199C259.581 477.46 259.516 477.664 259.542 477.812ZM266.262 480.719C266.27 480.87 266.32 480.961 266.411 480.992C266.505 481.023 266.58 481.036 266.637 481.031C266.789 481.021 266.885 480.977 266.927 480.898C266.968 480.82 266.986 480.76 266.981 480.719V478.328C266.908 477.596 266.687 477.133 266.317 476.938C265.947 476.74 265.679 476.656 265.512 476.688C265.119 476.727 264.822 476.828 264.622 476.992C264.424 477.154 264.325 477.245 264.325 477.266H264.294V475.188C264.268 475.023 264.213 474.919 264.13 474.875C264.049 474.828 263.989 474.807 263.95 474.812C263.783 474.839 263.682 474.898 263.645 474.992C263.611 475.083 263.598 475.148 263.606 475.188V480.719C263.617 480.87 263.666 480.961 263.755 480.992C263.843 481.023 263.908 481.036 263.95 481.031C264.101 481.021 264.197 480.977 264.239 480.898C264.281 480.82 264.299 480.76 264.294 480.719V478.359C264.343 477.893 264.502 477.602 264.77 477.484C265.039 477.365 265.213 477.312 265.294 477.328C265.744 477.393 266.023 477.562 266.13 477.836C266.236 478.107 266.281 478.281 266.262 478.359V480.719ZM269.014 477.062C268.985 476.898 268.924 476.794 268.83 476.75C268.739 476.703 268.681 476.682 268.655 476.688C268.48 476.716 268.375 476.78 268.338 476.879C268.302 476.975 268.288 477.036 268.295 477.062V480.734C268.308 480.885 268.364 480.977 268.463 481.008C268.562 481.039 268.626 481.052 268.655 481.047C268.811 481.034 268.911 480.986 268.955 480.902C269 480.819 269.019 480.763 269.014 480.734V477.062ZM268.202 475.672C268.209 475.956 268.366 476.107 268.67 476.125C268.941 476.107 269.087 475.956 269.108 475.672C269.1 475.401 268.944 475.255 268.639 475.234C268.36 475.255 268.215 475.401 268.202 475.672ZM270.312 480.719C270.323 480.87 270.372 480.961 270.461 480.992C270.549 481.023 270.615 481.036 270.656 481.031C270.812 481.018 270.913 480.97 270.957 480.887C271.001 480.803 271.021 480.747 271.016 480.719V478.359C271.062 477.885 271.219 477.587 271.484 477.465C271.753 477.34 271.935 477.289 272.031 477.312C272.487 477.37 272.77 477.525 272.879 477.777C272.988 478.03 273.034 478.224 273.016 478.359V480.719C273.026 480.87 273.082 480.961 273.184 480.992C273.288 481.023 273.362 481.036 273.406 481.031C273.557 481.021 273.654 480.977 273.695 480.898C273.737 480.82 273.755 480.76 273.75 480.719V478.328C273.674 477.596 273.445 477.133 273.062 476.938C272.68 476.74 272.409 476.656 272.25 476.688C271.849 476.727 271.548 476.826 271.348 476.984C271.147 477.141 271.047 477.229 271.047 477.25H271.016V477.062C270.99 476.898 270.932 476.794 270.844 476.75C270.758 476.703 270.695 476.682 270.656 476.688C270.49 476.714 270.388 476.773 270.352 476.867C270.318 476.958 270.305 477.023 270.312 477.062V480.719ZM275.533 478.828C275.572 478.146 275.752 477.721 276.072 477.555C276.395 477.388 276.616 477.318 276.736 477.344C277.267 477.391 277.598 477.608 277.728 477.996C277.858 478.382 277.913 478.659 277.892 478.828C277.858 479.526 277.696 479.956 277.404 480.117C277.115 480.279 276.892 480.344 276.736 480.312C276.186 480.273 275.843 480.068 275.705 479.695C275.567 479.323 275.509 479.034 275.533 478.828ZM278.533 477.062C278.507 476.927 278.453 476.836 278.373 476.789C278.295 476.74 278.244 476.716 278.22 476.719C278.041 476.745 277.931 476.799 277.892 476.883C277.853 476.964 277.837 477.023 277.845 477.062V477.25H277.814C277.587 477.023 277.375 476.878 277.177 476.812C276.979 476.745 276.874 476.714 276.861 476.719C276.098 476.766 275.568 477.025 275.271 477.496C274.974 477.967 274.832 478.385 274.845 478.75C274.861 479.414 275.042 479.936 275.388 480.316C275.737 480.694 276.155 480.885 276.642 480.891C277.046 480.867 277.341 480.772 277.529 480.605C277.719 480.436 277.814 480.339 277.814 480.312H277.845V481.078C277.765 481.565 277.576 481.871 277.279 481.996C276.985 482.121 276.783 482.174 276.673 482.156C276.41 482.141 276.177 482.082 275.974 481.98C275.774 481.882 275.668 481.826 275.658 481.812C275.382 481.682 275.246 481.63 275.252 481.656C275.114 481.661 275.025 481.708 274.986 481.797C274.947 481.885 274.942 481.969 274.97 482.047C275.114 482.299 275.365 482.475 275.724 482.574C276.086 482.673 276.34 482.721 276.486 482.719C277.33 482.674 277.887 482.44 278.158 482.016C278.429 481.591 278.554 481.237 278.533 480.953V477.062ZM284.778 480.703C284.789 480.854 284.842 480.945 284.938 480.977C285.037 481.008 285.109 481.021 285.153 481.016C285.304 481.005 285.401 480.958 285.442 480.875C285.484 480.789 285.502 480.732 285.497 480.703V478.281C285.539 477.836 285.675 477.555 285.907 477.438C286.141 477.32 286.312 477.273 286.419 477.297C286.825 477.359 287.083 477.517 287.192 477.77C287.304 478.02 287.354 478.19 287.341 478.281V480.703C287.351 480.854 287.401 480.945 287.489 480.977C287.578 481.008 287.643 481.021 287.684 481.016C287.864 481.005 287.977 480.961 288.024 480.883C288.074 480.805 288.096 480.745 288.091 480.703V478.312C288.013 477.583 287.774 477.121 287.376 476.926C286.977 476.73 286.7 476.646 286.544 476.672C286.14 476.703 285.824 476.824 285.595 477.035C285.365 477.243 285.249 477.362 285.247 477.391C284.999 477.047 284.756 476.839 284.516 476.766C284.277 476.69 284.119 476.659 284.044 476.672C283.684 476.695 283.416 476.785 283.239 476.941C283.065 477.095 282.979 477.182 282.981 477.203L282.934 477.172V477.047C282.908 476.883 282.854 476.779 282.77 476.734C282.69 476.688 282.63 476.667 282.591 476.672C282.411 476.698 282.302 476.758 282.263 476.852C282.223 476.943 282.208 477.008 282.216 477.047V480.703C282.226 480.854 282.279 480.945 282.376 480.977C282.475 481.008 282.546 481.021 282.591 481.016C282.742 481.005 282.838 480.961 282.88 480.883C282.921 480.805 282.94 480.745 282.934 480.703V478.281C282.984 477.839 283.127 477.56 283.364 477.445C283.601 477.331 283.765 477.281 283.856 477.297C284.283 477.344 284.548 477.496 284.649 477.754C284.751 478.012 284.794 478.188 284.778 478.281V480.703ZM289.85 478.891C289.915 478.154 290.101 477.695 290.409 477.516C290.718 477.336 290.939 477.263 291.069 477.297C291.595 477.375 291.928 477.609 292.069 478C292.212 478.391 292.274 478.656 292.256 478.797C292.222 479.539 292.056 480.013 291.756 480.219C291.457 480.422 291.228 480.51 291.069 480.484C290.511 480.414 290.162 480.161 290.022 479.727C289.884 479.289 289.827 479.01 289.85 478.891ZM292.256 480.797C292.282 481.016 292.39 481.125 292.58 481.125C292.773 481.125 292.884 481.016 292.912 480.797V476.984C292.884 476.734 292.773 476.609 292.58 476.609C292.39 476.609 292.282 476.734 292.256 476.984V477.234C291.972 476.964 291.728 476.794 291.522 476.727C291.316 476.659 291.165 476.63 291.069 476.641C290.657 476.651 290.324 476.753 290.069 476.945C289.814 477.138 289.62 477.367 289.487 477.633C289.354 477.896 289.264 478.142 289.217 478.371C289.173 478.598 289.155 478.75 289.162 478.828C289.199 479.385 289.299 479.82 289.463 480.133C289.627 480.443 289.816 480.665 290.03 480.801C290.246 480.934 290.449 481.014 290.639 481.043C290.832 481.072 290.975 481.083 291.069 481.078C291.405 481.052 291.683 480.948 291.905 480.766C292.129 480.583 292.246 480.479 292.256 480.453V480.797ZM294.008 478.891C294.036 479.417 294.134 479.828 294.301 480.125C294.467 480.422 294.661 480.637 294.883 480.77C295.107 480.9 295.315 480.979 295.508 481.008C295.703 481.039 295.844 481.052 295.93 481.047C296.422 481.029 296.741 480.956 296.887 480.828C297.033 480.701 297.099 480.612 297.086 480.562C297.042 480.297 296.927 480.188 296.742 480.234C296.633 480.276 296.539 480.318 296.461 480.359C296.198 480.451 296.021 480.487 295.93 480.469C295.365 480.414 295.01 480.193 294.867 479.805C294.724 479.417 294.667 479.112 294.695 478.891C294.76 478.164 294.947 477.712 295.254 477.535C295.561 477.358 295.786 477.284 295.93 477.312C296.224 477.344 296.417 477.391 296.508 477.453C296.674 477.518 296.779 477.544 296.82 477.531C297.026 477.477 297.115 477.367 297.086 477.203C297.01 476.977 296.822 476.828 296.52 476.758C296.217 476.688 296.01 476.659 295.898 476.672C295.453 476.706 295.1 476.824 294.84 477.027C294.582 477.228 294.392 477.461 294.27 477.727C294.15 477.99 294.073 478.232 294.039 478.453C294.008 478.674 293.997 478.82 294.008 478.891ZM300.822 480.719C300.83 480.87 300.879 480.961 300.97 480.992C301.064 481.023 301.14 481.036 301.197 481.031C301.348 481.021 301.444 480.977 301.486 480.898C301.528 480.82 301.546 480.76 301.541 480.719V478.328C301.468 477.596 301.246 477.133 300.877 476.938C300.507 476.74 300.239 476.656 300.072 476.688C299.679 476.727 299.382 476.828 299.181 476.992C298.983 477.154 298.884 477.245 298.884 477.266H298.853V475.188C298.827 475.023 298.772 474.919 298.689 474.875C298.608 474.828 298.548 474.807 298.509 474.812C298.343 474.839 298.241 474.898 298.205 474.992C298.171 475.083 298.158 475.148 298.166 475.188V480.719C298.176 480.87 298.226 480.961 298.314 480.992C298.403 481.023 298.468 481.036 298.509 481.031C298.66 481.021 298.757 480.977 298.798 480.898C298.84 480.82 298.858 480.76 298.853 480.719V478.359C298.903 477.893 299.061 477.602 299.33 477.484C299.598 477.365 299.772 477.312 299.853 477.328C300.304 477.393 300.582 477.562 300.689 477.836C300.796 478.107 300.84 478.281 300.822 478.359V480.719ZM303.573 477.062C303.545 476.898 303.484 476.794 303.39 476.75C303.299 476.703 303.24 476.682 303.214 476.688C303.04 476.716 302.934 476.78 302.898 476.879C302.861 476.975 302.847 477.036 302.855 477.062V480.734C302.868 480.885 302.924 480.977 303.023 481.008C303.122 481.039 303.185 481.052 303.214 481.047C303.37 481.034 303.471 480.986 303.515 480.902C303.559 480.819 303.579 480.763 303.573 480.734V477.062ZM302.761 475.672C302.769 475.956 302.925 476.107 303.23 476.125C303.501 476.107 303.646 475.956 303.667 475.672C303.659 475.401 303.503 475.255 303.198 475.234C302.92 475.255 302.774 475.401 302.761 475.672ZM304.872 480.719C304.882 480.87 304.932 480.961 305.02 480.992C305.109 481.023 305.174 481.036 305.216 481.031C305.372 481.018 305.472 480.97 305.516 480.887C305.561 480.803 305.58 480.747 305.575 480.719V478.359C305.622 477.885 305.778 477.587 306.044 477.465C306.312 477.34 306.494 477.289 306.591 477.312C307.046 477.37 307.329 477.525 307.438 477.777C307.548 478.03 307.593 478.224 307.575 478.359V480.719C307.585 480.87 307.641 480.961 307.743 480.992C307.847 481.023 307.921 481.036 307.966 481.031C308.117 481.021 308.213 480.977 308.255 480.898C308.296 480.82 308.315 480.76 308.309 480.719V478.328C308.234 477.596 308.005 477.133 307.622 476.938C307.239 476.74 306.968 476.656 306.809 476.688C306.408 476.727 306.108 476.826 305.907 476.984C305.707 477.141 305.606 477.229 305.606 477.25H305.575V477.062C305.549 476.898 305.492 476.794 305.403 476.75C305.317 476.703 305.255 476.682 305.216 476.688C305.049 476.714 304.947 476.773 304.911 476.867C304.877 476.958 304.864 477.023 304.872 477.062V480.719ZM310.077 478.641C310.139 478.005 310.34 477.618 310.678 477.48C311.019 477.342 311.215 477.286 311.264 477.312C311.761 477.396 312.077 477.626 312.209 478.004C312.345 478.379 312.405 478.591 312.389 478.641H310.077ZM312.717 479.172C312.912 479.164 313.032 479.115 313.077 479.023C313.121 478.93 313.136 478.854 313.123 478.797C312.983 477.849 312.685 477.25 312.229 477C311.773 476.747 311.441 476.638 311.233 476.672C310.806 476.69 310.465 476.799 310.209 477C309.954 477.198 309.763 477.432 309.635 477.703C309.508 477.971 309.424 478.219 309.385 478.445C309.349 478.672 309.334 478.82 309.342 478.891C309.371 479.417 309.472 479.829 309.647 480.129C309.824 480.426 310.028 480.641 310.26 480.773C310.495 480.906 310.711 480.987 310.909 481.016C311.109 481.044 311.248 481.055 311.327 481.047C311.905 480.997 312.32 480.883 312.573 480.703C312.828 480.521 312.965 480.396 312.983 480.328C313.048 480.096 312.98 479.966 312.78 479.938C312.662 479.924 312.553 479.966 312.452 480.062C312.189 480.258 311.955 480.378 311.752 480.422C311.549 480.464 311.407 480.479 311.327 480.469C310.754 480.401 310.396 480.181 310.252 479.809C310.112 479.436 310.053 479.224 310.077 479.172H312.717Z" fill="black"/>
<path id="microwave" d="M670.953 25.7031C670.964 25.8542 671.017 25.9453 671.113 25.9766C671.212 26.0078 671.284 26.0208 671.328 26.0156C671.479 26.0052 671.576 25.9583 671.617 25.875C671.659 25.7891 671.677 25.7318 671.672 25.7031V23.2812C671.714 22.8359 671.85 22.5547 672.082 22.4375C672.316 22.3203 672.487 22.2734 672.594 22.2969C673 22.3594 673.258 22.5169 673.367 22.7695C673.479 23.0195 673.529 23.1901 673.516 23.2812V25.7031C673.526 25.8542 673.576 25.9453 673.664 25.9766C673.753 26.0078 673.818 26.0208 673.859 26.0156C674.039 26.0052 674.152 25.9609 674.199 25.8828C674.249 25.8047 674.271 25.7448 674.266 25.7031V23.3125C674.188 22.5833 673.949 22.1211 673.551 21.9258C673.152 21.7305 672.875 21.6458 672.719 21.6719C672.315 21.7031 671.999 21.8242 671.77 22.0352C671.54 22.2435 671.424 22.362 671.422 22.3906C671.174 22.0469 670.931 21.8385 670.691 21.7656C670.452 21.6901 670.294 21.6589 670.219 21.6719C669.859 21.6953 669.591 21.7852 669.414 21.9414C669.24 22.0951 669.154 22.1823 669.156 22.2031L669.109 22.1719V22.0469C669.083 21.8828 669.029 21.7786 668.945 21.7344C668.865 21.6875 668.805 21.6667 668.766 21.6719C668.586 21.6979 668.477 21.7578 668.438 21.8516C668.398 21.9427 668.383 22.0078 668.391 22.0469V25.7031C668.401 25.8542 668.454 25.9453 668.551 25.9766C668.65 26.0078 668.721 26.0208 668.766 26.0156C668.917 26.0052 669.013 25.9609 669.055 25.8828C669.096 25.8047 669.115 25.7448 669.109 25.7031V23.2812C669.159 22.8385 669.302 22.5599 669.539 22.4453C669.776 22.3307 669.94 22.2812 670.031 22.2969C670.458 22.3438 670.723 22.4961 670.824 22.7539C670.926 23.0117 670.969 23.1875 670.953 23.2812V25.7031ZM676.244 22.0625C676.215 21.8984 676.154 21.7943 676.06 21.75C675.969 21.7031 675.91 21.6823 675.884 21.6875C675.71 21.7161 675.604 21.7799 675.568 21.8789C675.532 21.9753 675.517 22.0365 675.525 22.0625V25.7344C675.538 25.8854 675.594 25.9766 675.693 26.0078C675.792 26.0391 675.856 26.0521 675.884 26.0469C676.041 26.0339 676.141 25.9857 676.185 25.9023C676.229 25.819 676.249 25.763 676.244 25.7344V22.0625ZM675.431 20.6719C675.439 20.9557 675.595 21.1068 675.9 21.125C676.171 21.1068 676.317 20.9557 676.338 20.6719C676.33 20.401 676.173 20.2552 675.869 20.2344C675.59 20.2552 675.444 20.401 675.431 20.6719ZM677.37 23.8906C677.399 24.4167 677.497 24.8281 677.663 25.125C677.83 25.4219 678.024 25.6367 678.245 25.7695C678.469 25.8997 678.678 25.9792 678.87 26.0078C679.066 26.0391 679.206 26.0521 679.292 26.0469C679.784 26.0286 680.103 25.9557 680.249 25.8281C680.395 25.7005 680.461 25.612 680.448 25.5625C680.404 25.2969 680.29 25.1875 680.105 25.2344C679.995 25.276 679.902 25.3177 679.823 25.3594C679.56 25.4505 679.383 25.487 679.292 25.4688C678.727 25.4141 678.373 25.1927 678.23 24.8047C678.086 24.4167 678.029 24.112 678.058 23.8906C678.123 23.1641 678.309 22.7122 678.616 22.5352C678.924 22.3581 679.149 22.2839 679.292 22.3125C679.586 22.3438 679.779 22.3906 679.87 22.4531C680.037 22.5182 680.141 22.5443 680.183 22.5312C680.389 22.4766 680.477 22.3672 680.448 22.2031C680.373 21.9766 680.184 21.8281 679.882 21.7578C679.58 21.6875 679.373 21.6589 679.261 21.6719C678.816 21.7057 678.463 21.8242 678.202 22.0273C677.945 22.2279 677.754 22.4609 677.632 22.7266C677.512 22.9896 677.435 23.2318 677.402 23.4531C677.37 23.6745 677.36 23.8203 677.37 23.8906ZM681.481 25.7344C681.492 25.8854 681.541 25.9766 681.63 26.0078C681.718 26.0391 681.783 26.0521 681.825 26.0469C681.981 26.0365 682.082 25.9922 682.126 25.9141C682.17 25.8359 682.19 25.776 682.184 25.7344V23.6719C682.223 23.1771 682.381 22.8451 682.657 22.6758C682.936 22.5065 683.096 22.4271 683.137 22.4375C683.346 22.3854 683.472 22.3099 683.516 22.2109C683.563 22.1094 683.583 22.0234 683.575 21.9531C683.528 21.7266 683.403 21.6328 683.2 21.6719C682.89 21.7318 682.649 21.8685 682.477 22.082C682.305 22.293 682.218 22.4115 682.216 22.4375H682.184V22.0469C682.158 21.8828 682.101 21.7786 682.012 21.7344C681.927 21.6875 681.864 21.6667 681.825 21.6719C681.658 21.6979 681.557 21.7578 681.52 21.8516C681.486 21.9427 681.473 22.0078 681.481 22.0469V25.7344ZM684.967 23.8281C685.019 23.1302 685.196 22.6966 685.498 22.5273C685.803 22.3581 686.006 22.2865 686.108 22.3125C686.642 22.3568 686.98 22.5742 687.123 22.9648C687.267 23.3529 687.329 23.6615 687.311 23.8906C687.269 24.6198 687.088 25.0729 686.768 25.25C686.45 25.4271 686.241 25.5 686.139 25.4688C685.59 25.4063 685.251 25.168 685.123 24.7539C684.996 24.3398 684.944 24.0313 684.967 23.8281ZM684.248 23.9219C684.308 24.8047 684.54 25.388 684.944 25.6719C685.35 25.9531 685.748 26.0781 686.139 26.0469C686.569 26.0234 686.91 25.9232 687.163 25.7461C687.418 25.569 687.608 25.3581 687.733 25.1133C687.858 24.8659 687.939 24.6302 687.975 24.4063C688.014 24.1797 688.032 24.0078 688.03 23.8906C687.98 22.9635 687.726 22.3542 687.268 22.0625C686.812 21.7708 686.436 21.6406 686.139 21.6719C685.355 21.7474 684.837 22.0508 684.584 22.582C684.332 23.1133 684.22 23.5599 684.248 23.9219ZM694.328 21.6719C694.112 21.6432 693.966 21.763 693.891 22.0313L692.969 24.9844L692.062 22.125C691.977 21.8958 691.888 21.7578 691.797 21.7109C691.708 21.6641 691.661 21.6458 691.656 21.6563C691.503 21.6641 691.396 21.7396 691.336 21.8828C691.276 22.0234 691.247 22.1042 691.25 22.125L690.344 24.9844L689.422 22.0313C689.354 21.8516 689.279 21.7422 689.195 21.7031C689.112 21.6641 689.052 21.6484 689.016 21.6563C688.878 21.6849 688.789 21.7422 688.75 21.8281C688.714 21.9115 688.698 21.9583 688.703 21.9688C688.706 22.1458 688.716 22.2448 688.734 22.2656L689.922 25.7188C689.987 25.8698 690.07 25.9609 690.172 25.9922C690.273 26.0234 690.331 26.0365 690.344 26.0313C690.589 25.9896 690.724 25.8854 690.75 25.7188L691.656 22.7969L692.562 25.7188C692.63 25.8698 692.706 25.9609 692.789 25.9922C692.872 26.0234 692.932 26.0365 692.969 26.0313C693.115 26.0182 693.221 25.9661 693.289 25.875C693.357 25.7839 693.391 25.7318 693.391 25.7188L694.578 22.2656C694.698 21.9271 694.615 21.7292 694.328 21.6719ZM695.978 23.8906C696.043 23.1536 696.229 22.6953 696.537 22.5156C696.847 22.3359 697.067 22.263 697.197 22.2969C697.723 22.375 698.056 22.6094 698.197 23C698.34 23.3906 698.403 23.6563 698.384 23.7969C698.351 24.5391 698.184 25.013 697.884 25.2188C697.585 25.4219 697.356 25.5104 697.197 25.4844C696.64 25.4141 696.291 25.1615 696.15 24.7266C696.012 24.2891 695.955 24.0104 695.978 23.8906ZM698.384 25.7969C698.41 26.0156 698.518 26.125 698.709 26.125C698.901 26.125 699.012 26.0156 699.041 25.7969V21.9844C699.012 21.7344 698.901 21.6094 698.709 21.6094C698.518 21.6094 698.41 21.7344 698.384 21.9844V22.2344C698.101 21.9635 697.856 21.7943 697.65 21.7266C697.444 21.6589 697.293 21.6302 697.197 21.6406C696.785 21.651 696.452 21.7526 696.197 21.9453C695.942 22.138 695.748 22.3672 695.615 22.6328C695.482 22.8958 695.392 23.1419 695.345 23.3711C695.301 23.5977 695.283 23.75 695.291 23.8281C695.327 24.3854 695.427 24.8203 695.591 25.1328C695.755 25.4427 695.944 25.6654 696.158 25.8008C696.374 25.9336 696.577 26.0143 696.767 26.043C696.96 26.0716 697.103 26.0833 697.197 26.0781C697.533 26.0521 697.811 25.9479 698.033 25.7656C698.257 25.5833 698.374 25.4792 698.384 25.4531V25.7969ZM700.167 21.7031C699.902 21.7578 699.839 21.9609 699.98 22.3125L701.214 25.7969C701.269 25.9167 701.342 25.9896 701.433 26.0156C701.527 26.0417 701.579 26.0521 701.589 26.0469C701.711 26.0365 701.799 25.9948 701.851 25.9219C701.905 25.849 701.933 25.8073 701.933 25.7969L703.167 22.3125C703.227 22.1536 703.251 22.0169 703.237 21.9023C703.224 21.7852 703.128 21.7083 702.948 21.6719C702.711 21.6771 702.576 21.7917 702.542 22.0156L701.589 24.9375H701.558L700.573 21.9531C700.54 21.7526 700.404 21.6693 700.167 21.7031ZM704.614 23.6406C704.677 23.0052 704.877 22.6185 705.216 22.4805C705.557 22.3424 705.752 22.2865 705.802 22.3125C706.299 22.3958 706.614 22.6263 706.747 23.0039C706.882 23.3789 706.942 23.5911 706.927 23.6406H704.614ZM707.255 24.1719C707.45 24.1641 707.57 24.1146 707.614 24.0234C707.658 23.9297 707.674 23.8542 707.661 23.7969C707.52 22.849 707.222 22.25 706.766 22C706.311 21.7474 705.979 21.638 705.77 21.6719C705.343 21.6901 705.002 21.7995 704.747 22C704.492 22.1979 704.3 22.4323 704.173 22.7031C704.045 22.9714 703.962 23.2188 703.923 23.4453C703.886 23.6719 703.872 23.8203 703.88 23.8906C703.908 24.4167 704.01 24.8294 704.184 25.1289C704.361 25.4258 704.566 25.6406 704.798 25.7734C705.032 25.9063 705.248 25.987 705.446 26.0156C705.647 26.0443 705.786 26.0547 705.864 26.0469C706.442 25.9974 706.858 25.8828 707.11 25.7031C707.365 25.5208 707.502 25.3958 707.52 25.3281C707.585 25.0964 707.518 24.9661 707.317 24.9375C707.2 24.9245 707.091 24.9661 706.989 25.0625C706.726 25.2578 706.493 25.3776 706.29 25.4219C706.087 25.4635 705.945 25.4792 705.864 25.4688C705.291 25.401 704.933 25.181 704.79 24.8086C704.649 24.4362 704.591 24.224 704.614 24.1719H707.255Z" fill="black"/>
<path id="cooker" d="M873.266 210.891C873.294 211.417 873.392 211.828 873.559 212.125C873.725 212.422 873.919 212.637 874.141 212.77C874.365 212.9 874.573 212.979 874.766 213.008C874.961 213.039 875.102 213.052 875.188 213.047C875.68 213.029 875.999 212.956 876.145 212.828C876.29 212.701 876.357 212.612 876.344 212.562C876.299 212.297 876.185 212.188 876 212.234C875.891 212.276 875.797 212.318 875.719 212.359C875.456 212.451 875.279 212.487 875.188 212.469C874.622 212.414 874.268 212.193 874.125 211.805C873.982 211.417 873.924 211.112 873.953 210.891C874.018 210.164 874.204 209.712 874.512 209.535C874.819 209.358 875.044 209.284 875.188 209.312C875.482 209.344 875.674 209.391 875.766 209.453C875.932 209.518 876.036 209.544 876.078 209.531C876.284 209.477 876.372 209.367 876.344 209.203C876.268 208.977 876.079 208.828 875.777 208.758C875.475 208.688 875.268 208.659 875.156 208.672C874.711 208.706 874.358 208.824 874.098 209.027C873.84 209.228 873.65 209.461 873.527 209.727C873.408 209.99 873.331 210.232 873.297 210.453C873.266 210.674 873.255 210.82 873.266 210.891ZM877.939 210.828C877.991 210.13 878.168 209.697 878.47 209.527C878.775 209.358 878.978 209.286 879.08 209.312C879.614 209.357 879.952 209.574 880.095 209.965C880.239 210.353 880.301 210.661 880.283 210.891C880.241 211.62 880.06 212.073 879.74 212.25C879.422 212.427 879.213 212.5 879.111 212.469C878.561 212.406 878.223 212.168 878.095 211.754C877.968 211.34 877.916 211.031 877.939 210.828ZM877.22 210.922C877.28 211.805 877.512 212.388 877.916 212.672C878.322 212.953 878.72 213.078 879.111 213.047C879.541 213.023 879.882 212.923 880.134 212.746C880.39 212.569 880.58 212.358 880.705 212.113C880.83 211.866 880.91 211.63 880.947 211.406C880.986 211.18 881.004 211.008 881.002 210.891C880.952 209.964 880.698 209.354 880.24 209.062C879.784 208.771 879.408 208.641 879.111 208.672C878.327 208.747 877.809 209.051 877.556 209.582C877.304 210.113 877.192 210.56 877.22 210.922ZM882.644 210.828C882.696 210.13 882.873 209.697 883.175 209.527C883.48 209.358 883.683 209.286 883.784 209.312C884.318 209.357 884.657 209.574 884.8 209.965C884.943 210.353 885.006 210.661 884.988 210.891C884.946 211.62 884.765 212.073 884.445 212.25C884.127 212.427 883.917 212.5 883.816 212.469C883.266 212.406 882.928 212.168 882.8 211.754C882.672 211.34 882.62 211.031 882.644 210.828ZM881.925 210.922C881.985 211.805 882.217 212.388 882.62 212.672C883.027 212.953 883.425 213.078 883.816 213.047C884.245 213.023 884.586 212.923 884.839 212.746C885.094 212.569 885.284 212.358 885.409 212.113C885.534 211.866 885.615 211.63 885.652 211.406C885.691 211.18 885.709 211.008 885.706 210.891C885.657 209.964 885.403 209.354 884.945 209.062C884.489 208.771 884.113 208.641 883.816 208.672C883.032 208.747 882.514 209.051 882.261 209.582C882.008 210.113 881.896 210.56 881.925 210.922ZM889.598 209.297C889.874 209.021 889.854 208.823 889.536 208.703C889.481 208.693 889.404 208.71 889.305 208.754C889.209 208.796 889.135 208.841 889.083 208.891L887.505 210.188V207.141C887.476 206.977 887.414 206.872 887.317 206.828C887.223 206.781 887.171 206.76 887.161 206.766C886.994 206.797 886.893 206.865 886.856 206.969C886.822 207.07 886.809 207.128 886.817 207.141V212.734C886.828 212.885 886.877 212.977 886.966 213.008C887.054 213.039 887.119 213.052 887.161 213.047C887.312 213.036 887.408 212.992 887.45 212.914C887.492 212.836 887.51 212.776 887.505 212.734V210.984L889.317 212.891C889.591 213.141 889.809 213.141 889.973 212.891C890.033 212.708 889.992 212.557 889.848 212.438L887.989 210.578L889.598 209.297ZM891.405 210.641C891.467 210.005 891.668 209.618 892.006 209.48C892.347 209.342 892.543 209.286 892.592 209.312C893.09 209.396 893.405 209.626 893.538 210.004C893.673 210.379 893.733 210.591 893.717 210.641H891.405ZM894.045 211.172C894.241 211.164 894.36 211.115 894.405 211.023C894.449 210.93 894.465 210.854 894.452 210.797C894.311 209.849 894.013 209.25 893.557 209C893.101 208.747 892.769 208.638 892.561 208.672C892.134 208.69 891.793 208.799 891.538 209C891.282 209.198 891.091 209.432 890.963 209.703C890.836 209.971 890.752 210.219 890.713 210.445C890.677 210.672 890.663 210.82 890.67 210.891C890.699 211.417 890.801 211.829 890.975 212.129C891.152 212.426 891.357 212.641 891.588 212.773C891.823 212.906 892.039 212.987 892.237 213.016C892.437 213.044 892.577 213.055 892.655 213.047C893.233 212.997 893.648 212.883 893.901 212.703C894.156 212.521 894.293 212.396 894.311 212.328C894.376 212.096 894.308 211.966 894.108 211.938C893.991 211.924 893.881 211.966 893.78 212.062C893.517 212.258 893.284 212.378 893.08 212.422C892.877 212.464 892.735 212.479 892.655 212.469C892.082 212.401 891.724 212.181 891.58 211.809C891.44 211.436 891.381 211.224 891.405 211.172H894.045ZM895.445 212.734C895.456 212.885 895.505 212.977 895.594 213.008C895.682 213.039 895.747 213.052 895.789 213.047C895.945 213.036 896.046 212.992 896.09 212.914C896.134 212.836 896.154 212.776 896.148 212.734V210.672C896.188 210.177 896.345 209.845 896.621 209.676C896.9 209.507 897.06 209.427 897.102 209.438C897.31 209.385 897.436 209.31 897.48 209.211C897.527 209.109 897.547 209.023 897.539 208.953C897.492 208.727 897.367 208.633 897.164 208.672C896.854 208.732 896.613 208.868 896.441 209.082C896.27 209.293 896.182 209.411 896.18 209.438H896.148V209.047C896.122 208.883 896.065 208.779 895.977 208.734C895.891 208.688 895.828 208.667 895.789 208.672C895.622 208.698 895.521 208.758 895.484 208.852C895.451 208.943 895.438 209.008 895.445 209.047V212.734Z" fill="black"/>
<path id="dish washer" d="M877.328 232.922C877.258 233.667 877.069 234.124 876.762 234.293C876.457 234.462 876.255 234.531 876.156 234.5C875.604 234.443 875.258 234.22 875.117 233.832C874.979 233.441 874.924 233.138 874.953 232.922C875.013 232.193 875.186 231.74 875.473 231.562C875.759 231.383 875.987 231.31 876.156 231.344C876.69 231.422 877.025 231.66 877.16 232.059C877.298 232.457 877.354 232.745 877.328 232.922ZM877.266 234.75C877.273 234.901 877.318 234.992 877.398 235.023C877.482 235.055 877.552 235.068 877.609 235.062C877.76 235.055 877.857 235.014 877.898 234.941C877.94 234.868 877.958 234.805 877.953 234.75V229.188C877.93 229.023 877.878 228.919 877.797 228.875C877.716 228.828 877.654 228.807 877.609 228.812C877.443 228.839 877.341 228.898 877.305 228.992C877.271 229.083 877.258 229.148 877.266 229.188V231.312H877.234C877.018 231.036 876.786 230.863 876.539 230.793C876.292 230.723 876.143 230.693 876.094 230.703C875.669 230.742 875.332 230.857 875.082 231.047C874.835 231.234 874.651 231.453 874.531 231.703C874.414 231.953 874.339 232.191 874.305 232.418C874.271 232.642 874.258 232.81 874.266 232.922C874.292 233.438 874.387 233.842 874.551 234.137C874.717 234.428 874.909 234.641 875.125 234.773C875.341 234.906 875.54 234.988 875.723 235.02C875.908 235.051 876.031 235.065 876.094 235.062C876.44 235.026 876.715 234.934 876.918 234.785C877.124 234.637 877.229 234.552 877.234 234.531H877.266V234.75ZM880.017 231.062C879.989 230.898 879.927 230.794 879.834 230.75C879.742 230.703 879.684 230.682 879.658 230.688C879.483 230.716 879.378 230.78 879.341 230.879C879.305 230.975 879.291 231.036 879.298 231.062V234.734C879.311 234.885 879.367 234.977 879.466 235.008C879.565 235.039 879.629 235.052 879.658 235.047C879.814 235.034 879.914 234.986 879.959 234.902C880.003 234.819 880.022 234.763 880.017 234.734V231.062ZM879.205 229.672C879.213 229.956 879.369 230.107 879.673 230.125C879.944 230.107 880.09 229.956 880.111 229.672C880.103 229.401 879.947 229.255 879.642 229.234C879.364 229.255 879.218 229.401 879.205 229.672ZM881.238 231.812C881.277 232.195 881.461 232.495 881.792 232.711C882.123 232.924 882.36 233.057 882.503 233.109C882.977 233.294 883.271 233.464 883.386 233.617C883.501 233.771 883.545 233.888 883.519 233.969C883.48 234.182 883.37 234.322 883.191 234.387C883.011 234.449 882.844 234.477 882.691 234.469C882.443 234.456 882.219 234.4 882.019 234.301C881.821 234.199 881.717 234.141 881.706 234.125C881.566 234.016 881.441 233.953 881.331 233.938C881.193 233.951 881.107 234.013 881.073 234.125C881.042 234.234 881.045 234.318 881.081 234.375C881.224 234.622 881.478 234.797 881.843 234.898C882.21 235 882.482 235.049 882.659 235.047C883.386 235.013 883.838 234.845 884.015 234.543C884.192 234.238 884.266 234.005 884.238 233.844C884.193 233.464 883.989 233.167 883.624 232.953C883.262 232.737 882.998 232.602 882.831 232.547C882.396 232.346 882.133 232.181 882.042 232.051C881.954 231.921 881.92 231.81 881.941 231.719C881.959 231.539 882.059 231.426 882.241 231.379C882.426 231.329 882.576 231.307 882.691 231.312C883.019 231.346 883.284 231.451 883.488 231.625C883.678 231.729 883.782 231.771 883.8 231.75C883.935 231.742 884.019 231.685 884.05 231.578C884.084 231.469 884.084 231.37 884.05 231.281C883.956 231.096 883.76 230.945 883.46 230.828C883.161 230.708 882.883 230.656 882.628 230.672C881.988 230.76 881.589 230.936 881.433 231.199C881.277 231.46 881.211 231.664 881.238 231.812ZM887.958 234.719C887.966 234.87 888.015 234.961 888.106 234.992C888.2 235.023 888.276 235.036 888.333 235.031C888.484 235.021 888.58 234.977 888.622 234.898C888.664 234.82 888.682 234.76 888.677 234.719V232.328C888.604 231.596 888.382 231.133 888.012 230.938C887.643 230.74 887.374 230.656 887.208 230.688C886.815 230.727 886.518 230.828 886.317 230.992C886.119 231.154 886.02 231.245 886.02 231.266H885.989V229.188C885.963 229.023 885.908 228.919 885.825 228.875C885.744 228.828 885.684 228.807 885.645 228.812C885.479 228.839 885.377 228.898 885.341 228.992C885.307 229.083 885.294 229.148 885.302 229.188V234.719C885.312 234.87 885.361 234.961 885.45 234.992C885.539 235.023 885.604 235.036 885.645 235.031C885.796 235.021 885.893 234.977 885.934 234.898C885.976 234.82 885.994 234.76 885.989 234.719V232.359C886.039 231.893 886.197 231.602 886.466 231.484C886.734 231.365 886.908 231.312 886.989 231.328C887.44 231.393 887.718 231.562 887.825 231.836C887.932 232.107 887.976 232.281 887.958 232.359V234.719ZM897.578 230.672C897.362 230.643 897.216 230.763 897.141 231.031L896.219 233.984L895.312 231.125C895.227 230.896 895.138 230.758 895.047 230.711C894.958 230.664 894.911 230.646 894.906 230.656C894.753 230.664 894.646 230.74 894.586 230.883C894.526 231.023 894.497 231.104 894.5 231.125L893.594 233.984L892.672 231.031C892.604 230.852 892.529 230.742 892.445 230.703C892.362 230.664 892.302 230.648 892.266 230.656C892.128 230.685 892.039 230.742 892 230.828C891.964 230.911 891.948 230.958 891.953 230.969C891.956 231.146 891.966 231.245 891.984 231.266L893.172 234.719C893.237 234.87 893.32 234.961 893.422 234.992C893.523 235.023 893.581 235.036 893.594 235.031C893.839 234.99 893.974 234.885 894 234.719L894.906 231.797L895.812 234.719C895.88 234.87 895.956 234.961 896.039 234.992C896.122 235.023 896.182 235.036 896.219 235.031C896.365 235.018 896.471 234.966 896.539 234.875C896.607 234.784 896.641 234.732 896.641 234.719L897.828 231.266C897.948 230.927 897.865 230.729 897.578 230.672ZM899.228 232.891C899.293 232.154 899.479 231.695 899.787 231.516C900.097 231.336 900.317 231.263 900.447 231.297C900.973 231.375 901.306 231.609 901.447 232C901.59 232.391 901.653 232.656 901.634 232.797C901.601 233.539 901.434 234.013 901.134 234.219C900.835 234.422 900.606 234.51 900.447 234.484C899.89 234.414 899.541 234.161 899.4 233.727C899.262 233.289 899.205 233.01 899.228 232.891ZM901.634 234.797C901.66 235.016 901.768 235.125 901.959 235.125C902.151 235.125 902.262 235.016 902.291 234.797V230.984C902.262 230.734 902.151 230.609 901.959 230.609C901.768 230.609 901.66 230.734 901.634 230.984V231.234C901.351 230.964 901.106 230.794 900.9 230.727C900.694 230.659 900.543 230.63 900.447 230.641C900.035 230.651 899.702 230.753 899.447 230.945C899.192 231.138 898.998 231.367 898.865 231.633C898.732 231.896 898.642 232.142 898.595 232.371C898.551 232.598 898.533 232.75 898.541 232.828C898.577 233.385 898.677 233.82 898.841 234.133C899.005 234.443 899.194 234.665 899.408 234.801C899.624 234.934 899.827 235.014 900.017 235.043C900.21 235.072 900.353 235.083 900.447 235.078C900.783 235.052 901.061 234.948 901.283 234.766C901.507 234.583 901.624 234.479 901.634 234.453V234.797ZM903.48 231.812C903.519 232.195 903.704 232.495 904.034 232.711C904.365 232.924 904.602 233.057 904.745 233.109C905.219 233.294 905.514 233.464 905.628 233.617C905.743 233.771 905.787 233.888 905.761 233.969C905.722 234.182 905.612 234.322 905.433 234.387C905.253 234.449 905.086 234.477 904.933 234.469C904.685 234.456 904.461 234.4 904.261 234.301C904.063 234.199 903.959 234.141 903.948 234.125C903.808 234.016 903.683 233.953 903.573 233.938C903.435 233.951 903.349 234.013 903.316 234.125C903.284 234.234 903.287 234.318 903.323 234.375C903.467 234.622 903.721 234.797 904.085 234.898C904.452 235 904.724 235.049 904.902 235.047C905.628 235.013 906.08 234.845 906.257 234.543C906.434 234.238 906.508 234.005 906.48 233.844C906.435 233.464 906.231 233.167 905.866 232.953C905.504 232.737 905.24 232.602 905.073 232.547C904.639 232.346 904.376 232.181 904.284 232.051C904.196 231.921 904.162 231.81 904.183 231.719C904.201 231.539 904.301 231.426 904.484 231.379C904.668 231.329 904.818 231.307 904.933 231.312C905.261 231.346 905.527 231.451 905.73 231.625C905.92 231.729 906.024 231.771 906.042 231.75C906.178 231.742 906.261 231.685 906.292 231.578C906.326 231.469 906.326 231.37 906.292 231.281C906.198 231.096 906.002 230.945 905.702 230.828C905.403 230.708 905.126 230.656 904.87 230.672C904.23 230.76 903.831 230.936 903.675 231.199C903.519 231.46 903.454 231.664 903.48 231.812ZM910.2 234.719C910.208 234.87 910.257 234.961 910.348 234.992C910.442 235.023 910.518 235.036 910.575 235.031C910.726 235.021 910.822 234.977 910.864 234.898C910.906 234.82 910.924 234.76 910.919 234.719V232.328C910.846 231.596 910.624 231.133 910.255 230.938C909.885 230.74 909.617 230.656 909.45 230.688C909.057 230.727 908.76 230.828 908.559 230.992C908.361 231.154 908.263 231.245 908.263 231.266H908.231V229.188C908.205 229.023 908.151 228.919 908.067 228.875C907.986 228.828 907.927 228.807 907.888 228.812C907.721 228.839 907.619 228.898 907.583 228.992C907.549 229.083 907.536 229.148 907.544 229.188V234.719C907.554 234.87 907.604 234.961 907.692 234.992C907.781 235.023 907.846 235.036 907.888 235.031C908.039 235.021 908.135 234.977 908.177 234.898C908.218 234.82 908.236 234.76 908.231 234.719V232.359C908.281 231.893 908.44 231.602 908.708 231.484C908.976 231.365 909.151 231.312 909.231 231.328C909.682 231.393 909.96 231.562 910.067 231.836C910.174 232.107 910.218 232.281 910.2 232.359V234.719ZM912.717 232.641C912.78 232.005 912.98 231.618 913.319 231.48C913.66 231.342 913.855 231.286 913.905 231.312C914.402 231.396 914.717 231.626 914.85 232.004C914.985 232.379 915.045 232.591 915.03 232.641H912.717ZM915.358 233.172C915.553 233.164 915.673 233.115 915.717 233.023C915.761 232.93 915.777 232.854 915.764 232.797C915.623 231.849 915.325 231.25 914.87 231C914.414 230.747 914.082 230.638 913.873 230.672C913.446 230.69 913.105 230.799 912.85 231C912.595 231.198 912.403 231.432 912.276 231.703C912.148 231.971 912.065 232.219 912.026 232.445C911.989 232.672 911.975 232.82 911.983 232.891C912.011 233.417 912.113 233.829 912.287 234.129C912.465 234.426 912.669 234.641 912.901 234.773C913.135 234.906 913.351 234.987 913.549 235.016C913.75 235.044 913.889 235.055 913.967 235.047C914.545 234.997 914.961 234.883 915.213 234.703C915.468 234.521 915.605 234.396 915.623 234.328C915.689 234.096 915.621 233.966 915.42 233.938C915.303 233.924 915.194 233.966 915.092 234.062C914.829 234.258 914.596 234.378 914.393 234.422C914.19 234.464 914.048 234.479 913.967 234.469C913.394 234.401 913.036 234.181 912.893 233.809C912.752 233.436 912.694 233.224 912.717 233.172H915.358ZM916.758 234.734C916.768 234.885 916.818 234.977 916.906 235.008C916.995 235.039 917.06 235.052 917.102 235.047C917.258 235.036 917.358 234.992 917.402 234.914C917.447 234.836 917.466 234.776 917.461 234.734V232.672C917.5 232.177 917.658 231.845 917.934 231.676C918.212 231.507 918.372 231.427 918.414 231.438C918.622 231.385 918.749 231.31 918.793 231.211C918.84 231.109 918.859 231.023 918.852 230.953C918.805 230.727 918.68 230.633 918.477 230.672C918.167 230.732 917.926 230.868 917.754 231.082C917.582 231.293 917.495 231.411 917.492 231.438H917.461V231.047C917.435 230.883 917.378 230.779 917.289 230.734C917.203 230.688 917.141 230.667 917.102 230.672C916.935 230.698 916.833 230.758 916.797 230.852C916.763 230.943 916.75 231.008 916.758 231.047V234.734Z" fill="black"/>
<path id="dryer" d="M251.328 567.922C251.258 568.667 251.069 569.124 250.762 569.293C250.457 569.462 250.255 569.531 250.156 569.5C249.604 569.443 249.258 569.22 249.117 568.832C248.979 568.441 248.924 568.138 248.953 567.922C249.013 567.193 249.186 566.74 249.473 566.562C249.759 566.383 249.987 566.31 250.156 566.344C250.69 566.422 251.025 566.66 251.16 567.059C251.298 567.457 251.354 567.745 251.328 567.922ZM251.266 569.75C251.273 569.901 251.318 569.992 251.398 570.023C251.482 570.055 251.552 570.068 251.609 570.062C251.76 570.055 251.857 570.014 251.898 569.941C251.94 569.868 251.958 569.805 251.953 569.75V564.188C251.93 564.023 251.878 563.919 251.797 563.875C251.716 563.828 251.654 563.807 251.609 563.812C251.443 563.839 251.341 563.898 251.305 563.992C251.271 564.083 251.258 564.148 251.266 564.188V566.312H251.234C251.018 566.036 250.786 565.863 250.539 565.793C250.292 565.723 250.143 565.693 250.094 565.703C249.669 565.742 249.332 565.857 249.082 566.047C248.835 566.234 248.651 566.453 248.531 566.703C248.414 566.953 248.339 567.191 248.305 567.418C248.271 567.642 248.258 567.81 248.266 567.922C248.292 568.438 248.387 568.842 248.551 569.137C248.717 569.428 248.909 569.641 249.125 569.773C249.341 569.906 249.54 569.988 249.723 570.02C249.908 570.051 250.031 570.065 250.094 570.062C250.44 570.026 250.715 569.934 250.918 569.785C251.124 569.637 251.229 569.552 251.234 569.531H251.266V569.75ZM253.267 569.734C253.278 569.885 253.327 569.977 253.416 570.008C253.504 570.039 253.569 570.052 253.611 570.047C253.767 570.036 253.867 569.992 253.912 569.914C253.956 569.836 253.976 569.776 253.97 569.734V567.672C254.009 567.177 254.167 566.845 254.443 566.676C254.722 566.507 254.882 566.427 254.923 566.438C255.132 566.385 255.258 566.31 255.302 566.211C255.349 566.109 255.369 566.023 255.361 565.953C255.314 565.727 255.189 565.633 254.986 565.672C254.676 565.732 254.435 565.868 254.263 566.082C254.091 566.293 254.004 566.411 254.002 566.438H253.97V566.047C253.944 565.883 253.887 565.779 253.798 565.734C253.713 565.688 253.65 565.667 253.611 565.672C253.444 565.698 253.343 565.758 253.306 565.852C253.272 565.943 253.259 566.008 253.267 566.047V569.734ZM257.206 569.906L256.738 571.031C256.688 571.115 256.662 571.167 256.659 571.188C256.633 571.339 256.623 571.411 256.628 571.406C256.641 571.513 256.695 571.586 256.788 571.625C256.885 571.667 256.941 571.688 256.956 571.688C257.092 571.661 257.183 571.615 257.23 571.547C257.279 571.482 257.303 571.445 257.3 571.438L259.097 566.391C259.175 566.156 259.206 566.031 259.191 566.016C259.162 565.88 259.105 565.794 259.019 565.758C258.935 565.719 258.889 565.701 258.878 565.703C258.753 565.716 258.663 565.764 258.609 565.848C258.557 565.928 258.532 565.974 258.534 565.984L257.581 568.922H257.55L256.566 565.984C256.389 565.766 256.274 565.672 256.222 565.703C256.055 565.732 255.954 565.789 255.917 565.875C255.883 565.958 255.87 566.005 255.878 566.016C255.865 566.055 255.87 566.109 255.894 566.18C255.92 566.25 255.935 566.289 255.941 566.297C255.951 566.359 255.961 566.391 255.972 566.391L257.206 569.906ZM260.661 567.641C260.723 567.005 260.924 566.618 261.262 566.48C261.604 566.342 261.799 566.286 261.848 566.312C262.346 566.396 262.661 566.626 262.794 567.004C262.929 567.379 262.989 567.591 262.973 567.641H260.661ZM263.302 568.172C263.497 568.164 263.617 568.115 263.661 568.023C263.705 567.93 263.721 567.854 263.708 567.797C263.567 566.849 263.269 566.25 262.813 566C262.358 565.747 262.026 565.638 261.817 565.672C261.39 565.69 261.049 565.799 260.794 566C260.539 566.198 260.347 566.432 260.22 566.703C260.092 566.971 260.009 567.219 259.97 567.445C259.933 567.672 259.919 567.82 259.927 567.891C259.955 568.417 260.057 568.829 260.231 569.129C260.408 569.426 260.613 569.641 260.845 569.773C261.079 569.906 261.295 569.987 261.493 570.016C261.693 570.044 261.833 570.055 261.911 570.047C262.489 569.997 262.904 569.883 263.157 569.703C263.412 569.521 263.549 569.396 263.567 569.328C263.632 569.096 263.565 568.966 263.364 568.938C263.247 568.924 263.137 568.966 263.036 569.062C262.773 569.258 262.54 569.378 262.337 569.422C262.134 569.464 261.992 569.479 261.911 569.469C261.338 569.401 260.98 569.181 260.837 568.809C260.696 568.436 260.637 568.224 260.661 568.172H263.302ZM264.702 569.734C264.712 569.885 264.761 569.977 264.85 570.008C264.939 570.039 265.004 570.052 265.045 570.047C265.202 570.036 265.302 569.992 265.346 569.914C265.39 569.836 265.41 569.776 265.405 569.734V567.672C265.444 567.177 265.601 566.845 265.877 566.676C266.156 566.507 266.316 566.427 266.358 566.438C266.566 566.385 266.692 566.31 266.737 566.211C266.784 566.109 266.803 566.023 266.795 565.953C266.748 565.727 266.623 565.633 266.42 565.672C266.11 565.732 265.87 565.868 265.698 566.082C265.526 566.293 265.439 566.411 265.436 566.438H265.405V566.047C265.379 565.883 265.321 565.779 265.233 565.734C265.147 565.688 265.084 565.667 265.045 565.672C264.879 565.698 264.777 565.758 264.741 565.852C264.707 565.943 264.694 566.008 264.702 566.047V569.734Z" fill="black"/>
<g id="Group 121">
<circle id="Ellipse 196" cx="284" cy="521" r="27.5" stroke="black"/>
<path id="Vector 85" d="M260.746 536.186C262.554 536.743 266.686 537.788 270.238 538.033M304.407 539.034C302.78 539.034 299.914 537.795 296.339 536.732M267.39 543.305C269.288 543.78 273.844 544.729 276.882 544.729C280.678 544.729 284 541.407 289.695 541.407C294.251 541.407 297.605 543.305 298.712 544.254M270.238 538.033C270.726 538.066 271.203 538.085 271.661 538.085C276.407 538.085 279.729 535.237 287.322 535.237C290.577 535.237 293.658 535.935 296.339 536.732M270.238 538.033V521H266.441L263.594 511.034L275.458 507.237C276.565 509.294 279.729 513.407 283.526 513.407C287.322 513.407 290.803 509.294 292.068 507.237L302.983 511.034L301.56 521H296.339V536.732" stroke="#2E0B49" stroke-linecap="round"/>
<path id="Vector 86" d="M280.677 517.204C278.463 520.367 275.457 526.695 281.152 526.695C286.847 526.695 283.209 520.367 280.677 517.204Z" stroke="#2E0B49" stroke-linecap="round"/>
<path id="Vector 87" d="M287.795 525.746C286.372 527.96 284.283 532.39 287.321 532.39C290.358 532.39 288.903 527.96 287.795 525.746Z" stroke="#2E0B49" stroke-linecap="round"/>
<path id="Vector 88" d="M257.5 513.5H250.5V530H258" stroke="#2E0B49" stroke-linecap="round"/>
</g>
<circle id="Ellipse 197" cx="284" cy="608" r="27.5" stroke="black"/>
<path id="Vector 89" d="M258 598.5H252V617H258" stroke="#2E0B49" stroke-linecap="round"/>
<path id="Vector 90" d="M275.5 594C273.667 595.333 270 599.1 270 603.5C270 609 277 610 277 614C277 617.2 274 621.667 272.5 623.5" stroke="#2E0B49" stroke-linecap="round"/>
<path id="Vector 91" d="M284.5 594C282.667 595.333 279 599.1 279 603.5C279 609 286 610 286 614C286 617.2 283 621.667 281.5 623.5" stroke="#2E0B49" stroke-linecap="round"/>
<path id="Vector 92" d="M294.5 594C292.667 595.333 289 599.1 289 603.5C289 609 296 610 296 614C296 617.2 293 621.667 291.5 623.5" stroke="#2E0B49" stroke-linecap="round"/>
<g id="Group 127">
<circle id="Ellipse 198" cx="886.247" cy="369.899" r="6.06743" stroke="#2E0B49"/>
<line id="Line 36" x1="886.072" y1="349" x2="886.072" y2="363.831" stroke="#2E0B49"/>
<line id="Line 37" x1="879.186" y1="351.343" x2="885.927" y2="358.085" stroke="#2E0B49"/>
<line id="Line 38" y1="-0.5" x2="9.53404" y2="-0.5" transform="matrix(0.707107 -0.707107 -0.707107 -0.707107 885.572 358.438)" stroke="#2E0B49"/>
<g id="Group 122">
<line id="Line 39" x1="904.375" y1="359.059" x2="891.966" y2="367.183" stroke="#2E0B49"/>
<line id="Line 40" x1="898.642" y1="354.58" x2="896.694" y2="363.913" stroke="#2E0B49"/>
<line id="Line 41" y1="-0.5" x2="9.53404" y2="-0.5" transform="matrix(0.978904 0.20432 0.20432 -0.978904 896.205 363.811)" stroke="#2E0B49"/>
</g>
<g id="Group 123">
<line id="Line 39_2" x1="904.168" y1="380.494" x2="891.559" y2="372.685" stroke="#2E0B49"/>
<line id="Line 40_2" x1="905.8" y1="373.404" x2="896.519" y2="375.586" stroke="#2E0B49"/>
<line id="Line 41_2" y1="-0.5" x2="9.53404" y2="-0.5" transform="matrix(0.228878 0.973455 0.973455 -0.228878 896.406 375.099)" stroke="#2E0B49"/>
</g>
<g id="Group 124">
<line id="Line 39_3" x1="886.422" y1="390.922" x2="886.726" y2="376.094" stroke="#2E0B49"/>
<line id="Line 40_3" x1="893.356" y1="388.72" x2="886.754" y2="381.842" stroke="#2E0B49"/>
<line id="Line 41_3" y1="-0.5" x2="9.53404" y2="-0.5" transform="matrix(-0.721432 0.692485 0.692485 0.721432 887.115 381.496)" stroke="#2E0B49"/>
</g>
<g id="Group 125">
<line id="Line 39_4" x1="868.594" y1="380.915" x2="881.266" y2="373.209" stroke="#2E0B49"/>
<line id="Line 40_4" x1="874.172" y1="385.583" x2="876.43" y2="376.32" stroke="#2E0B49"/>
<line id="Line 41_4" y1="-0.5" x2="9.53404" y2="-0.5" transform="matrix(-0.971561 -0.236788 -0.236788 0.971561 876.916 376.438)" stroke="#2E0B49"/>
</g>
<g id="Group 126">
<line id="Line 39_5" x1="868.385" y1="359.361" x2="880.19" y2="368.34" stroke="#2E0B49"/>
<line id="Line 40_5" x1="866.079" y1="366.263" x2="875.526" y2="364.978" stroke="#2E0B49"/>
<line id="Line 41_5" y1="-0.5" x2="9.53404" y2="-0.5" transform="matrix(-0.134767 -0.990877 -0.990877 0.134767 875.592 365.473)" stroke="#2E0B49"/>
</g>
<line id="Line 42" x1="865.35" y1="394.343" x2="874.788" y2="394.343" stroke="#2E0B49"/>
<line id="Line 44" x1="876.135" y1="402.433" x2="880.18" y2="402.433" stroke="#2E0B49"/>
<line id="Line 48" x1="895.01" y1="392.995" x2="899.055" y2="392.995" stroke="#2E0B49"/>
<line id="Line 46" x1="886.922" y1="403.781" x2="893.663" y2="403.781" stroke="#2E0B49"/>
<line id="Line 43" x1="870.242" y1="398.888" x2="870.242" y2="389.449" stroke="#2E0B49"/>
<line id="Line 45" x1="878.332" y1="404.281" x2="878.332" y2="400.236" stroke="#2E0B49"/>
<line id="Line 49" x1="897.209" y1="394.843" x2="897.209" y2="390.798" stroke="#2E0B49"/>
<path id="Vector 93" d="M911.866 353.045V390.798C910.293 392.146 907.146 394.842 907.146 398.213C907.146 400.91 909.169 405.629 915.236 405.629C921.304 405.629 924 402.258 924 398.213C924 394.977 920.405 391.696 918.607 390.798V353.045C918.607 350.348 916.585 349.674 915.236 349.674C913.888 349.674 911.866 350.348 911.866 353.045Z" stroke="#2E0B49" stroke-linecap="round"/>
<line id="Line 47" x1="890.467" y1="406.978" x2="890.467" y2="400.236" stroke="#2E0B49"/>
<line id="Line 50" x1="919.281" y1="356.59" x2="923.326" y2="356.59" stroke="#2E0B49"/>
<line id="Line 51" x1="919.281" y1="363.332" x2="923.326" y2="363.332" stroke="#2E0B49"/>
<line id="Line 52" x1="919.281" y1="370.073" x2="923.326" y2="370.073" stroke="#2E0B49"/>
<line id="Line 53" x1="919.281" y1="378.163" x2="923.326" y2="378.163" stroke="#2E0B49"/>
<line id="Line 54" x1="919.281" y1="384.905" x2="923.326" y2="384.905" stroke="#2E0B49"/>
</g>
<g id="Group 128">
<line id="Line 55" x1="919.631" y1="246.15" x2="919.631" y2="256.47" stroke="#2E0B49"/>
<line id="Line 56" x1="919.131" y1="251.81" x2="907.951" y2="251.81" stroke="#2E0B49"/>
<path id="Rectangle 140" d="M900.424 258.55L886.52 258.55L886.52 244.5L900.424 244.5C904.304 244.5 907.449 247.645 907.449 251.525C907.449 255.404 904.304 258.55 900.424 258.55Z" stroke="#2E0B49"/>
<circle id="Ellipse 199" cx="919.13" cy="267.219" r="3.36988" transform="rotate(90 919.13 267.219)" stroke="#2E0B49"/>
<circle id="Ellipse 202" cx="883.224" cy="303.123" r="2.7249" transform="rotate(90 883.224 303.123)" stroke="#2E0B49"/>
<circle id="Ellipse 200" cx="902.791" cy="287.428" r="15.8395" transform="rotate(90 902.791 287.428)" stroke="#2E0B49"/>
<path id="Ellipse 201" d="M902.792 297.749C908.491 297.749 913.111 293.128 913.111 287.429M892.472 287.429C892.472 289.581 893.131 291.58 894.258 293.234M909.456 279.55C907.658 278.027 905.332 277.109 902.792 277.109C899.735 277.109 896.989 278.438 895.1 280.549" stroke="#2E0B49"/>
<line id="Line 57" x1="883.939" y1="265.5" x2="883.939" y2="271.089" stroke="#2E0B49"/>
<line id="Line 59" x1="920.92" y1="300.328" x2="920.92" y2="305.918" stroke="#2E0B49"/>
<line id="Line 58" x1="880.859" y1="268.009" x2="886.019" y2="268.009" stroke="#2E0B49"/>
<line id="Line 60" x1="917.84" y1="302.838" x2="923" y2="302.838" stroke="#2E0B49"/>
</g>
<path id="Rectangle 141" d="M669 38H712V42C712 44.2091 710.209 46 708 46H673C670.791 46 669 44.2091 669 42V38Z" stroke="#2E0B49"/>
<path id="Vector 94" d="M686 30.5C685.667 30.6667 685 31.2 685 32C685 33 687 32.5 687 34C687 35.2 686.333 35.8333 686 36" stroke="#2E0B49" stroke-linecap="round"/>
<path id="Vector 95" d="M690 30.5C689.667 30.6667 689 31.2 689 32C689 33 691 32.5 691 34C691 35.2 690.333 35.8333 690 36" stroke="#2E0B49" stroke-linecap="round"/>
<path id="Vector 96" d="M694 30.5C693.667 30.6667 693 31.2 693 32C693 33 695 32.5 695 34C695 35.2 694.333 35.8333 694 36" stroke="#2E0B49" stroke-linecap="round"/>
</g>
<defs>
<filter id="filter0_f_43_2" x="57.7207" y="187.721" width="26.6035" height="26.6035" filterUnits="userSpaceOnUse" color-interpolation-filters="sRGB">
<feFlood flood-opacity="0" result="BackgroundImageFix"/>
<feBlend mode="normal" in="SourceGraphic" in2="BackgroundImageFix" result="shape"/>
<feGaussianBlur stdDeviation="2" result="effect1_foregroundBlur_43_2"/>
</filter>
<filter id="filter1_f_43_2" x="501.721" y="106.721" width="26.6035" height="26.6035" filterUnits="userSpaceOnUse" color-interpolation-filters="sRGB">
<feFlood flood-opacity="0" result="BackgroundImageFix"/>
<feBlend mode="normal" in="SourceGraphic" in2="BackgroundImageFix" result="shape"/>
<feGaussianBlur stdDeviation="2" result="effect1_foregroundBlur_43_2"/>
</filter>
<filter id="filter2_f_43_2" x="376.721" y="359.721" width="26.6035" height="26.6035" filterUnits="userSpaceOnUse" color-interpolation-filters="sRGB">
<feFlood flood-opacity="0" result="BackgroundImageFix"/>
<feBlend mode="normal" in="SourceGraphic" in2="BackgroundImageFix" result="shape"/>
<feGaussianBlur stdDeviation="2" result="effect1_foregroundBlur_43_2"/>
</filter>
<filter id="filter3_f_43_2" x="723.721" y="136.721" width="26.6035" height="26.6035" filterUnits="userSpaceOnUse" color-interpolation-filters="sRGB">
<feFlood flood-opacity="0" result="BackgroundImageFix"/>
<feBlend mode="normal" in="SourceGraphic" in2="BackgroundImageFix" result="shape"/>
<feGaussianBlur stdDeviation="2" result="effect1_foregroundBlur_43_2"/>
</filter>
<filter id="filter4_f_43_2" x="723.721" y="274.721" width="26.6035" height="26.6035" filterUnits="userSpaceOnUse" color-interpolation-filters="sRGB">
<feFlood flood-opacity="0" result="BackgroundImageFix"/>
<feBlend mode="normal" in="SourceGraphic" in2="BackgroundImageFix" result="shape"/>
<feGaussianBlur stdDeviation="2" result="effect1_foregroundBlur_43_2"/>
</filter>
<filter id="filter5_f_43_2" x="350.721" y="607.721" width="26.6035" height="26.6035" filterUnits="userSpaceOnUse" color-interpolation-filters="sRGB">
<feFlood flood-opacity="0" result="BackgroundImageFix"/>
<feBlend mode="normal" in="SourceGraphic" in2="BackgroundImageFix" result="shape"/>
<feGaussianBlur stdDeviation="2" result="effect1_foregroundBlur_43_2"/>
</filter>
<filter id="filter6_f_43_2" x="694.721" y="629.721" width="26.6035" height="26.6035" filterUnits="userSpaceOnUse" color-interpolation-filters="sRGB">
<feFlood flood-opacity="0" result="BackgroundImageFix"/>
<feBlend mode="normal" in="SourceGraphic" in2="BackgroundImageFix" result="shape"/>
<feGaussianBlur stdDeviation="2" result="effect1_foregroundBlur_43_2"/>
</filter>
<filter id="filter7_f_43_2" x="163.721" y="562.721" width="26.6035" height="26.6035" filterUnits="userSpaceOnUse" color-interpolation-filters="sRGB">
<feFlood flood-opacity="0" result="BackgroundImageFix"/>
<feBlend mode="normal" in="SourceGraphic" in2="BackgroundImageFix" result="shape"/>
<feGaussianBlur stdDeviation="2" result="effect1_foregroundBlur_43_2"/>
</filter>
</defs>
</svg>
