<svg width="126" height="90" viewBox="0 0 126 90" fill="none" xmlns="http://www.w3.org/2000/svg">
<path d="M9 46H120V58.719C120 70.4722 110.472 80 98.719 80H30.281C18.5278 80 9 70.4722 9 58.719V46Z" stroke="white" stroke-width="3" stroke-linecap="round"/>
<line x1="3.5" y1="44.5" x2="124.5" y2="44.5" stroke="white" stroke-width="3" stroke-linecap="round"/>
<path d="M19.6191 88.0001C20.0217 85.5271 22.3298 80.5811 28.3415 80.5811C35.8562 80.5811 96.9127 80.5811 103.354 80.5811C108.507 80.5811 110.332 85.5271 110.6 88.0001" stroke="white" stroke-width="3" stroke-linecap="round" stroke-linejoin="round"/>
<path d="M20 43C20 35.0033 20 18.1849 20 14.8849C20 10.7599 24.0978 10 26.3587 10C28.6196 10 33 10.5428 33 14.8849" stroke="white" stroke-width="3" stroke-linecap="round" stroke-linejoin="round"/>
<path d="M39.4952 22.2476C38.4087 22.2476 36.6981 22.2476 33.2476 22.2476C29.7972 22.2476 27.2716 22.2476 27 22.2476C27 18.7972 29.7972 16 33.2476 16C36.6981 16 39.4952 18.7972 39.4952 22.2476Z" stroke="white" stroke-width="3" stroke-linecap="round"/>
<line x1="80.5" y1="23.5" x2="112.5" y2="23.5" stroke="white" stroke-width="3" stroke-linecap="round"/>
<path d="M88.6568 3.65723V6.80056C87.7712 7.24961 86 8.6686 86 10.7522V21.6191H94.5905V10.7522C94.5905 8.16566 92.9373 7.04005 92.1108 6.80056V3.65723H88.6568Z" stroke="white" stroke-width="3" stroke-linecap="round" stroke-linejoin="round"/>
<rect x="95.7617" y="16.5427" width="11.7143" height="5.07619" rx="2.5381" stroke="white" stroke-width="3" stroke-linecap="round"/>
<rect x="54" y="39" width="29" height="32" rx="3" fill="#848AFE" stroke="white" stroke-width="3"/>
<path d="M52 44.3428H7V57.0618C7 68.815 16.5278 78.3428 28.281 78.3428H96.719C108.472 78.3428 118 68.815 118 57.0618V44.3428H81" stroke="#7CD7D9" stroke-width="3" stroke-linecap="round"/>
<path d="M1.5 42.8428L51.5 42.8428M122.5 42.8428L81.5 42.8428" stroke="#7CD7D9" stroke-width="3" stroke-linecap="round"/>
<path d="M17.6191 86.3429C18.0217 83.8699 20.3298 78.9238 26.3415 78.9238C33.8562 78.9238 94.9127 78.9238 101.354 78.9238C106.507 78.9238 108.332 83.8699 108.6 86.3429" stroke="#7CD7D9" stroke-width="3" stroke-linecap="round" stroke-linejoin="round"/>
<path d="M18 41.3428C18 33.3461 18 16.5276 18 13.2276C18 9.10264 22.0978 8.34277 24.3587 8.34277C26.6196 8.34277 31 8.88554 31 13.2276" stroke="#7CD7D9" stroke-width="3" stroke-linecap="round" stroke-linejoin="round"/>
<path d="M37.4952 20.5904C36.4087 20.5904 34.6981 20.5904 31.2476 20.5904C27.7972 20.5904 25.2716 20.5904 25 20.5904C25 17.1399 27.7972 14.3428 31.2476 14.3428C34.6981 14.3428 37.4952 17.1399 37.4952 20.5904Z" stroke="#7CD7D9" stroke-width="3" stroke-linecap="round"/>
<line x1="78.5" y1="21.8428" x2="110.5" y2="21.8428" stroke="#7CD7D9" stroke-width="3" stroke-linecap="round"/>
<path d="M86.6568 2V5.14333C85.7712 5.59238 84 7.01137 84 9.09495V19.9619H92.5905V9.09495C92.5905 6.50844 90.9373 5.38283 90.1108 5.14333V2H86.6568Z" stroke="#7CD7D9" stroke-width="3" stroke-linecap="round" stroke-linejoin="round"/>
<rect x="93.7617" y="14.8855" width="11.7143" height="5.07619" rx="2.5381" stroke="#7CD7D9" stroke-width="3" stroke-linecap="round"/>
<rect x="52" y="37.3428" width="29" height="32" rx="3" stroke="#7CD7D9" stroke-width="3"/>
</svg>
