<svg width="118" height="78" viewBox="0 0 118 78" fill="none" xmlns="http://www.w3.org/2000/svg">
<path d="M89.6657 18.0723L42.0736 5L4 38.0653L15.6336 40.8272M89.6657 18.0723L63.8804 42.679M89.6657 18.0723L108.702 31.3369M115.048 35.7584L108.702 31.3369M63.8804 42.679L55.8224 50.3686L15.6336 40.8272M63.8804 42.679V75.7443M63.8804 75.7443L15.6336 64.2099V40.8272M63.8804 75.7443L80.1473 71.5582M108.702 31.3369V64.2099L96.0113 67.4758M80.1473 71.5582V48.0617L96.0113 44.217V67.4758M80.1473 71.5582L96.0113 67.4758" stroke="white" stroke-width="4" stroke-linecap="round" stroke-linejoin="round"/>
<path d="M87.6657 15.0723L40.0736 2L2 35.0653L13.6336 37.8272M87.6657 15.0723L61.8804 39.679M87.6657 15.0723L106.702 28.3369M113.048 32.7584L106.702 28.3369M61.8804 39.679L53.8224 47.3686L13.6336 37.8272M61.8804 39.679V72.7443M61.8804 72.7443L13.6336 61.2099V37.8272M61.8804 72.7443L78.1473 68.5582M106.702 28.3369V61.2099L94.0113 64.4758M78.1473 68.5582V45.0617L94.0113 41.217V64.4758M78.1473 68.5582L94.0113 64.4758" stroke="#7CD7D9" stroke-width="4" stroke-linecap="round" stroke-linejoin="round"/>
</svg>
