<svg width="88" height="42" viewBox="0 0 88 42" fill="none" xmlns="http://www.w3.org/2000/svg">
<path d="M66.7422 35.2383L74.8281 16.7227C75.541 15.248 75.2285 14.5059 73.8906 14.4961H62.875C62.084 14.5938 61.6885 14.9697 61.6885 15.624C61.6885 16.2686 62.084 16.6348 62.875 16.7227H72.1328V16.8398L64.2812 34.125C63.8418 35.375 64.0127 36.0928 64.7939 36.2783C65.585 36.4639 66.2344 36.1172 66.7422 35.2383Z" fill="#F7B634"/>
<path d="M35.9646 34.4C32.7538 35.2 10.765 35.2 9.29558 34.4C6.84656 33.0666 4.52324 31.4776 5.08469 28.0308C5.64614 24.5839 9.52952 23.5973 11.401 23.5349C10.6992 22.4109 9.71667 19.5635 11.401 17.1657C13.0854 14.7679 16.8986 15.5422 18.5946 16.2291C19.7643 14.0435 23.5073 10.3095 29.1219 12.8571C34.7364 15.4048 34.7364 21.0372 34.0346 23.5349C38.5964 22.7856 40 27.6561 40 29.3421C40 31.0281 39.04 33.6337 35.9646 34.4Z" fill="#F7B634" fill-opacity="0.5"/>
<path d="M30.0799 36.4522C26.9608 37.1826 5.6003 37.1826 4.17285 36.4522C1.7938 35.2348 -0.463142 33.7839 0.082269 30.6368C0.62768 27.4897 4.4001 26.5889 6.21814 26.5319C5.53638 25.5056 4.58191 22.9058 6.21814 20.7165C7.85437 18.5272 11.5586 19.2342 13.2062 19.8613C14.3425 17.8658 17.9786 14.4565 23.4327 16.7826C28.8868 19.1087 28.8868 24.2513 28.205 26.5319C32.6365 25.8477 34 30.2947 34 31.8341C34 33.3734 33.0675 35.7525 30.0799 36.4522Z" fill="#F7B634"/>
<circle cx="84.5" cy="14.5" r="2.5" stroke="#F7B634"/>
</svg>
